<?xml version="1.0" encoding="UTF-8" standalone="no"?><!DOCTYPE svg PUBLIC "-//W3C//DTD SVG 1.1//EN" "http://www.w3.org/Graphics/SVG/1.1/DTD/svg11.dtd"><svg width="100%" height="100%" viewBox="0 0 503 99" version="1.1" xmlns="http://www.w3.org/2000/svg" xmlns:xlink="http://www.w3.org/1999/xlink" xml:space="preserve" xmlns:serif="http://www.serif.com/" style="fill-rule:evenodd;clip-rule:evenodd;stroke-linejoin:round;stroke-miterlimit:2;"><path d="M128.363,70.261l0,-38.109l8.717,0l0,4.397l1.311,0c0.566,-1.594 1.517,-2.751 2.854,-3.471c1.337,-0.72 2.931,-1.08 4.783,-1.08l4.629,0l0,7.869l-4.783,0c-2.571,0 -4.654,0.681 -6.249,2.044c-1.594,1.363 -2.391,3.459 -2.391,6.287l0,22.063l-8.871,0Z" style="fill:#fffdfd;fill-rule:nonzero;"/><path d="M174.571,71.341c-3.806,0 -7.161,-0.81 -10.067,-2.43c-2.906,-1.62 -5.169,-3.909 -6.789,-6.866c-1.62,-2.957 -2.43,-6.416 -2.43,-10.376l0,-0.926c0,-4.011 0.797,-7.483 2.391,-10.414c1.594,-2.931 3.831,-5.207 6.711,-6.827c2.88,-1.62 6.197,-2.43 9.951,-2.43c3.703,0 6.943,0.81 9.72,2.43c2.777,1.62 4.937,3.896 6.48,6.827c1.543,2.931 2.314,6.351 2.314,10.26l0,3.163l-28.62,0c0.103,2.983 1.157,5.374 3.163,7.174c2.006,1.8 4.474,2.7 7.406,2.7c2.88,0 5.014,-0.63 6.403,-1.89c1.389,-1.26 2.443,-2.687 3.163,-4.281l7.329,3.78c-0.72,1.389 -1.761,2.867 -3.124,4.436c-1.363,1.569 -3.176,2.906 -5.439,4.011c-2.263,1.106 -5.117,1.659 -8.563,1.659Zm-10.26,-24.3l19.517,0c-0.206,-2.52 -1.17,-4.526 -2.893,-6.017c-1.723,-1.491 -3.947,-2.237 -6.673,-2.237c-2.829,-0 -5.091,0.746 -6.789,2.237c-1.697,1.491 -2.751,3.497 -3.163,6.017Z" style="fill:#fffdfd;fill-rule:nonzero;"/><rect x="201.957" y="16.261" width="8.871" height="54" style="fill:#fffdfd;fill-rule:nonzero;"/><path d="M233.894,71.341c-2.674,0 -5.091,-0.476 -7.251,-1.427c-2.16,-0.951 -3.87,-2.327 -5.13,-4.127c-1.26,-1.8 -1.89,-4.011 -1.89,-6.634c0,-2.571 0.63,-4.731 1.89,-6.48c1.26,-1.749 2.996,-3.073 5.207,-3.973c2.211,-0.9 4.731,-1.35 7.56,-1.35l11.031,0l0,-2.314c0,-2.006 -0.617,-3.639 -1.851,-4.899c-1.234,-1.26 -3.163,-1.89 -5.786,-1.89c-2.571,0 -4.513,0.604 -5.824,1.813c-1.311,1.209 -2.173,2.764 -2.584,4.667l-8.177,-2.7c0.617,-2.006 1.607,-3.831 2.97,-5.477c1.363,-1.646 3.176,-2.97 5.439,-3.973c2.263,-1.003 5.04,-1.504 8.331,-1.504c4.989,0 8.91,1.247 11.764,3.741c2.854,2.494 4.281,6.107 4.281,10.839l0,14.966c0,1.543 0.72,2.314 2.16,2.314l3.24,0l0,7.329l-6.249,0c-1.851,0 -3.369,-0.463 -4.551,-1.389c-1.183,-0.926 -1.774,-2.186 -1.774,-3.78l0,-0.154l-1.311,0c-0.309,0.72 -0.849,1.594 -1.62,2.623c-0.771,1.029 -1.941,1.916 -3.51,2.661c-1.569,0.746 -3.69,1.119 -6.364,1.119Zm1.466,-7.251c2.931,0 5.323,-0.836 7.174,-2.507c1.851,-1.671 2.777,-3.921 2.777,-6.75l0,-0.771l-10.491,0c-1.903,0 -3.446,0.411 -4.629,1.234c-1.183,0.823 -1.774,2.031 -1.774,3.626c0,1.543 0.617,2.79 1.851,3.741c1.234,0.951 2.931,1.427 5.091,1.427Z" style="fill:#fffdfd;fill-rule:nonzero;"/><path d="M269.766,85.69l0,-7.714l21.06,0c1.44,0 2.16,-0.771 2.16,-2.314l0,-10.646l-1.311,0c-0.411,0.926 -1.08,1.839 -2.006,2.739c-0.926,0.9 -2.16,1.646 -3.703,2.237c-1.543,0.591 -3.497,0.887 -5.863,0.887c-2.931,0 -5.529,-0.656 -7.791,-1.967c-2.263,-1.311 -4.011,-3.163 -5.246,-5.554c-1.234,-2.391 -1.851,-5.181 -1.851,-8.37l0,-22.834l8.794,0l0,22.14c0,3.086 0.759,5.374 2.276,6.866c1.517,1.491 3.664,2.237 6.441,2.237c3.137,0 5.619,-1.029 7.444,-3.086c1.826,-2.057 2.739,-5.014 2.739,-8.871l0,-19.286l8.794,0l0,45.36c0,2.52 -0.72,4.513 -2.16,5.979c-1.44,1.466 -3.394,2.199 -5.863,2.199l-23.914,0Z" style="fill:#fffdfd;fill-rule:nonzero;"/><path d="M312.966,85.69l0,-53.537l8.717,0l0,5.014l1.311,0c0.874,-1.594 2.276,-3.009 4.204,-4.243c1.929,-1.234 4.693,-1.851 8.293,-1.851c3.086,0 5.953,0.759 8.601,2.276c2.649,1.517 4.77,3.741 6.364,6.673c1.594,2.931 2.391,6.454 2.391,10.569l0,1.234c0,4.114 -0.797,7.637 -2.391,10.569c-1.594,2.931 -3.703,5.156 -6.326,6.673c-2.623,1.517 -5.503,2.276 -8.64,2.276c-2.417,0 -4.436,-0.283 -6.056,-0.849c-1.62,-0.566 -2.931,-1.311 -3.934,-2.237c-1.003,-0.926 -1.787,-1.851 -2.353,-2.777l-1.311,0l0,20.211l-8.871,0Zm19.903,-22.063c3.24,0 5.901,-1.041 7.984,-3.124c2.083,-2.083 3.124,-5.053 3.124,-8.91l0,-0.771c0,-3.909 -1.054,-6.891 -3.163,-8.949c-2.109,-2.057 -4.757,-3.086 -7.946,-3.086c-3.189,-0 -5.85,1.029 -7.984,3.086c-2.134,2.057 -3.201,5.04 -3.201,8.949l0,0.771c0,3.857 1.067,6.827 3.201,8.91c2.134,2.083 4.796,3.124 7.984,3.124Z" style="fill:#fffdfd;fill-rule:nonzero;"/><path d="M380.311,71.341c-3.806,0 -7.213,-0.784 -10.221,-2.353c-3.009,-1.569 -5.374,-3.806 -7.097,-6.711c-1.723,-2.906 -2.584,-6.39 -2.584,-10.453l0,-1.234c0,-4.063 0.861,-7.56 2.584,-10.491c1.723,-2.931 4.089,-5.169 7.097,-6.711c3.009,-1.543 6.416,-2.314 10.221,-2.314c3.806,0 7.2,0.771 10.183,2.314c2.983,1.543 5.336,3.78 7.059,6.711c1.723,2.931 2.584,6.429 2.584,10.491l0,1.234c0,4.063 -0.861,7.547 -2.584,10.453c-1.723,2.906 -4.076,5.143 -7.059,6.711c-2.983,1.569 -6.377,2.353 -10.183,2.353Zm0,-7.869c3.24,-0 5.889,-1.041 7.946,-3.124c2.057,-2.083 3.086,-5.001 3.086,-8.756l0,-0.771c0,-3.754 -1.029,-6.673 -3.086,-8.756c-2.057,-2.083 -4.706,-3.124 -7.946,-3.124c-3.24,0 -5.889,1.041 -7.946,3.124c-2.057,2.083 -3.086,5.001 -3.086,8.756l0,0.771c0,3.754 1.029,6.673 3.086,8.756c2.057,2.083 4.706,3.124 7.946,3.124Z" style="fill:#fffdfd;fill-rule:nonzero;"/><path d="M409.549,70.261l0,-38.109l8.871,0l0,38.109l-8.871,0Zm4.397,-42.969c-1.594,0 -2.97,-0.527 -4.127,-1.581c-1.157,-1.054 -1.736,-2.456 -1.736,-4.204c0,-1.749 0.579,-3.15 1.736,-4.204c1.157,-1.054 2.533,-1.581 4.127,-1.581c1.697,0 3.099,0.527 4.204,1.581c1.106,1.054 1.659,2.456 1.659,4.204c0,1.749 -0.553,3.15 -1.659,4.204c-1.106,1.054 -2.507,1.581 -4.204,1.581Z" style="fill:#fffdfd;fill-rule:nonzero;"/><path d="M429.683,70.261l0,-38.109l8.717,0l0,5.323l1.311,0c0.669,-1.44 1.877,-2.803 3.626,-4.089c1.749,-1.286 4.397,-1.929 7.946,-1.929c2.931,0 5.529,0.669 7.791,2.006c2.263,1.337 4.024,3.189 5.284,5.554c1.26,2.366 1.89,5.169 1.89,8.409l0,22.834l-8.871,0l0,-22.14c0,-3.086 -0.759,-5.387 -2.276,-6.904c-1.517,-1.517 -3.664,-2.276 -6.441,-2.276c-3.137,0 -5.606,1.041 -7.406,3.124c-1.8,2.083 -2.7,5.053 -2.7,8.91l0,19.286l-8.871,0Z" style="fill:#fffdfd;fill-rule:nonzero;"/><path d="M490.549,70.261c-2.469,0 -4.436,-0.733 -5.901,-2.199c-1.466,-1.466 -2.199,-3.459 -2.199,-5.979l0,-22.603l-9.951,0l0,-7.329l9.951,0l0,-12.266l8.871,0l0,12.266l10.954,0l0,7.329l-10.954,0l0,21.137c0,1.543 0.72,2.314 2.16,2.314l7.637,0l0,7.329l-10.569,0Z" style="fill:#fffdfd;fill-rule:nonzero;"/><g><path d="M43.2,-0l-43.2,54l43.2,45l0,-99Z" style="fill:#22c55e;fill-rule:nonzero;"/><path d="M43.2,-0l43.2,54l-43.2,45l0,-99Z" style="fill:#15803d;fill-rule:nonzero;"/><path d="M43.2,-0l-43.2,54l43.2,-13.5l43.2,13.5l-43.2,-54Z" style="fill:#86efac;fill-rule:nonzero;"/></g></svg>