<?xml version="1.0" encoding="UTF-8" standalone="no"?><!DOCTYPE svg PUBLIC "-//W3C//DTD SVG 1.1//EN" "http://www.w3.org/Graphics/SVG/1.1/DTD/svg11.dtd"><svg width="100%" height="100%" viewBox="0 0 260 72" version="1.1" xmlns="http://www.w3.org/2000/svg" xmlns:xlink="http://www.w3.org/1999/xlink" xml:space="preserve" xmlns:serif="http://www.serif.com/" style="fill-rule:evenodd;clip-rule:evenodd;stroke-linejoin:round;stroke-miterlimit:2;"><rect id="Artboard1" x="0" y="0" width="259.2" height="72" style="fill:none;"/><path d="M65.056,39.737l0,-6.86l1.569,0l0,0.791l0.236,0c0.102,-0.287 0.273,-0.495 0.514,-0.625c0.241,-0.13 0.528,-0.194 0.861,-0.194l0.833,0l0,1.416l-0.861,0c-0.463,0 -0.838,0.123 -1.125,0.368c-0.287,0.245 -0.43,0.623 -0.43,1.132l0,3.971l-1.597,0Z" style="fill:#262626;fill-rule:nonzero;"/><path d="M73.373,39.931c-0.685,0 -1.289,-0.146 -1.812,-0.437c-0.523,-0.292 -0.93,-0.704 -1.222,-1.236c-0.292,-0.532 -0.437,-1.155 -0.437,-1.868l0,-0.167c0,-0.722 0.143,-1.347 0.43,-1.875c0.287,-0.528 0.69,-0.937 1.208,-1.229c0.518,-0.292 1.115,-0.437 1.791,-0.437c0.667,0 1.25,0.146 1.75,0.437c0.5,0.292 0.889,0.701 1.166,1.229c0.278,0.528 0.417,1.143 0.417,1.847l0,0.569l-5.152,0c0.019,0.537 0.208,0.967 0.569,1.291c0.361,0.324 0.805,0.486 1.333,0.486c0.518,0 0.903,-0.113 1.153,-0.34c0.25,-0.227 0.44,-0.484 0.569,-0.771l1.319,0.68c-0.13,0.25 -0.317,0.516 -0.562,0.798c-0.245,0.282 -0.572,0.523 -0.979,0.722c-0.407,0.199 -0.921,0.299 -1.541,0.299Zm-1.847,-4.374l3.513,0c-0.037,-0.454 -0.211,-0.815 -0.521,-1.083c-0.31,-0.268 -0.71,-0.403 -1.201,-0.403c-0.509,0 -0.916,0.134 -1.222,0.403c-0.305,0.268 -0.495,0.629 -0.569,1.083Z" style="fill:#262626;fill-rule:nonzero;"/><rect x="78.303" y="30.017" width="1.597" height="9.72" style="fill:#262626;fill-rule:nonzero;"/><path d="M84.051,39.931c-0.481,0 -0.916,-0.086 -1.305,-0.257c-0.389,-0.171 -0.697,-0.419 -0.923,-0.743c-0.227,-0.324 -0.34,-0.722 -0.34,-1.194c0,-0.463 0.113,-0.852 0.34,-1.166c0.227,-0.315 0.539,-0.553 0.937,-0.715c0.398,-0.162 0.852,-0.243 1.361,-0.243l1.986,0l0,-0.417c0,-0.361 -0.111,-0.655 -0.333,-0.882c-0.222,-0.227 -0.569,-0.34 -1.041,-0.34c-0.463,0 -0.812,0.109 -1.048,0.326c-0.236,0.218 -0.391,0.498 -0.465,0.84l-1.472,-0.486c0.111,-0.361 0.289,-0.69 0.535,-0.986c0.245,-0.296 0.572,-0.535 0.979,-0.715c0.407,-0.181 0.907,-0.271 1.5,-0.271c0.898,0 1.604,0.224 2.118,0.673c0.514,0.449 0.771,1.099 0.771,1.951l0,2.694c0,0.278 0.13,0.417 0.389,0.417l0.583,0l0,1.319l-1.125,0c-0.333,0 -0.606,-0.083 -0.819,-0.25c-0.213,-0.167 -0.319,-0.393 -0.319,-0.68l0,-0.028l-0.236,0c-0.056,0.13 -0.153,0.287 -0.292,0.472c-0.139,0.185 -0.349,0.345 -0.632,0.479c-0.282,0.134 -0.664,0.201 -1.146,0.201Zm0.264,-1.305c0.528,0 0.958,-0.15 1.291,-0.451c0.333,-0.301 0.5,-0.706 0.5,-1.215l0,-0.139l-1.888,0c-0.343,0 -0.62,0.074 -0.833,0.222c-0.213,0.148 -0.319,0.366 -0.319,0.653c0,0.278 0.111,0.502 0.333,0.673c0.222,0.171 0.528,0.257 0.916,0.257Z" style="fill:#262626;fill-rule:nonzero;"/><path d="M90.508,42.514l0,-1.389l3.791,0c0.259,0 0.389,-0.139 0.389,-0.417l0,-1.916l-0.236,0c-0.074,0.167 -0.194,0.331 -0.361,0.493c-0.167,0.162 -0.389,0.296 -0.667,0.403c-0.278,0.106 -0.629,0.16 -1.055,0.16c-0.528,0 -0.995,-0.118 -1.402,-0.354c-0.407,-0.236 -0.722,-0.569 -0.944,-1c-0.222,-0.43 -0.333,-0.933 -0.333,-1.507l0,-4.11l1.583,0l0,3.985c0,0.555 0.137,0.967 0.41,1.236c0.273,0.268 0.66,0.403 1.159,0.403c0.565,0 1.011,-0.185 1.34,-0.555c0.329,-0.37 0.493,-0.903 0.493,-1.597l0,-3.471l1.583,0l0,8.165c0,0.454 -0.13,0.812 -0.389,1.076c-0.259,0.264 -0.611,0.396 -1.055,0.396l-4.305,0Z" style="fill:#262626;fill-rule:nonzero;"/><path d="M98.284,42.514l0,-9.637l1.569,0l0,0.903l0.236,0c0.157,-0.287 0.41,-0.542 0.757,-0.764c0.347,-0.222 0.845,-0.333 1.493,-0.333c0.555,0 1.072,0.137 1.548,0.41c0.477,0.273 0.859,0.673 1.146,1.201c0.287,0.528 0.43,1.162 0.43,1.902l0,0.222c0,0.741 -0.143,1.375 -0.43,1.902c-0.287,0.528 -0.667,0.928 -1.139,1.201c-0.472,0.273 -0.991,0.41 -1.555,0.41c-0.435,0 -0.798,-0.051 -1.09,-0.153c-0.292,-0.102 -0.528,-0.236 -0.708,-0.403c-0.181,-0.167 -0.322,-0.333 -0.424,-0.5l-0.236,0l0,3.638l-1.597,0Zm3.583,-3.971c0.583,0 1.062,-0.187 1.437,-0.562c0.375,-0.375 0.562,-0.91 0.562,-1.604l0,-0.139c0,-0.704 -0.19,-1.24 -0.569,-1.611c-0.38,-0.37 -0.856,-0.555 -1.43,-0.555c-0.574,0 -1.053,0.185 -1.437,0.555c-0.384,0.37 -0.576,0.907 -0.576,1.611l0,0.139c0,0.694 0.192,1.229 0.576,1.604c0.384,0.375 0.863,0.562 1.437,0.562Z" style="fill:#262626;fill-rule:nonzero;"/><path d="M110.406,39.931c-0.685,0 -1.298,-0.141 -1.84,-0.424c-0.542,-0.282 -0.967,-0.685 -1.277,-1.208c-0.31,-0.523 -0.465,-1.15 -0.465,-1.882l0,-0.222c0,-0.731 0.155,-1.361 0.465,-1.888c0.31,-0.528 0.736,-0.93 1.277,-1.208c0.542,-0.278 1.155,-0.417 1.84,-0.417c0.685,0 1.296,0.139 1.833,0.417c0.537,0.278 0.96,0.68 1.271,1.208c0.31,0.528 0.465,1.157 0.465,1.888l0,0.222c0,0.731 -0.155,1.358 -0.465,1.882c-0.31,0.523 -0.734,0.926 -1.271,1.208c-0.537,0.282 -1.148,0.424 -1.833,0.424Zm0,-1.416c0.583,0 1.06,-0.187 1.43,-0.562c0.37,-0.375 0.555,-0.9 0.555,-1.576l0,-0.139c0,-0.676 -0.185,-1.201 -0.555,-1.576c-0.37,-0.375 -0.847,-0.562 -1.43,-0.562c-0.583,0 -1.06,0.187 -1.43,0.562c-0.37,0.375 -0.555,0.9 -0.555,1.576l0,0.139c0,0.676 0.185,1.201 0.555,1.576c0.37,0.375 0.847,0.562 1.43,0.562Z" style="fill:#262626;fill-rule:nonzero;"/><path d="M115.669,39.737l0,-6.86l1.597,0l0,6.86l-1.597,0Zm0.791,-7.734c-0.287,0 -0.535,-0.095 -0.743,-0.285c-0.208,-0.19 -0.312,-0.442 -0.312,-0.757c0,-0.315 0.104,-0.567 0.312,-0.757c0.208,-0.19 0.456,-0.285 0.743,-0.285c0.305,0 0.558,0.095 0.757,0.285c0.199,0.19 0.299,0.442 0.299,0.757c0,0.315 -0.1,0.567 -0.299,0.757c-0.199,0.19 -0.451,0.285 -0.757,0.285Z" style="fill:#262626;fill-rule:nonzero;"/><path d="M119.293,39.737l0,-6.86l1.569,0l0,0.958l0.236,0c0.12,-0.259 0.338,-0.505 0.653,-0.736c0.315,-0.231 0.791,-0.347 1.43,-0.347c0.528,0 0.995,0.12 1.402,0.361c0.407,0.241 0.724,0.574 0.951,1c0.227,0.426 0.34,0.93 0.34,1.514l0,4.11l-1.597,0l0,-3.985c0,-0.555 -0.137,-0.97 -0.41,-1.243c-0.273,-0.273 -0.66,-0.41 -1.159,-0.41c-0.565,0 -1.009,0.187 -1.333,0.562c-0.324,0.375 -0.486,0.91 -0.486,1.604l0,3.471l-1.597,0Z" style="fill:#262626;fill-rule:nonzero;"/><path d="M130.249,39.737c-0.444,0 -0.798,-0.132 -1.062,-0.396c-0.264,-0.264 -0.396,-0.623 -0.396,-1.076l0,-4.069l-1.791,0l0,-1.319l1.791,0l0,-2.208l1.597,0l0,2.208l1.972,0l0,1.319l-1.972,0l0,3.805c0,0.278 0.13,0.417 0.389,0.417l1.375,0l0,1.319l-1.902,0Z" style="fill:#262626;fill-rule:nonzero;"/><g><path d="M49.726,27.09l-7.776,9.72l7.776,8.1l0,-17.82Z" style="fill:#22c55e;fill-rule:nonzero;"/><path d="M49.726,27.09l7.776,9.72l-7.776,8.1l0,-17.82Z" style="fill:#15803d;fill-rule:nonzero;"/><path d="M49.726,27.09l-7.776,9.72l7.776,-2.43l7.776,2.43l-7.776,-9.72Z" style="fill:#86efac;fill-rule:nonzero;"/></g><g><path d="M163.494,34.618l0,-2.124l-0.751,0l0,-0.392l1.934,0l0,0.392l-0.751,0l0,2.124l-0.431,0Z" style="fill:#15803d;fill-rule:nonzero;"/><path d="M165.029,34.618l0,-2.516l0.413,0l0,0.974l0.061,0c0.019,-0.041 0.05,-0.081 0.093,-0.122c0.043,-0.041 0.1,-0.074 0.171,-0.101c0.071,-0.026 0.16,-0.04 0.268,-0.04c0.137,0 0.258,0.031 0.363,0.092c0.105,0.061 0.187,0.147 0.246,0.257c0.059,0.11 0.088,0.241 0.088,0.392l0,1.064l-0.413,0l0,-1.031c0,-0.144 -0.035,-0.251 -0.106,-0.322c-0.071,-0.071 -0.171,-0.106 -0.3,-0.106c-0.146,0 -0.261,0.049 -0.345,0.146c-0.084,0.097 -0.126,0.235 -0.126,0.415l0,0.899l-0.413,0Z" style="fill:#15803d;fill-rule:nonzero;"/><path d="M168.051,34.668c-0.177,0 -0.334,-0.038 -0.469,-0.113c-0.135,-0.075 -0.241,-0.182 -0.316,-0.32c-0.075,-0.138 -0.113,-0.299 -0.113,-0.483l0,-0.043c0,-0.187 0.037,-0.349 0.111,-0.485c0.074,-0.137 0.179,-0.243 0.313,-0.318c0.134,-0.075 0.289,-0.113 0.464,-0.113c0.173,0 0.323,0.038 0.453,0.113c0.129,0.075 0.23,0.181 0.302,0.318c0.072,0.137 0.108,0.296 0.108,0.478l0,0.147l-1.333,0c0.005,0.139 0.054,0.25 0.147,0.334c0.093,0.084 0.208,0.126 0.345,0.126c0.134,0 0.234,-0.029 0.298,-0.088c0.065,-0.059 0.114,-0.125 0.147,-0.199l0.341,0.176c-0.034,0.065 -0.082,0.134 -0.146,0.207c-0.063,0.073 -0.148,0.135 -0.253,0.187c-0.105,0.052 -0.238,0.077 -0.399,0.077Zm-0.478,-1.132l0.909,0c-0.01,-0.117 -0.055,-0.211 -0.135,-0.28c-0.08,-0.069 -0.184,-0.104 -0.311,-0.104c-0.132,0 -0.237,0.035 -0.316,0.104c-0.079,0.069 -0.128,0.163 -0.147,0.28Z" style="fill:#15803d;fill-rule:nonzero;"/><path d="M170.977,34.668c-0.23,0 -0.419,-0.05 -0.568,-0.151c-0.149,-0.101 -0.238,-0.248 -0.27,-0.442l0.381,-0.097c0.017,0.091 0.047,0.163 0.09,0.216c0.043,0.053 0.096,0.09 0.16,0.111c0.063,0.022 0.132,0.032 0.207,0.032c0.113,0 0.197,-0.02 0.253,-0.061c0.056,-0.041 0.084,-0.092 0.084,-0.155c0,-0.065 -0.027,-0.113 -0.081,-0.144c-0.054,-0.031 -0.136,-0.058 -0.246,-0.079l-0.111,-0.018c-0.122,-0.024 -0.234,-0.057 -0.334,-0.099c-0.101,-0.042 -0.181,-0.099 -0.243,-0.173c-0.061,-0.073 -0.092,-0.166 -0.092,-0.279c0,-0.173 0.064,-0.305 0.192,-0.399c0.128,-0.093 0.297,-0.14 0.505,-0.14c0.199,0 0.363,0.044 0.492,0.133c0.129,0.089 0.213,0.207 0.252,0.356l-0.381,0.115c-0.019,-0.101 -0.061,-0.172 -0.126,-0.214c-0.065,-0.042 -0.144,-0.063 -0.237,-0.063c-0.096,0 -0.17,0.017 -0.221,0.05c-0.052,0.034 -0.077,0.081 -0.077,0.144c0,0.062 0.026,0.109 0.079,0.14c0.053,0.031 0.123,0.054 0.212,0.068l0.111,0.022c0.132,0.024 0.251,0.055 0.358,0.093c0.107,0.038 0.191,0.093 0.253,0.165c0.062,0.072 0.093,0.169 0.093,0.291c0,0.184 -0.066,0.326 -0.199,0.426c-0.133,0.099 -0.312,0.149 -0.537,0.149Z" style="fill:#15803d;fill-rule:nonzero;"/><path d="M172.13,34.618l0,-1.775l0.413,0l0,1.775l-0.413,0Zm0.205,-2.002c-0.074,0 -0.138,-0.025 -0.192,-0.074c-0.054,-0.049 -0.081,-0.114 -0.081,-0.196c0,-0.081 0.027,-0.147 0.081,-0.196c0.054,-0.049 0.118,-0.074 0.192,-0.074c0.079,0 0.144,0.025 0.196,0.074c0.052,0.049 0.077,0.114 0.077,0.196c0,0.081 -0.026,0.147 -0.077,0.196c-0.052,0.049 -0.117,0.074 -0.196,0.074Z" style="fill:#15803d;fill-rule:nonzero;"/><path d="M173.068,34.618l0,-1.775l0.406,0l0,0.198l0.061,0c0.031,-0.06 0.083,-0.113 0.156,-0.16c0.073,-0.047 0.171,-0.07 0.293,-0.07c0.129,0 0.234,0.026 0.313,0.079c0.079,0.053 0.139,0.12 0.18,0.201l0.058,0c0.041,-0.081 0.099,-0.149 0.176,-0.201c0.077,-0.053 0.186,-0.079 0.327,-0.079c0.11,0 0.21,0.024 0.3,0.072c0.09,0.048 0.162,0.119 0.216,0.212c0.054,0.093 0.081,0.21 0.081,0.349l0,1.175l-0.413,0l0,-1.146c0,-0.103 -0.028,-0.181 -0.083,-0.235c-0.055,-0.054 -0.132,-0.081 -0.23,-0.081c-0.108,0 -0.193,0.035 -0.257,0.106c-0.063,0.071 -0.095,0.172 -0.095,0.304l0,1.053l-0.41,0l0,-1.146c0,-0.103 -0.028,-0.181 -0.083,-0.235c-0.055,-0.054 -0.132,-0.081 -0.23,-0.081c-0.11,0 -0.196,0.035 -0.259,0.106c-0.062,0.071 -0.093,0.172 -0.093,0.304l0,1.053l-0.413,0Z" style="fill:#15803d;fill-rule:nonzero;"/><path d="M176.141,35.337l0,-2.494l0.406,0l0,0.234l0.061,0c0.041,-0.074 0.106,-0.14 0.196,-0.198c0.09,-0.058 0.219,-0.086 0.386,-0.086c0.144,0 0.277,0.035 0.401,0.106c0.123,0.071 0.222,0.174 0.297,0.311c0.074,0.137 0.111,0.301 0.111,0.492l0,0.058c0,0.192 -0.037,0.356 -0.111,0.492c-0.074,0.137 -0.173,0.24 -0.295,0.311c-0.122,0.071 -0.256,0.106 -0.403,0.106c-0.113,0 -0.207,-0.013 -0.282,-0.04c-0.075,-0.026 -0.137,-0.061 -0.183,-0.104c-0.047,-0.043 -0.083,-0.086 -0.11,-0.129l-0.061,0l0,0.942l-0.413,0Zm0.927,-1.028c0.151,0 0.275,-0.049 0.372,-0.146c0.097,-0.097 0.146,-0.235 0.146,-0.415l0,-0.036c0,-0.182 -0.049,-0.321 -0.147,-0.417c-0.098,-0.096 -0.222,-0.144 -0.37,-0.144c-0.149,0 -0.273,0.048 -0.372,0.144c-0.099,0.096 -0.149,0.235 -0.149,0.417l0,0.036c0,0.18 0.05,0.318 0.149,0.415c0.099,0.097 0.223,0.146 0.372,0.146Z" style="fill:#15803d;fill-rule:nonzero;"/><rect x="178.438" y="32.102" width="0.413" height="2.516" style="fill:#15803d;fill-rule:nonzero;"/><path d="M180.188,34.668c-0.177,0 -0.334,-0.038 -0.469,-0.113c-0.135,-0.075 -0.241,-0.182 -0.316,-0.32c-0.075,-0.138 -0.113,-0.299 -0.113,-0.483l0,-0.043c0,-0.187 0.037,-0.349 0.111,-0.485c0.074,-0.137 0.179,-0.243 0.313,-0.318c0.134,-0.075 0.289,-0.113 0.464,-0.113c0.173,0 0.323,0.038 0.453,0.113c0.129,0.075 0.23,0.181 0.302,0.318c0.072,0.137 0.108,0.296 0.108,0.478l0,0.147l-1.333,0c0.005,0.139 0.054,0.25 0.147,0.334c0.093,0.084 0.208,0.126 0.345,0.126c0.134,0 0.234,-0.029 0.298,-0.088c0.065,-0.059 0.114,-0.125 0.147,-0.199l0.341,0.176c-0.034,0.065 -0.082,0.134 -0.146,0.207c-0.063,0.073 -0.148,0.135 -0.253,0.187c-0.105,0.052 -0.238,0.077 -0.399,0.077Zm-0.478,-1.132l0.909,0c-0.01,-0.117 -0.055,-0.211 -0.135,-0.28c-0.08,-0.069 -0.184,-0.104 -0.311,-0.104c-0.132,0 -0.237,0.035 -0.316,0.104c-0.079,0.069 -0.128,0.163 -0.147,0.28Z" style="fill:#15803d;fill-rule:nonzero;"/><path d="M182.197,34.668c-0.23,0 -0.419,-0.05 -0.568,-0.151c-0.149,-0.101 -0.238,-0.248 -0.27,-0.442l0.381,-0.097c0.017,0.091 0.047,0.163 0.09,0.216c0.043,0.053 0.096,0.09 0.16,0.111c0.063,0.022 0.132,0.032 0.207,0.032c0.113,0 0.197,-0.02 0.253,-0.061c0.056,-0.041 0.084,-0.092 0.084,-0.155c0,-0.065 -0.027,-0.113 -0.081,-0.144c-0.054,-0.031 -0.136,-0.058 -0.246,-0.079l-0.111,-0.018c-0.122,-0.024 -0.234,-0.057 -0.334,-0.099c-0.101,-0.042 -0.181,-0.099 -0.243,-0.173c-0.061,-0.073 -0.092,-0.166 -0.092,-0.279c0,-0.173 0.064,-0.305 0.192,-0.399c0.128,-0.093 0.297,-0.14 0.505,-0.14c0.199,0 0.363,0.044 0.492,0.133c0.129,0.089 0.213,0.207 0.252,0.356l-0.381,0.115c-0.019,-0.101 -0.061,-0.172 -0.126,-0.214c-0.065,-0.042 -0.144,-0.063 -0.237,-0.063c-0.096,0 -0.17,0.017 -0.221,0.05c-0.052,0.034 -0.077,0.081 -0.077,0.144c0,0.062 0.026,0.109 0.079,0.14c0.053,0.031 0.123,0.054 0.212,0.068l0.111,0.022c0.132,0.024 0.251,0.055 0.358,0.093c0.107,0.038 0.191,0.093 0.253,0.165c0.062,0.072 0.093,0.169 0.093,0.291c0,0.184 -0.066,0.326 -0.199,0.426c-0.133,0.099 -0.312,0.149 -0.537,0.149Z" style="fill:#15803d;fill-rule:nonzero;"/><path d="M183.991,34.618c-0.115,0 -0.207,-0.034 -0.275,-0.102c-0.068,-0.068 -0.102,-0.161 -0.102,-0.279l0,-1.053l-0.464,0l0,-0.341l0.464,0l0,-0.571l0.413,0l0,0.571l0.51,0l0,0.341l-0.51,0l0,0.985c0,0.072 0.034,0.108 0.101,0.108l0.356,0l0,0.341l-0.492,0Z" style="fill:#15803d;fill-rule:nonzero;"/><path d="M186.043,34.618l-0.277,-1.775l0.41,0l0.19,1.499l0.061,0l0.27,-1.499l0.661,0l0.27,1.499l0.061,0l0.19,-1.499l0.41,0l-0.277,1.775l-0.686,0l-0.266,-1.499l-0.061,0l-0.27,1.499l-0.686,0Z" style="fill:#15803d;fill-rule:nonzero;"/><path d="M189.249,34.668c-0.125,0 -0.237,-0.022 -0.338,-0.066c-0.101,-0.044 -0.18,-0.108 -0.239,-0.192c-0.059,-0.084 -0.088,-0.187 -0.088,-0.309c0,-0.12 0.029,-0.22 0.088,-0.302c0.059,-0.081 0.14,-0.143 0.243,-0.185c0.103,-0.042 0.22,-0.063 0.352,-0.063l0.514,0l0,-0.108c0,-0.093 -0.029,-0.17 -0.086,-0.228c-0.058,-0.059 -0.147,-0.088 -0.27,-0.088c-0.12,0 -0.21,0.028 -0.271,0.084c-0.061,0.056 -0.101,0.129 -0.12,0.217l-0.381,-0.126c0.029,-0.093 0.075,-0.179 0.138,-0.255c0.063,-0.077 0.148,-0.138 0.253,-0.185c0.105,-0.047 0.235,-0.07 0.388,-0.07c0.232,0 0.415,0.058 0.548,0.174c0.133,0.116 0.199,0.285 0.199,0.505l0,0.697c0,0.072 0.034,0.108 0.101,0.108l0.151,0l0,0.341l-0.291,0c-0.086,0 -0.157,-0.022 -0.212,-0.065c-0.055,-0.043 -0.083,-0.102 -0.083,-0.176l0,-0.007l-0.061,0c-0.014,0.034 -0.04,0.074 -0.075,0.122c-0.036,0.048 -0.09,0.089 -0.164,0.124c-0.073,0.035 -0.172,0.052 -0.297,0.052Zm0.068,-0.338c0.137,0 0.248,-0.039 0.334,-0.117c0.086,-0.078 0.129,-0.183 0.129,-0.314l0,-0.036l-0.489,0c-0.089,0 -0.161,0.019 -0.216,0.058c-0.055,0.038 -0.083,0.095 -0.083,0.169c0,0.072 0.029,0.13 0.086,0.174c0.058,0.044 0.137,0.066 0.237,0.066Z" style="fill:#15803d;fill-rule:nonzero;"/><path d="M190.92,35.337l0,-0.359l0.981,0c0.067,0 0.101,-0.036 0.101,-0.108l0,-0.496l-0.061,0c-0.019,0.043 -0.05,0.086 -0.093,0.128c-0.043,0.042 -0.101,0.077 -0.173,0.104c-0.072,0.028 -0.163,0.041 -0.273,0.041c-0.137,0 -0.258,-0.031 -0.363,-0.092c-0.105,-0.061 -0.187,-0.147 -0.244,-0.259c-0.058,-0.111 -0.086,-0.241 -0.086,-0.39l0,-1.064l0.41,0l0,1.031c0,0.144 0.035,0.25 0.106,0.32c0.071,0.069 0.171,0.104 0.3,0.104c0.146,0 0.262,-0.048 0.347,-0.144c0.085,-0.096 0.128,-0.234 0.128,-0.413l0,-0.899l0.41,0l0,2.113c0,0.117 -0.034,0.21 -0.101,0.279c-0.067,0.068 -0.158,0.102 -0.273,0.102l-1.114,0Z" style="fill:#15803d;fill-rule:nonzero;"/><path d="M194.525,34.618c-0.115,0 -0.207,-0.034 -0.275,-0.102c-0.068,-0.068 -0.102,-0.161 -0.102,-0.279l0,-1.053l-0.464,0l0,-0.341l0.464,0l0,-0.571l0.413,0l0,0.571l0.51,0l0,0.341l-0.51,0l0,0.985c0,0.072 0.034,0.108 0.101,0.108l0.356,0l0,0.341l-0.492,0Z" style="fill:#15803d;fill-rule:nonzero;"/><path d="M196.268,34.668c-0.177,0 -0.336,-0.037 -0.476,-0.11c-0.14,-0.073 -0.25,-0.177 -0.331,-0.313c-0.08,-0.135 -0.12,-0.298 -0.12,-0.487l0,-0.058c0,-0.189 0.04,-0.352 0.12,-0.489c0.08,-0.137 0.19,-0.241 0.331,-0.313c0.14,-0.072 0.299,-0.108 0.476,-0.108c0.177,0 0.335,0.036 0.474,0.108c0.139,0.072 0.249,0.176 0.329,0.313c0.08,0.137 0.12,0.3 0.12,0.489l0,0.058c0,0.189 -0.04,0.352 -0.12,0.487c-0.08,0.135 -0.19,0.24 -0.329,0.313c-0.139,0.073 -0.297,0.11 -0.474,0.11Zm0,-0.367c0.151,0 0.274,-0.049 0.37,-0.146c0.096,-0.097 0.144,-0.233 0.144,-0.408l0,-0.036c0,-0.175 -0.048,-0.311 -0.144,-0.408c-0.096,-0.097 -0.219,-0.146 -0.37,-0.146c-0.151,0 -0.274,0.049 -0.37,0.146c-0.096,0.097 -0.144,0.233 -0.144,0.408l0,0.036c0,0.175 0.048,0.311 0.144,0.408c0.096,0.097 0.219,0.146 0.37,0.146Z" style="fill:#15803d;fill-rule:nonzero;"/><path d="M199.28,34.668c-0.23,0 -0.419,-0.05 -0.568,-0.151c-0.149,-0.101 -0.238,-0.248 -0.27,-0.442l0.381,-0.097c0.017,0.091 0.047,0.163 0.09,0.216c0.043,0.053 0.096,0.09 0.16,0.111c0.063,0.022 0.132,0.032 0.207,0.032c0.113,0 0.197,-0.02 0.253,-0.061c0.056,-0.041 0.084,-0.092 0.084,-0.155c0,-0.065 -0.027,-0.113 -0.081,-0.144c-0.054,-0.031 -0.136,-0.058 -0.246,-0.079l-0.111,-0.018c-0.122,-0.024 -0.234,-0.057 -0.334,-0.099c-0.101,-0.042 -0.181,-0.099 -0.243,-0.173c-0.061,-0.073 -0.092,-0.166 -0.092,-0.279c0,-0.173 0.064,-0.305 0.192,-0.399c0.128,-0.093 0.297,-0.14 0.505,-0.14c0.199,0 0.363,0.044 0.492,0.133c0.129,0.089 0.213,0.207 0.252,0.356l-0.381,0.115c-0.019,-0.101 -0.061,-0.172 -0.126,-0.214c-0.065,-0.042 -0.144,-0.063 -0.237,-0.063c-0.096,0 -0.17,0.017 -0.221,0.05c-0.052,0.034 -0.077,0.081 -0.077,0.144c0,0.062 0.026,0.109 0.079,0.14c0.053,0.031 0.123,0.054 0.212,0.068l0.111,0.022c0.132,0.024 0.251,0.055 0.358,0.093c0.107,0.038 0.191,0.093 0.253,0.165c0.062,0.072 0.093,0.169 0.093,0.291c0,0.184 -0.066,0.326 -0.199,0.426c-0.133,0.099 -0.312,0.149 -0.537,0.149Z" style="fill:#15803d;fill-rule:nonzero;"/><path d="M201.246,34.668c-0.177,0 -0.334,-0.038 -0.469,-0.113c-0.135,-0.075 -0.241,-0.182 -0.316,-0.32c-0.075,-0.138 -0.113,-0.299 -0.113,-0.483l0,-0.043c0,-0.187 0.037,-0.349 0.111,-0.485c0.074,-0.137 0.179,-0.243 0.313,-0.318c0.134,-0.075 0.289,-0.113 0.464,-0.113c0.173,0 0.323,0.038 0.453,0.113c0.129,0.075 0.23,0.181 0.302,0.318c0.072,0.137 0.108,0.296 0.108,0.478l0,0.147l-1.333,0c0.005,0.139 0.054,0.25 0.147,0.334c0.093,0.084 0.208,0.126 0.345,0.126c0.134,0 0.234,-0.029 0.298,-0.088c0.065,-0.059 0.114,-0.125 0.147,-0.199l0.341,0.176c-0.034,0.065 -0.082,0.134 -0.146,0.207c-0.063,0.073 -0.148,0.135 -0.253,0.187c-0.105,0.052 -0.238,0.077 -0.399,0.077Zm-0.478,-1.132l0.909,0c-0.01,-0.117 -0.055,-0.211 -0.135,-0.28c-0.08,-0.069 -0.184,-0.104 -0.311,-0.104c-0.132,0 -0.237,0.035 -0.316,0.104c-0.079,0.069 -0.128,0.163 -0.147,0.28Z" style="fill:#15803d;fill-rule:nonzero;"/><path d="M203.352,34.668c-0.173,0 -0.328,-0.036 -0.467,-0.108c-0.139,-0.072 -0.249,-0.176 -0.329,-0.313c-0.08,-0.137 -0.12,-0.301 -0.12,-0.492l0,-0.05c0,-0.192 0.04,-0.356 0.12,-0.492c0.08,-0.137 0.19,-0.241 0.329,-0.313c0.139,-0.072 0.295,-0.108 0.467,-0.108c0.17,0 0.316,0.03 0.437,0.09c0.121,0.06 0.219,0.142 0.293,0.246c0.074,0.104 0.122,0.221 0.144,0.35l-0.399,0.083c-0.01,-0.074 -0.032,-0.142 -0.068,-0.203c-0.036,-0.061 -0.087,-0.11 -0.153,-0.146c-0.066,-0.036 -0.147,-0.054 -0.243,-0.054c-0.098,0 -0.186,0.021 -0.264,0.063c-0.078,0.042 -0.139,0.105 -0.183,0.189c-0.044,0.084 -0.066,0.184 -0.066,0.302l0,0.036c0,0.117 0.022,0.217 0.066,0.3c0.044,0.083 0.105,0.146 0.183,0.189c0.078,0.043 0.166,0.065 0.264,0.065c0.146,0 0.257,-0.038 0.332,-0.113c0.075,-0.075 0.123,-0.173 0.142,-0.293l0.399,0.093c-0.029,0.125 -0.08,0.238 -0.155,0.341c-0.074,0.103 -0.172,0.185 -0.293,0.246c-0.121,0.061 -0.267,0.092 -0.437,0.092Z" style="fill:#15803d;fill-rule:nonzero;"/><path d="M205.318,34.647c-0.137,0 -0.258,-0.031 -0.363,-0.092c-0.105,-0.061 -0.187,-0.147 -0.244,-0.259c-0.058,-0.111 -0.086,-0.241 -0.086,-0.39l0,-1.064l0.41,0l0,1.031c0,0.144 0.035,0.25 0.106,0.32c0.071,0.069 0.171,0.104 0.3,0.104c0.146,0 0.262,-0.048 0.347,-0.144c0.085,-0.096 0.128,-0.234 0.128,-0.413l0,-0.899l0.41,0l0,1.775l-0.403,0l0,-0.248l-0.061,0c-0.031,0.065 -0.088,0.127 -0.171,0.187c-0.083,0.06 -0.207,0.09 -0.372,0.09Z" style="fill:#15803d;fill-rule:nonzero;"/><path d="M206.849,34.618l0,-1.775l0.406,0l0,0.205l0.061,0c0.026,-0.074 0.071,-0.128 0.133,-0.162c0.062,-0.034 0.137,-0.05 0.223,-0.05l0.216,0l0,0.367l-0.223,0c-0.12,0 -0.217,0.032 -0.291,0.095c-0.074,0.063 -0.111,0.161 -0.111,0.293l0,1.028l-0.413,0Z" style="fill:#15803d;fill-rule:nonzero;"/><path d="M209.001,34.668c-0.177,0 -0.334,-0.038 -0.469,-0.113c-0.135,-0.075 -0.241,-0.182 -0.316,-0.32c-0.075,-0.138 -0.113,-0.299 -0.113,-0.483l0,-0.043c0,-0.187 0.037,-0.349 0.111,-0.485c0.074,-0.137 0.179,-0.243 0.313,-0.318c0.134,-0.075 0.289,-0.113 0.464,-0.113c0.173,0 0.323,0.038 0.453,0.113c0.129,0.075 0.23,0.181 0.302,0.318c0.072,0.137 0.108,0.296 0.108,0.478l0,0.147l-1.333,0c0.005,0.139 0.054,0.25 0.147,0.334c0.093,0.084 0.208,0.126 0.345,0.126c0.134,0 0.234,-0.029 0.298,-0.088c0.065,-0.059 0.114,-0.125 0.147,-0.199l0.341,0.176c-0.034,0.065 -0.082,0.134 -0.146,0.207c-0.063,0.073 -0.148,0.135 -0.253,0.187c-0.105,0.052 -0.238,0.077 -0.399,0.077Zm-0.478,-1.132l0.909,0c-0.01,-0.117 -0.055,-0.211 -0.135,-0.28c-0.08,-0.069 -0.184,-0.104 -0.311,-0.104c-0.132,0 -0.237,0.035 -0.316,0.104c-0.079,0.069 -0.128,0.163 -0.147,0.28Z" style="fill:#15803d;fill-rule:nonzero;"/><path d="M211.744,34.668c-0.125,0 -0.237,-0.022 -0.338,-0.066c-0.101,-0.044 -0.18,-0.108 -0.239,-0.192c-0.059,-0.084 -0.088,-0.187 -0.088,-0.309c0,-0.12 0.029,-0.22 0.088,-0.302c0.059,-0.081 0.14,-0.143 0.243,-0.185c0.103,-0.042 0.22,-0.063 0.352,-0.063l0.514,0l0,-0.108c0,-0.093 -0.029,-0.17 -0.086,-0.228c-0.058,-0.059 -0.147,-0.088 -0.27,-0.088c-0.12,0 -0.21,0.028 -0.271,0.084c-0.061,0.056 -0.101,0.129 -0.12,0.217l-0.381,-0.126c0.029,-0.093 0.075,-0.179 0.138,-0.255c0.063,-0.077 0.148,-0.138 0.253,-0.185c0.105,-0.047 0.235,-0.07 0.388,-0.07c0.232,0 0.415,0.058 0.548,0.174c0.133,0.116 0.199,0.285 0.199,0.505l0,0.697c0,0.072 0.034,0.108 0.101,0.108l0.151,0l0,0.341l-0.291,0c-0.086,0 -0.157,-0.022 -0.212,-0.065c-0.055,-0.043 -0.083,-0.102 -0.083,-0.176l0,-0.007l-0.061,0c-0.014,0.034 -0.04,0.074 -0.075,0.122c-0.036,0.048 -0.09,0.089 -0.164,0.124c-0.073,0.035 -0.172,0.052 -0.297,0.052Zm0.068,-0.338c0.137,0 0.248,-0.039 0.334,-0.117c0.086,-0.078 0.129,-0.183 0.129,-0.314l0,-0.036l-0.489,0c-0.089,0 -0.161,0.019 -0.216,0.058c-0.055,0.038 -0.083,0.095 -0.083,0.169c0,0.072 0.029,0.13 0.086,0.174c0.058,0.044 0.137,0.066 0.237,0.066Z" style="fill:#15803d;fill-rule:nonzero;"/><path d="M213.268,34.618l0,-1.775l0.406,0l0,0.248l0.061,0c0.031,-0.067 0.087,-0.131 0.169,-0.19c0.081,-0.06 0.205,-0.09 0.37,-0.09c0.137,0 0.258,0.031 0.363,0.093c0.105,0.062 0.187,0.149 0.246,0.259c0.059,0.11 0.088,0.241 0.088,0.392l0,1.064l-0.413,0l0,-1.031c0,-0.144 -0.035,-0.251 -0.106,-0.322c-0.071,-0.071 -0.171,-0.106 -0.3,-0.106c-0.146,0 -0.261,0.049 -0.345,0.146c-0.084,0.097 -0.126,0.235 -0.126,0.415l0,0.899l-0.413,0Z" style="fill:#15803d;fill-rule:nonzero;"/><path d="M216.204,34.668c-0.144,0 -0.278,-0.035 -0.403,-0.106c-0.125,-0.071 -0.224,-0.174 -0.298,-0.311c-0.074,-0.137 -0.111,-0.301 -0.111,-0.492l0,-0.058c0,-0.192 0.037,-0.356 0.111,-0.492c0.074,-0.137 0.173,-0.24 0.297,-0.311c0.123,-0.071 0.258,-0.106 0.404,-0.106c0.11,0 0.204,0.013 0.28,0.04c0.077,0.026 0.138,0.06 0.185,0.101c0.047,0.041 0.083,0.085 0.11,0.133l0.061,0l0,-0.963l0.41,0l0,2.516l-0.403,0l0,-0.234l-0.061,0c-0.043,0.072 -0.109,0.137 -0.198,0.196c-0.089,0.059 -0.217,0.088 -0.385,0.088Zm0.122,-0.359c0.149,0 0.272,-0.049 0.37,-0.146c0.098,-0.097 0.147,-0.235 0.147,-0.415l0,-0.036c0,-0.182 -0.049,-0.321 -0.146,-0.417c-0.097,-0.096 -0.221,-0.144 -0.372,-0.144c-0.149,0 -0.273,0.048 -0.372,0.144c-0.099,0.096 -0.149,0.235 -0.149,0.417l0,0.036c0,0.18 0.05,0.318 0.149,0.415c0.099,0.097 0.223,0.146 0.372,0.146Z" style="fill:#15803d;fill-rule:nonzero;"/><path d="M162.915,39.204l0,-1.775l0.406,0l0,0.198l0.061,0c0.031,-0.06 0.083,-0.113 0.156,-0.16c0.073,-0.047 0.171,-0.07 0.293,-0.07c0.129,0 0.234,0.026 0.313,0.079c0.079,0.053 0.139,0.12 0.18,0.201l0.058,0c0.041,-0.081 0.099,-0.149 0.176,-0.201c0.077,-0.053 0.186,-0.079 0.327,-0.079c0.11,0 0.21,0.024 0.3,0.072c0.09,0.048 0.162,0.119 0.216,0.212c0.054,0.093 0.081,0.21 0.081,0.349l0,1.175l-0.413,0l0,-1.146c0,-0.103 -0.028,-0.181 -0.083,-0.235c-0.055,-0.054 -0.132,-0.081 -0.23,-0.081c-0.108,0 -0.193,0.035 -0.257,0.106c-0.063,0.071 -0.095,0.172 -0.095,0.304l0,1.053l-0.41,0l0,-1.146c0,-0.103 -0.028,-0.181 -0.083,-0.235c-0.055,-0.054 -0.132,-0.081 -0.23,-0.081c-0.11,0 -0.196,0.035 -0.259,0.106c-0.062,0.071 -0.093,0.172 -0.093,0.304l0,1.053l-0.413,0Z" style="fill:#15803d;fill-rule:nonzero;"/><path d="M166.538,39.254c-0.125,0 -0.237,-0.022 -0.338,-0.066c-0.101,-0.044 -0.18,-0.108 -0.239,-0.192c-0.059,-0.084 -0.088,-0.187 -0.088,-0.309c0,-0.12 0.029,-0.22 0.088,-0.302c0.059,-0.081 0.14,-0.143 0.243,-0.185c0.103,-0.042 0.22,-0.063 0.352,-0.063l0.514,0l0,-0.108c0,-0.093 -0.029,-0.17 -0.086,-0.228c-0.058,-0.059 -0.147,-0.088 -0.27,-0.088c-0.12,0 -0.21,0.028 -0.271,0.084c-0.061,0.056 -0.101,0.129 -0.12,0.217l-0.381,-0.126c0.029,-0.093 0.075,-0.179 0.138,-0.255c0.063,-0.077 0.148,-0.138 0.253,-0.185c0.105,-0.047 0.235,-0.07 0.388,-0.07c0.232,0 0.415,0.058 0.548,0.174c0.133,0.116 0.199,0.285 0.199,0.505l0,0.697c0,0.072 0.034,0.108 0.101,0.108l0.151,0l0,0.341l-0.291,0c-0.086,0 -0.157,-0.022 -0.212,-0.065c-0.055,-0.043 -0.083,-0.102 -0.083,-0.176l0,-0.007l-0.061,0c-0.014,0.034 -0.04,0.074 -0.075,0.122c-0.036,0.048 -0.09,0.089 -0.164,0.124c-0.073,0.035 -0.172,0.052 -0.297,0.052Zm0.068,-0.338c0.137,0 0.248,-0.039 0.334,-0.117c0.086,-0.078 0.129,-0.183 0.129,-0.314l0,-0.036l-0.489,0c-0.089,0 -0.161,0.019 -0.216,0.058c-0.055,0.038 -0.083,0.095 -0.083,0.169c0,0.072 0.029,0.13 0.086,0.174c0.058,0.044 0.137,0.066 0.237,0.066Z" style="fill:#15803d;fill-rule:nonzero;"/><path d="M168.062,39.204l0,-1.775l0.406,0l0,0.248l0.061,0c0.031,-0.067 0.087,-0.131 0.169,-0.19c0.081,-0.06 0.205,-0.09 0.37,-0.09c0.137,0 0.258,0.031 0.363,0.093c0.105,0.062 0.187,0.149 0.246,0.259c0.059,0.11 0.088,0.241 0.088,0.392l0,1.064l-0.413,0l0,-1.031c0,-0.144 -0.035,-0.251 -0.106,-0.322c-0.071,-0.071 -0.171,-0.106 -0.3,-0.106c-0.146,0 -0.261,0.049 -0.345,0.146c-0.084,0.097 -0.126,0.235 -0.126,0.415l0,0.899l-0.413,0Z" style="fill:#15803d;fill-rule:nonzero;"/><path d="M170.822,39.254c-0.125,0 -0.237,-0.022 -0.338,-0.066c-0.101,-0.044 -0.18,-0.108 -0.239,-0.192c-0.059,-0.084 -0.088,-0.187 -0.088,-0.309c0,-0.12 0.029,-0.22 0.088,-0.302c0.059,-0.081 0.14,-0.143 0.243,-0.185c0.103,-0.042 0.22,-0.063 0.352,-0.063l0.514,0l0,-0.108c0,-0.093 -0.029,-0.17 -0.086,-0.228c-0.058,-0.059 -0.147,-0.088 -0.27,-0.088c-0.12,0 -0.21,0.028 -0.271,0.084c-0.061,0.056 -0.101,0.129 -0.12,0.217l-0.381,-0.126c0.029,-0.093 0.075,-0.179 0.138,-0.255c0.063,-0.077 0.148,-0.138 0.253,-0.185c0.105,-0.047 0.235,-0.07 0.388,-0.07c0.232,0 0.415,0.058 0.548,0.174c0.133,0.116 0.199,0.285 0.199,0.505l0,0.697c0,0.072 0.034,0.108 0.101,0.108l0.151,0l0,0.341l-0.291,0c-0.086,0 -0.157,-0.022 -0.212,-0.065c-0.055,-0.043 -0.083,-0.102 -0.083,-0.176l0,-0.007l-0.061,0c-0.014,0.034 -0.04,0.074 -0.075,0.122c-0.036,0.048 -0.09,0.089 -0.164,0.124c-0.073,0.035 -0.172,0.052 -0.297,0.052Zm0.068,-0.338c0.137,0 0.248,-0.039 0.334,-0.117c0.086,-0.078 0.129,-0.183 0.129,-0.314l0,-0.036l-0.489,0c-0.089,0 -0.161,0.019 -0.216,0.058c-0.055,0.038 -0.083,0.095 -0.083,0.169c0,0.072 0.029,0.13 0.086,0.174c0.058,0.044 0.137,0.066 0.237,0.066Z" style="fill:#15803d;fill-rule:nonzero;"/><path d="M172.22,38.324l0,-0.054c0,-0.187 0.037,-0.347 0.111,-0.48c0.074,-0.133 0.174,-0.235 0.298,-0.305c0.125,-0.071 0.261,-0.106 0.41,-0.106c0.168,0 0.295,0.03 0.383,0.09c0.087,0.06 0.152,0.125 0.192,0.194l0.061,0l0,-0.234l0.403,0l0,2.113c0,0.117 -0.034,0.21 -0.101,0.279c-0.067,0.068 -0.158,0.102 -0.273,0.102l-1.193,0l0,-0.359l1.053,0c0.069,0 0.104,-0.036 0.104,-0.108l0,-0.514l-0.061,0c-0.026,0.041 -0.062,0.082 -0.108,0.124c-0.046,0.042 -0.105,0.077 -0.18,0.106c-0.074,0.029 -0.168,0.043 -0.28,0.043c-0.149,0 -0.285,-0.035 -0.41,-0.106c-0.125,-0.071 -0.224,-0.173 -0.298,-0.305c-0.074,-0.133 -0.111,-0.293 -0.111,-0.48Zm0.934,0.528c0.149,0 0.272,-0.047 0.37,-0.142c0.098,-0.095 0.147,-0.227 0.147,-0.397l0,-0.036c0,-0.173 -0.049,-0.305 -0.146,-0.399c-0.097,-0.093 -0.221,-0.14 -0.372,-0.14c-0.149,0 -0.273,0.047 -0.372,0.14c-0.099,0.093 -0.149,0.226 -0.149,0.399l0,0.036c0,0.17 0.05,0.302 0.149,0.397c0.099,0.095 0.223,0.142 0.372,0.142Z" style="fill:#15803d;fill-rule:nonzero;"/><path d="M175.415,39.254c-0.177,0 -0.334,-0.038 -0.469,-0.113c-0.135,-0.075 -0.241,-0.182 -0.316,-0.32c-0.075,-0.138 -0.113,-0.299 -0.113,-0.483l0,-0.043c0,-0.187 0.037,-0.349 0.111,-0.485c0.074,-0.137 0.179,-0.243 0.313,-0.318c0.134,-0.075 0.289,-0.113 0.464,-0.113c0.173,0 0.323,0.038 0.453,0.113c0.129,0.075 0.23,0.181 0.302,0.318c0.072,0.137 0.108,0.296 0.108,0.478l0,0.147l-1.333,0c0.005,0.139 0.054,0.25 0.147,0.334c0.093,0.084 0.208,0.126 0.345,0.126c0.134,0 0.234,-0.029 0.298,-0.088c0.065,-0.059 0.114,-0.125 0.147,-0.199l0.341,0.176c-0.034,0.065 -0.082,0.134 -0.146,0.207c-0.063,0.073 -0.148,0.135 -0.253,0.187c-0.105,0.052 -0.238,0.077 -0.399,0.077Zm-0.478,-1.132l0.909,0c-0.01,-0.117 -0.055,-0.211 -0.135,-0.28c-0.08,-0.069 -0.184,-0.104 -0.311,-0.104c-0.132,0 -0.237,0.035 -0.316,0.104c-0.079,0.069 -0.128,0.163 -0.147,0.28Z" style="fill:#15803d;fill-rule:nonzero;"/><path d="M177.805,39.923l0,-0.359l0.981,0c0.067,0 0.101,-0.036 0.101,-0.108l0,-0.496l-0.061,0c-0.019,0.043 -0.05,0.086 -0.093,0.128c-0.043,0.042 -0.101,0.077 -0.173,0.104c-0.072,0.028 -0.163,0.041 -0.273,0.041c-0.137,0 -0.258,-0.031 -0.363,-0.092c-0.105,-0.061 -0.187,-0.147 -0.244,-0.259c-0.058,-0.111 -0.086,-0.241 -0.086,-0.39l0,-1.064l0.41,0l0,1.031c0,0.144 0.035,0.25 0.106,0.32c0.071,0.069 0.171,0.104 0.3,0.104c0.146,0 0.262,-0.048 0.347,-0.144c0.085,-0.096 0.128,-0.234 0.128,-0.413l0,-0.899l0.41,0l0,2.113c0,0.117 -0.034,0.21 -0.101,0.279c-0.067,0.068 -0.158,0.102 -0.273,0.102l-1.114,0Z" style="fill:#15803d;fill-rule:nonzero;"/><path d="M180.659,39.254c-0.177,0 -0.336,-0.037 -0.476,-0.11c-0.14,-0.073 -0.25,-0.177 -0.331,-0.313c-0.08,-0.135 -0.12,-0.298 -0.12,-0.487l0,-0.058c0,-0.189 0.04,-0.352 0.12,-0.489c0.08,-0.137 0.19,-0.241 0.331,-0.313c0.14,-0.072 0.299,-0.108 0.476,-0.108c0.177,0 0.335,0.036 0.474,0.108c0.139,0.072 0.249,0.176 0.329,0.313c0.08,0.137 0.12,0.3 0.12,0.489l0,0.058c0,0.189 -0.04,0.352 -0.12,0.487c-0.08,0.135 -0.19,0.24 -0.329,0.313c-0.139,0.073 -0.297,0.11 -0.474,0.11Zm0,-0.367c0.151,0 0.274,-0.049 0.37,-0.146c0.096,-0.097 0.144,-0.233 0.144,-0.408l0,-0.036c0,-0.175 -0.048,-0.311 -0.144,-0.408c-0.096,-0.097 -0.219,-0.146 -0.37,-0.146c-0.151,0 -0.274,0.049 -0.37,0.146c-0.096,0.097 -0.144,0.233 -0.144,0.408l0,0.036c0,0.175 0.048,0.311 0.144,0.408c0.096,0.097 0.219,0.146 0.37,0.146Z" style="fill:#15803d;fill-rule:nonzero;"/><path d="M182.7,39.233c-0.137,0 -0.258,-0.031 -0.363,-0.092c-0.105,-0.061 -0.187,-0.147 -0.244,-0.259c-0.058,-0.111 -0.086,-0.241 -0.086,-0.39l0,-1.064l0.41,0l0,1.031c0,0.144 0.035,0.25 0.106,0.32c0.071,0.069 0.171,0.104 0.3,0.104c0.146,0 0.262,-0.048 0.347,-0.144c0.085,-0.096 0.128,-0.234 0.128,-0.413l0,-0.899l0.41,0l0,1.775l-0.403,0l0,-0.248l-0.061,0c-0.031,0.065 -0.088,0.127 -0.171,0.187c-0.083,0.06 -0.207,0.09 -0.372,0.09Z" style="fill:#15803d;fill-rule:nonzero;"/><path d="M184.231,39.204l0,-1.775l0.406,0l0,0.205l0.061,0c0.026,-0.074 0.071,-0.128 0.133,-0.162c0.062,-0.034 0.137,-0.05 0.223,-0.05l0.216,0l0,0.367l-0.223,0c-0.12,0 -0.217,0.032 -0.291,0.095c-0.074,0.063 -0.111,0.161 -0.111,0.293l0,1.028l-0.413,0Z" style="fill:#15803d;fill-rule:nonzero;"/><path d="M187.286,39.254c-0.23,0 -0.419,-0.05 -0.568,-0.151c-0.149,-0.101 -0.238,-0.248 -0.27,-0.442l0.381,-0.097c0.017,0.091 0.047,0.163 0.09,0.216c0.043,0.053 0.096,0.09 0.16,0.111c0.063,0.022 0.132,0.032 0.207,0.032c0.113,0 0.197,-0.02 0.253,-0.061c0.056,-0.041 0.084,-0.092 0.084,-0.155c0,-0.065 -0.027,-0.113 -0.081,-0.144c-0.054,-0.031 -0.136,-0.058 -0.246,-0.079l-0.111,-0.018c-0.122,-0.024 -0.234,-0.057 -0.334,-0.099c-0.101,-0.042 -0.181,-0.099 -0.243,-0.173c-0.061,-0.073 -0.092,-0.166 -0.092,-0.279c0,-0.173 0.064,-0.305 0.192,-0.399c0.128,-0.093 0.297,-0.14 0.505,-0.14c0.199,0 0.363,0.044 0.492,0.133c0.129,0.089 0.213,0.207 0.252,0.356l-0.381,0.115c-0.019,-0.101 -0.061,-0.172 -0.126,-0.214c-0.065,-0.042 -0.144,-0.063 -0.237,-0.063c-0.096,0 -0.17,0.017 -0.221,0.05c-0.052,0.034 -0.077,0.081 -0.077,0.144c0,0.062 0.026,0.109 0.079,0.14c0.053,0.031 0.123,0.054 0.212,0.068l0.111,0.022c0.132,0.024 0.251,0.055 0.358,0.093c0.107,0.038 0.191,0.093 0.253,0.165c0.062,0.072 0.093,0.169 0.093,0.291c0,0.184 -0.066,0.326 -0.199,0.426c-0.133,0.099 -0.312,0.149 -0.537,0.149Z" style="fill:#15803d;fill-rule:nonzero;"/><path d="M189.08,39.204c-0.115,0 -0.207,-0.034 -0.275,-0.102c-0.068,-0.068 -0.102,-0.161 -0.102,-0.279l0,-1.053l-0.464,0l0,-0.341l0.464,0l0,-0.571l0.413,0l0,0.571l0.51,0l0,0.341l-0.51,0l0,0.985c0,0.072 0.034,0.108 0.101,0.108l0.356,0l0,0.341l-0.492,0Z" style="fill:#15803d;fill-rule:nonzero;"/><path d="M190.593,39.254c-0.125,0 -0.237,-0.022 -0.338,-0.066c-0.101,-0.044 -0.18,-0.108 -0.239,-0.192c-0.059,-0.084 -0.088,-0.187 -0.088,-0.309c0,-0.12 0.029,-0.22 0.088,-0.302c0.059,-0.081 0.14,-0.143 0.243,-0.185c0.103,-0.042 0.22,-0.063 0.352,-0.063l0.514,0l0,-0.108c0,-0.093 -0.029,-0.17 -0.086,-0.228c-0.058,-0.059 -0.147,-0.088 -0.27,-0.088c-0.12,0 -0.21,0.028 -0.271,0.084c-0.061,0.056 -0.101,0.129 -0.12,0.217l-0.381,-0.126c0.029,-0.093 0.075,-0.179 0.138,-0.255c0.063,-0.077 0.148,-0.138 0.253,-0.185c0.105,-0.047 0.235,-0.07 0.388,-0.07c0.232,0 0.415,0.058 0.548,0.174c0.133,0.116 0.199,0.285 0.199,0.505l0,0.697c0,0.072 0.034,0.108 0.101,0.108l0.151,0l0,0.341l-0.291,0c-0.086,0 -0.157,-0.022 -0.212,-0.065c-0.055,-0.043 -0.083,-0.102 -0.083,-0.176l0,-0.007l-0.061,0c-0.014,0.034 -0.04,0.074 -0.075,0.122c-0.036,0.048 -0.09,0.089 -0.164,0.124c-0.073,0.035 -0.172,0.052 -0.297,0.052Zm0.068,-0.338c0.137,0 0.248,-0.039 0.334,-0.117c0.086,-0.078 0.129,-0.183 0.129,-0.314l0,-0.036l-0.489,0c-0.089,0 -0.161,0.019 -0.216,0.058c-0.055,0.038 -0.083,0.095 -0.083,0.169c0,0.072 0.029,0.13 0.086,0.174c0.058,0.044 0.137,0.066 0.237,0.066Z" style="fill:#15803d;fill-rule:nonzero;"/><path d="M192.117,39.204l0,-1.775l0.406,0l0,0.205l0.061,0c0.026,-0.074 0.071,-0.128 0.133,-0.162c0.062,-0.034 0.137,-0.05 0.223,-0.05l0.216,0l0,0.367l-0.223,0c-0.12,0 -0.217,0.032 -0.291,0.095c-0.074,0.063 -0.111,0.161 -0.111,0.293l0,1.028l-0.413,0Z" style="fill:#15803d;fill-rule:nonzero;"/><path d="M194.198,39.204c-0.115,0 -0.207,-0.034 -0.275,-0.102c-0.068,-0.068 -0.102,-0.161 -0.102,-0.279l0,-1.053l-0.464,0l0,-0.341l0.464,0l0,-0.571l0.413,0l0,0.571l0.51,0l0,0.341l-0.51,0l0,0.985c0,0.072 0.034,0.108 0.101,0.108l0.356,0l0,0.341l-0.492,0Z" style="fill:#15803d;fill-rule:nonzero;"/><path d="M195.844,39.233c-0.137,0 -0.258,-0.031 -0.363,-0.092c-0.105,-0.061 -0.187,-0.147 -0.244,-0.259c-0.058,-0.111 -0.086,-0.241 -0.086,-0.39l0,-1.064l0.41,0l0,1.031c0,0.144 0.035,0.25 0.106,0.32c0.071,0.069 0.171,0.104 0.3,0.104c0.146,0 0.262,-0.048 0.347,-0.144c0.085,-0.096 0.128,-0.234 0.128,-0.413l0,-0.899l0.41,0l0,1.775l-0.403,0l0,-0.248l-0.061,0c-0.031,0.065 -0.088,0.127 -0.171,0.187c-0.083,0.06 -0.207,0.09 -0.372,0.09Z" style="fill:#15803d;fill-rule:nonzero;"/><path d="M197.375,39.923l0,-2.494l0.406,0l0,0.234l0.061,0c0.041,-0.074 0.106,-0.14 0.196,-0.198c0.09,-0.058 0.219,-0.086 0.386,-0.086c0.144,0 0.277,0.035 0.401,0.106c0.123,0.071 0.222,0.174 0.297,0.311c0.074,0.137 0.111,0.301 0.111,0.492l0,0.058c0,0.192 -0.037,0.356 -0.111,0.492c-0.074,0.137 -0.173,0.24 -0.295,0.311c-0.122,0.071 -0.256,0.106 -0.403,0.106c-0.113,0 -0.207,-0.013 -0.282,-0.04c-0.075,-0.026 -0.137,-0.061 -0.183,-0.104c-0.047,-0.043 -0.083,-0.086 -0.11,-0.129l-0.061,0l0,0.942l-0.413,0Zm0.927,-1.028c0.151,0 0.275,-0.049 0.372,-0.146c0.097,-0.097 0.146,-0.235 0.146,-0.415l0,-0.036c0,-0.182 -0.049,-0.321 -0.147,-0.417c-0.098,-0.096 -0.222,-0.144 -0.37,-0.144c-0.149,0 -0.273,0.048 -0.372,0.144c-0.099,0.096 -0.149,0.235 -0.149,0.417l0,0.036c0,0.18 0.05,0.318 0.149,0.415c0.099,0.097 0.223,0.146 0.372,0.146Z" style="fill:#15803d;fill-rule:nonzero;"/><path d="M199.596,37.727l0,-0.23l0.133,0c0.103,0 0.155,-0.052 0.155,-0.155l0,-0.115l-0.058,0c-0.089,0 -0.163,-0.027 -0.223,-0.081c-0.06,-0.054 -0.09,-0.123 -0.09,-0.207c0,-0.089 0.03,-0.161 0.09,-0.217c0.06,-0.056 0.134,-0.084 0.223,-0.084c0.091,0 0.165,0.029 0.223,0.086c0.058,0.058 0.086,0.133 0.086,0.226l0,0.395c0,0.254 -0.126,0.381 -0.377,0.381l-0.162,0Z" style="fill:#15803d;fill-rule:nonzero;"/><path d="M201.303,39.254c-0.23,0 -0.419,-0.05 -0.568,-0.151c-0.149,-0.101 -0.238,-0.248 -0.27,-0.442l0.381,-0.097c0.017,0.091 0.047,0.163 0.09,0.216c0.043,0.053 0.096,0.09 0.16,0.111c0.063,0.022 0.132,0.032 0.207,0.032c0.113,0 0.197,-0.02 0.253,-0.061c0.056,-0.041 0.084,-0.092 0.084,-0.155c0,-0.065 -0.027,-0.113 -0.081,-0.144c-0.054,-0.031 -0.136,-0.058 -0.246,-0.079l-0.111,-0.018c-0.122,-0.024 -0.234,-0.057 -0.334,-0.099c-0.101,-0.042 -0.181,-0.099 -0.243,-0.173c-0.061,-0.073 -0.092,-0.166 -0.092,-0.279c0,-0.173 0.064,-0.305 0.192,-0.399c0.128,-0.093 0.297,-0.14 0.505,-0.14c0.199,0 0.363,0.044 0.492,0.133c0.129,0.089 0.213,0.207 0.252,0.356l-0.381,0.115c-0.019,-0.101 -0.061,-0.172 -0.126,-0.214c-0.065,-0.042 -0.144,-0.063 -0.237,-0.063c-0.096,0 -0.17,0.017 -0.221,0.05c-0.052,0.034 -0.077,0.081 -0.077,0.144c0,0.062 0.026,0.109 0.079,0.14c0.053,0.031 0.123,0.054 0.212,0.068l0.111,0.022c0.132,0.024 0.251,0.055 0.358,0.093c0.107,0.038 0.191,0.093 0.253,0.165c0.062,0.072 0.093,0.169 0.093,0.291c0,0.184 -0.066,0.326 -0.199,0.426c-0.133,0.099 -0.312,0.149 -0.537,0.149Z" style="fill:#15803d;fill-rule:nonzero;"/><path d="M203.14,39.204l0.69,-2.516l0.751,0l0.69,2.516l-0.446,0l-0.151,-0.575l-0.938,0l-0.151,0.575l-0.446,0Zm0.697,-0.97l0.737,0l-0.338,-1.276l-0.061,0l-0.338,1.276Z" style="fill:#15803d;fill-rule:nonzero;"/><path d="M205.591,39.204l0,-2.516l1.017,0c0.158,0 0.297,0.031 0.417,0.093c0.12,0.062 0.214,0.15 0.284,0.264c0.069,0.114 0.104,0.249 0.104,0.404l0,0.05c0,0.153 -0.035,0.288 -0.106,0.403c-0.071,0.115 -0.167,0.204 -0.288,0.266c-0.121,0.062 -0.258,0.093 -0.412,0.093l-0.582,0l0,0.942l-0.435,0Zm0.435,-1.333l0.539,0c0.125,0 0.225,-0.034 0.3,-0.101c0.075,-0.067 0.113,-0.159 0.113,-0.277l0,-0.036c0,-0.117 -0.037,-0.21 -0.111,-0.277c-0.074,-0.067 -0.175,-0.101 -0.302,-0.101l-0.539,0l0,0.791Z" style="fill:#15803d;fill-rule:nonzero;"/><rect x="207.758" y="36.688" width="0.435" height="2.516" style="fill:#15803d;fill-rule:nonzero;"/><path d="M209.436,39.254c-0.23,0 -0.419,-0.05 -0.568,-0.151c-0.149,-0.101 -0.238,-0.248 -0.27,-0.442l0.381,-0.097c0.017,0.091 0.047,0.163 0.09,0.216c0.043,0.053 0.096,0.09 0.16,0.111c0.063,0.022 0.132,0.032 0.207,0.032c0.113,0 0.197,-0.02 0.253,-0.061c0.056,-0.041 0.084,-0.092 0.084,-0.155c0,-0.065 -0.027,-0.113 -0.081,-0.144c-0.054,-0.031 -0.136,-0.058 -0.246,-0.079l-0.111,-0.018c-0.122,-0.024 -0.234,-0.057 -0.334,-0.099c-0.101,-0.042 -0.181,-0.099 -0.243,-0.173c-0.061,-0.073 -0.092,-0.166 -0.092,-0.279c0,-0.173 0.064,-0.305 0.192,-0.399c0.128,-0.093 0.297,-0.14 0.505,-0.14c0.199,0 0.363,0.044 0.492,0.133c0.129,0.089 0.213,0.207 0.252,0.356l-0.381,0.115c-0.019,-0.101 -0.061,-0.172 -0.126,-0.214c-0.065,-0.042 -0.144,-0.063 -0.237,-0.063c-0.096,0 -0.17,0.017 -0.221,0.05c-0.052,0.034 -0.077,0.081 -0.077,0.144c0,0.062 0.026,0.109 0.079,0.14c0.053,0.031 0.123,0.054 0.212,0.068l0.111,0.022c0.132,0.024 0.251,0.055 0.358,0.093c0.107,0.038 0.191,0.093 0.253,0.165c0.062,0.072 0.093,0.169 0.093,0.291c0,0.184 -0.066,0.326 -0.199,0.426c-0.133,0.099 -0.312,0.149 -0.537,0.149Z" style="fill:#15803d;fill-rule:nonzero;"/><path d="M210.845,39.254c-0.091,0 -0.167,-0.03 -0.228,-0.09c-0.061,-0.06 -0.092,-0.137 -0.092,-0.23c0,-0.091 0.031,-0.167 0.092,-0.226c0.061,-0.06 0.137,-0.09 0.228,-0.09c0.091,0 0.167,0.03 0.226,0.09c0.06,0.06 0.09,0.137 0.09,0.23c0,0.093 -0.03,0.17 -0.09,0.228c-0.06,0.059 -0.135,0.088 -0.226,0.088Z" style="fill:#15803d;fill-rule:nonzero;"/></g></svg>