<?xml version="1.0" encoding="UTF-8" standalone="no"?><!DOCTYPE svg PUBLIC "-//W3C//DTD SVG 1.1//EN" "http://www.w3.org/Graphics/SVG/1.1/DTD/svg11.dtd"><svg width="100%" height="100%" viewBox="0 0 1440 400" version="1.1" xmlns="http://www.w3.org/2000/svg" xmlns:xlink="http://www.w3.org/1999/xlink" xml:space="preserve" xmlns:serif="http://www.serif.com/" style="fill-rule:evenodd;clip-rule:evenodd;stroke-linejoin:round;stroke-miterlimit:2;"><rect id="Artboard1" x="0" y="0" width="1440" height="400" style="fill:none;"/><g transform="matrix(77.142857,0,0,77.142857,738.7259,220.761357)"></g><text x="355.789px" y="220.761px" style="font-family:'SpaceGrotesk-SemiBold', 'Space Grotesk';font-weight:600;font-size:77.143px;fill:#fffdfd;">relaypoint</text><g><path d="M276.257,150.5l-43.2,54l43.2,45l0,-99Z" style="fill:#22c55e;fill-rule:nonzero;"/><path d="M276.257,150.5l43.2,54l-43.2,45l0,-99Z" style="fill:#15803d;fill-rule:nonzero;"/><path d="M276.257,150.5l-43.2,54l43.2,-13.5l43.2,13.5l-43.2,-54Z" style="fill:#86efac;fill-rule:nonzero;"/></g><g><path d="M908.3,192.323l0,-11.8l-4.173,0l0,-2.176l10.742,0l0,2.176l-4.173,0l0,11.8l-2.396,0Z" style="fill:#86efac;fill-rule:nonzero;"/><path d="M916.826,192.323l0,-13.977l2.296,0l0,5.411l0.339,0c0.106,-0.226 0.28,-0.453 0.519,-0.679c0.24,-0.226 0.556,-0.413 0.948,-0.559c0.393,-0.146 0.889,-0.22 1.488,-0.22c0.759,0 1.431,0.17 2.017,0.509c0.586,0.339 1.042,0.815 1.368,1.428c0.326,0.612 0.489,1.338 0.489,2.176l0,5.91l-2.296,0l0,-5.73c0,-0.799 -0.196,-1.394 -0.589,-1.787c-0.393,-0.393 -0.948,-0.589 -1.667,-0.589c-0.812,0 -1.451,0.27 -1.917,0.809c-0.466,0.539 -0.699,1.308 -0.699,2.306l0,4.992l-2.296,0Z" style="fill:#86efac;fill-rule:nonzero;"/><path d="M933.618,192.602c-0.985,0 -1.854,-0.21 -2.606,-0.629c-0.752,-0.419 -1.338,-1.012 -1.757,-1.777c-0.419,-0.765 -0.629,-1.661 -0.629,-2.686l0,-0.24c0,-1.038 0.206,-1.937 0.619,-2.696c0.413,-0.759 0.992,-1.348 1.737,-1.767c0.745,-0.419 1.604,-0.629 2.576,-0.629c0.958,0 1.797,0.21 2.516,0.629c0.719,0.419 1.278,1.008 1.677,1.767c0.399,0.759 0.599,1.644 0.599,2.656l0,0.819l-7.408,0c0.027,0.772 0.3,1.391 0.819,1.857c0.519,0.466 1.158,0.699 1.917,0.699c0.745,0 1.298,-0.163 1.657,-0.489c0.359,-0.326 0.632,-0.696 0.819,-1.108l1.897,0.978c-0.186,0.359 -0.456,0.742 -0.809,1.148c-0.353,0.406 -0.822,0.752 -1.408,1.038c-0.586,0.286 -1.324,0.429 -2.216,0.429Zm-2.656,-6.29l5.052,0c-0.053,-0.652 -0.303,-1.171 -0.749,-1.557c-0.446,-0.386 -1.022,-0.579 -1.727,-0.579c-0.732,0 -1.318,0.193 -1.757,0.579c-0.439,0.386 -0.712,0.905 -0.819,1.557Z" style="fill:#86efac;fill-rule:nonzero;"/><path d="M949.871,192.602c-1.278,0 -2.329,-0.28 -3.155,-0.839c-0.825,-0.559 -1.324,-1.378 -1.498,-2.456l2.116,-0.539c0.093,0.506 0.26,0.905 0.499,1.198c0.24,0.293 0.536,0.499 0.889,0.619c0.353,0.12 0.735,0.18 1.148,0.18c0.626,0 1.095,-0.113 1.408,-0.339c0.313,-0.226 0.469,-0.512 0.469,-0.859c0,-0.359 -0.15,-0.626 -0.449,-0.799c-0.3,-0.173 -0.755,-0.319 -1.368,-0.439l-0.619,-0.1c-0.679,-0.133 -1.298,-0.316 -1.857,-0.549c-0.559,-0.233 -1.008,-0.552 -1.348,-0.958c-0.339,-0.406 -0.509,-0.922 -0.509,-1.547c0,-0.958 0.356,-1.697 1.068,-2.216c0.712,-0.519 1.647,-0.779 2.805,-0.779c1.105,0 2.017,0.246 2.735,0.739c0.719,0.493 1.185,1.151 1.398,1.977l-2.116,0.639c-0.106,-0.559 -0.339,-0.955 -0.699,-1.188c-0.359,-0.233 -0.799,-0.349 -1.318,-0.349c-0.532,0 -0.942,0.093 -1.228,0.28c-0.286,0.186 -0.429,0.453 -0.429,0.799c0,0.346 0.146,0.606 0.439,0.779c0.293,0.173 0.686,0.3 1.178,0.379l0.619,0.12c0.732,0.133 1.394,0.306 1.987,0.519c0.592,0.213 1.062,0.519 1.408,0.918c0.346,0.399 0.519,0.938 0.519,1.617c0,1.025 -0.369,1.814 -1.108,2.366c-0.739,0.552 -1.734,0.829 -2.985,0.829Z" style="fill:#86efac;fill-rule:nonzero;"/><path d="M956.28,192.323l0,-9.864l2.296,0l0,9.864l-2.296,0Zm1.138,-11.121c-0.413,0 -0.769,-0.136 -1.068,-0.409c-0.3,-0.273 -0.449,-0.636 -0.449,-1.088c0,-0.453 0.15,-0.815 0.449,-1.088c0.3,-0.273 0.656,-0.409 1.068,-0.409c0.439,0 0.802,0.136 1.088,0.409c0.286,0.273 0.429,0.636 0.429,1.088c0,0.453 -0.143,0.815 -0.429,1.088c-0.286,0.273 -0.649,0.409 -1.088,0.409Z" style="fill:#86efac;fill-rule:nonzero;"/><path d="M961.491,192.323l0,-9.864l2.256,0l0,1.098l0.339,0c0.173,-0.333 0.463,-0.629 0.869,-0.889c0.406,-0.26 0.948,-0.389 1.627,-0.389c0.719,0 1.298,0.146 1.737,0.439c0.439,0.293 0.772,0.666 0.998,1.118l0.319,0c0.226,-0.453 0.552,-0.825 0.978,-1.118c0.426,-0.293 1.032,-0.439 1.817,-0.439c0.612,0 1.168,0.133 1.667,0.399c0.499,0.266 0.899,0.659 1.198,1.178c0.3,0.519 0.449,1.165 0.449,1.937l0,6.529l-2.296,0l0,-6.369c0,-0.572 -0.153,-1.008 -0.459,-1.308c-0.306,-0.3 -0.732,-0.449 -1.278,-0.449c-0.599,0 -1.075,0.196 -1.428,0.589c-0.353,0.393 -0.529,0.955 -0.529,1.687l0,5.85l-2.276,0l0,-6.369c0,-0.572 -0.153,-1.008 -0.459,-1.308c-0.306,-0.3 -0.732,-0.449 -1.278,-0.449c-0.612,0 -1.092,0.196 -1.438,0.589c-0.346,0.393 -0.519,0.955 -0.519,1.687l0,5.85l-2.296,0Z" style="fill:#86efac;fill-rule:nonzero;"/><path d="M978.563,196.316l0,-13.857l2.256,0l0,1.298l0.339,0c0.226,-0.413 0.589,-0.779 1.088,-1.098c0.499,-0.319 1.215,-0.479 2.146,-0.479c0.799,0 1.541,0.196 2.226,0.589c0.686,0.393 1.235,0.968 1.647,1.727c0.413,0.759 0.619,1.671 0.619,2.735l0,0.319c0,1.065 -0.206,1.977 -0.619,2.735c-0.413,0.759 -0.958,1.334 -1.637,1.727c-0.679,0.393 -1.424,0.589 -2.236,0.589c-0.626,0 -1.148,-0.073 -1.567,-0.22c-0.419,-0.146 -0.759,-0.339 -1.018,-0.579c-0.26,-0.24 -0.463,-0.479 -0.609,-0.719l-0.339,0l0,5.231l-2.296,0Zm5.151,-5.71c0.839,0 1.527,-0.27 2.067,-0.809c0.539,-0.539 0.809,-1.308 0.809,-2.306l0,-0.2c0,-1.012 -0.273,-1.784 -0.819,-2.316c-0.546,-0.532 -1.231,-0.799 -2.057,-0.799c-0.825,0 -1.514,0.266 -2.067,0.799c-0.552,0.532 -0.829,1.304 -0.829,2.316l0,0.2c0,0.998 0.276,1.767 0.829,2.306c0.552,0.539 1.241,0.809 2.067,0.809Z" style="fill:#86efac;fill-rule:nonzero;"/><rect x="991.322" y="178.346" width="2.296" height="13.977" style="fill:#86efac;fill-rule:nonzero;"/><path d="M1001.046,192.602c-0.985,0 -1.854,-0.21 -2.606,-0.629c-0.752,-0.419 -1.338,-1.012 -1.757,-1.777c-0.419,-0.765 -0.629,-1.661 -0.629,-2.686l0,-0.24c0,-1.038 0.206,-1.937 0.619,-2.696c0.413,-0.759 0.992,-1.348 1.737,-1.767c0.745,-0.419 1.604,-0.629 2.576,-0.629c0.958,0 1.797,0.21 2.516,0.629c0.719,0.419 1.278,1.008 1.677,1.767c0.399,0.759 0.599,1.644 0.599,2.656l0,0.819l-7.408,0c0.027,0.772 0.3,1.391 0.819,1.857c0.519,0.466 1.158,0.699 1.917,0.699c0.745,0 1.298,-0.163 1.657,-0.489c0.359,-0.326 0.632,-0.696 0.819,-1.108l1.897,0.978c-0.186,0.359 -0.456,0.742 -0.809,1.148c-0.353,0.406 -0.822,0.752 -1.408,1.038c-0.586,0.286 -1.324,0.429 -2.216,0.429Zm-2.656,-6.29l5.052,0c-0.053,-0.652 -0.303,-1.171 -0.749,-1.557c-0.446,-0.386 -1.022,-0.579 -1.727,-0.579c-0.732,0 -1.318,0.193 -1.757,0.579c-0.439,0.386 -0.712,0.905 -0.819,1.557Z" style="fill:#86efac;fill-rule:nonzero;"/><path d="M1012.207,192.602c-1.278,0 -2.329,-0.28 -3.155,-0.839c-0.825,-0.559 -1.324,-1.378 -1.498,-2.456l2.116,-0.539c0.093,0.506 0.26,0.905 0.499,1.198c0.24,0.293 0.536,0.499 0.889,0.619c0.353,0.12 0.735,0.18 1.148,0.18c0.626,0 1.095,-0.113 1.408,-0.339c0.313,-0.226 0.469,-0.512 0.469,-0.859c0,-0.359 -0.15,-0.626 -0.449,-0.799c-0.3,-0.173 -0.755,-0.319 -1.368,-0.439l-0.619,-0.1c-0.679,-0.133 -1.298,-0.316 -1.857,-0.549c-0.559,-0.233 -1.008,-0.552 -1.348,-0.958c-0.339,-0.406 -0.509,-0.922 -0.509,-1.547c0,-0.958 0.356,-1.697 1.068,-2.216c0.712,-0.519 1.647,-0.779 2.805,-0.779c1.105,0 2.017,0.246 2.735,0.739c0.719,0.493 1.185,1.151 1.398,1.977l-2.116,0.639c-0.106,-0.559 -0.339,-0.955 -0.699,-1.188c-0.359,-0.233 -0.799,-0.349 -1.318,-0.349c-0.532,0 -0.942,0.093 -1.228,0.28c-0.286,0.186 -0.429,0.453 -0.429,0.799c0,0.346 0.146,0.606 0.439,0.779c0.293,0.173 0.686,0.3 1.178,0.379l0.619,0.12c0.732,0.133 1.394,0.306 1.987,0.519c0.592,0.213 1.062,0.519 1.408,0.918c0.346,0.399 0.519,0.938 0.519,1.617c0,1.025 -0.369,1.814 -1.108,2.366c-0.739,0.552 -1.734,0.829 -2.985,0.829Z" style="fill:#86efac;fill-rule:nonzero;"/><path d="M1022.17,192.323c-0.639,0 -1.148,-0.19 -1.527,-0.569c-0.379,-0.379 -0.569,-0.895 -0.569,-1.547l0,-5.85l-2.576,0l0,-1.897l2.576,0l0,-3.175l2.296,0l0,3.175l2.835,0l0,1.897l-2.835,0l0,5.471c0,0.399 0.186,0.599 0.559,0.599l1.977,0l0,1.897l-2.735,0Z" style="fill:#86efac;fill-rule:nonzero;"/><path d="M1033.571,192.323l-1.537,-9.864l2.276,0l1.058,8.326l0.339,0l1.498,-8.326l3.674,0l1.498,8.326l0.339,0l1.058,-8.326l2.276,0l-1.537,9.864l-3.814,0l-1.478,-8.326l-0.339,0l-1.498,8.326l-3.814,0Z" style="fill:#86efac;fill-rule:nonzero;"/><path d="M1051.382,192.602c-0.692,0 -1.318,-0.123 -1.877,-0.369c-0.559,-0.246 -1.002,-0.602 -1.328,-1.068c-0.326,-0.466 -0.489,-1.038 -0.489,-1.717c0,-0.666 0.163,-1.225 0.489,-1.677c0.326,-0.453 0.775,-0.795 1.348,-1.028c0.572,-0.233 1.225,-0.349 1.957,-0.349l2.855,0l0,-0.599c0,-0.519 -0.16,-0.942 -0.479,-1.268c-0.319,-0.326 -0.819,-0.489 -1.498,-0.489c-0.666,0 -1.168,0.156 -1.507,0.469c-0.339,0.313 -0.562,0.715 -0.669,1.208l-2.116,-0.699c0.16,-0.519 0.416,-0.992 0.769,-1.418c0.353,-0.426 0.822,-0.769 1.408,-1.028c0.586,-0.26 1.304,-0.389 2.156,-0.389c1.291,0 2.306,0.323 3.045,0.968c0.739,0.646 1.108,1.581 1.108,2.805l0,3.874c0,0.399 0.186,0.599 0.559,0.599l0.839,0l0,1.897l-1.617,0c-0.479,0 -0.872,-0.12 -1.178,-0.359c-0.306,-0.24 -0.459,-0.566 -0.459,-0.978l0,-0.04l-0.339,0c-0.08,0.186 -0.22,0.413 -0.419,0.679c-0.2,0.266 -0.502,0.496 -0.908,0.689c-0.406,0.193 -0.955,0.29 -1.647,0.29Zm0.379,-1.877c0.759,0 1.378,-0.216 1.857,-0.649c0.479,-0.433 0.719,-1.015 0.719,-1.747l0,-0.2l-2.715,0c-0.493,0 -0.892,0.106 -1.198,0.319c-0.306,0.213 -0.459,0.526 -0.459,0.938c0,0.399 0.16,0.722 0.479,0.968c0.319,0.246 0.759,0.369 1.318,0.369Z" style="fill:#86efac;fill-rule:nonzero;"/><path d="M1060.666,196.316l0,-1.997l5.451,0c0.373,0 0.559,-0.2 0.559,-0.599l0,-2.755l-0.339,0c-0.106,0.24 -0.28,0.476 -0.519,0.709c-0.24,0.233 -0.559,0.426 -0.958,0.579c-0.399,0.153 -0.905,0.23 -1.517,0.23c-0.759,0 -1.431,-0.17 -2.017,-0.509c-0.586,-0.339 -1.038,-0.819 -1.358,-1.438c-0.319,-0.619 -0.479,-1.341 -0.479,-2.166l0,-5.91l2.276,0l0,5.73c0,0.799 0.196,1.391 0.589,1.777c0.393,0.386 0.948,0.579 1.667,0.579c0.812,0 1.454,-0.266 1.927,-0.799c0.473,-0.532 0.709,-1.298 0.709,-2.296l0,-4.992l2.276,0l0,11.74c0,0.652 -0.186,1.168 -0.559,1.547c-0.373,0.379 -0.879,0.569 -1.517,0.569l-6.19,0Z" style="fill:#86efac;fill-rule:nonzero;"/><path d="M1080.693,192.323c-0.639,0 -1.148,-0.19 -1.527,-0.569c-0.379,-0.379 -0.569,-0.895 -0.569,-1.547l0,-5.85l-2.576,0l0,-1.897l2.576,0l0,-3.175l2.296,0l0,3.175l2.835,0l0,1.897l-2.835,0l0,5.471c0,0.399 0.186,0.599 0.559,0.599l1.977,0l0,1.897l-2.735,0Z" style="fill:#86efac;fill-rule:nonzero;"/><path d="M1090.377,192.602c-0.985,0 -1.867,-0.203 -2.646,-0.609c-0.779,-0.406 -1.391,-0.985 -1.837,-1.737c-0.446,-0.752 -0.669,-1.654 -0.669,-2.705l0,-0.319c0,-1.052 0.223,-1.957 0.669,-2.715c0.446,-0.759 1.058,-1.338 1.837,-1.737c0.779,-0.399 1.661,-0.599 2.646,-0.599c0.985,0 1.864,0.2 2.636,0.599c0.772,0.399 1.381,0.978 1.827,1.737c0.446,0.759 0.669,1.664 0.669,2.715l0,0.319c0,1.052 -0.223,1.953 -0.669,2.705c-0.446,0.752 -1.055,1.331 -1.827,1.737c-0.772,0.406 -1.651,0.609 -2.636,0.609Zm0,-2.037c0.839,0 1.524,-0.27 2.057,-0.809c0.532,-0.539 0.799,-1.295 0.799,-2.266l0,-0.2c0,-0.972 -0.266,-1.727 -0.799,-2.266c-0.532,-0.539 -1.218,-0.809 -2.057,-0.809c-0.839,0 -1.524,0.27 -2.057,0.809c-0.532,0.539 -0.799,1.295 -0.799,2.266l0,0.2c0,0.972 0.266,1.727 0.799,2.266c0.532,0.539 1.218,0.809 2.057,0.809Z" style="fill:#86efac;fill-rule:nonzero;"/><path d="M1107.109,192.602c-1.278,0 -2.329,-0.28 -3.155,-0.839c-0.825,-0.559 -1.324,-1.378 -1.498,-2.456l2.116,-0.539c0.093,0.506 0.26,0.905 0.499,1.198c0.24,0.293 0.536,0.499 0.889,0.619c0.353,0.12 0.735,0.18 1.148,0.18c0.626,0 1.095,-0.113 1.408,-0.339c0.313,-0.226 0.469,-0.512 0.469,-0.859c0,-0.359 -0.15,-0.626 -0.449,-0.799c-0.3,-0.173 -0.755,-0.319 -1.368,-0.439l-0.619,-0.1c-0.679,-0.133 -1.298,-0.316 -1.857,-0.549c-0.559,-0.233 -1.008,-0.552 -1.348,-0.958c-0.339,-0.406 -0.509,-0.922 -0.509,-1.547c0,-0.958 0.356,-1.697 1.068,-2.216c0.712,-0.519 1.647,-0.779 2.805,-0.779c1.105,0 2.017,0.246 2.735,0.739c0.719,0.493 1.185,1.151 1.398,1.977l-2.116,0.639c-0.106,-0.559 -0.339,-0.955 -0.699,-1.188c-0.359,-0.233 -0.799,-0.349 -1.318,-0.349c-0.532,0 -0.942,0.093 -1.228,0.28c-0.286,0.186 -0.429,0.453 -0.429,0.799c0,0.346 0.146,0.606 0.439,0.779c0.293,0.173 0.686,0.3 1.178,0.379l0.619,0.12c0.732,0.133 1.394,0.306 1.987,0.519c0.592,0.213 1.062,0.519 1.408,0.918c0.346,0.399 0.519,0.938 0.519,1.617c0,1.025 -0.369,1.814 -1.108,2.366c-0.739,0.552 -1.734,0.829 -2.985,0.829Z" style="fill:#86efac;fill-rule:nonzero;"/><path d="M1118.031,192.602c-0.985,0 -1.854,-0.21 -2.606,-0.629c-0.752,-0.419 -1.338,-1.012 -1.757,-1.777c-0.419,-0.765 -0.629,-1.661 -0.629,-2.686l0,-0.24c0,-1.038 0.206,-1.937 0.619,-2.696c0.413,-0.759 0.992,-1.348 1.737,-1.767c0.745,-0.419 1.604,-0.629 2.576,-0.629c0.958,0 1.797,0.21 2.516,0.629c0.719,0.419 1.278,1.008 1.677,1.767c0.399,0.759 0.599,1.644 0.599,2.656l0,0.819l-7.408,0c0.027,0.772 0.3,1.391 0.819,1.857c0.519,0.466 1.158,0.699 1.917,0.699c0.745,0 1.298,-0.163 1.657,-0.489c0.359,-0.326 0.632,-0.696 0.819,-1.108l1.897,0.978c-0.186,0.359 -0.456,0.742 -0.809,1.148c-0.353,0.406 -0.822,0.752 -1.408,1.038c-0.586,0.286 -1.324,0.429 -2.216,0.429Zm-2.656,-6.29l5.052,0c-0.053,-0.652 -0.303,-1.171 -0.749,-1.557c-0.446,-0.386 -1.022,-0.579 -1.727,-0.579c-0.732,0 -1.318,0.193 -1.757,0.579c-0.439,0.386 -0.712,0.905 -0.819,1.557Z" style="fill:#86efac;fill-rule:nonzero;"/><path d="M1129.731,192.602c-0.958,0 -1.824,-0.2 -2.596,-0.599c-0.772,-0.399 -1.381,-0.978 -1.827,-1.737c-0.446,-0.759 -0.669,-1.671 -0.669,-2.735l0,-0.28c0,-1.065 0.223,-1.977 0.669,-2.735c0.446,-0.759 1.055,-1.338 1.827,-1.737c0.772,-0.399 1.637,-0.599 2.596,-0.599c0.945,0 1.754,0.166 2.426,0.499c0.672,0.333 1.215,0.789 1.627,1.368c0.413,0.579 0.679,1.228 0.799,1.947l-2.216,0.459c-0.053,-0.413 -0.18,-0.789 -0.379,-1.128c-0.2,-0.339 -0.483,-0.609 -0.849,-0.809c-0.366,-0.2 -0.815,-0.3 -1.348,-0.3c-0.546,0 -1.035,0.116 -1.468,0.349c-0.433,0.233 -0.772,0.582 -1.018,1.048c-0.246,0.466 -0.369,1.025 -0.369,1.677l0,0.2c0,0.652 0.123,1.208 0.369,1.667c0.246,0.459 0.586,0.809 1.018,1.048c0.433,0.24 0.922,0.359 1.468,0.359c0.812,0 1.428,-0.21 1.847,-0.629c0.419,-0.419 0.682,-0.962 0.789,-1.627l2.216,0.519c-0.16,0.692 -0.446,1.324 -0.859,1.897c-0.413,0.572 -0.955,1.028 -1.627,1.368c-0.672,0.339 -1.481,0.509 -2.426,0.509Z" style="fill:#86efac;fill-rule:nonzero;"/><path d="M1140.653,192.483c-0.759,0 -1.431,-0.17 -2.017,-0.509c-0.586,-0.339 -1.038,-0.819 -1.358,-1.438c-0.319,-0.619 -0.479,-1.341 -0.479,-2.166l0,-5.91l2.276,0l0,5.73c0,0.799 0.196,1.391 0.589,1.777c0.393,0.386 0.948,0.579 1.667,0.579c0.812,0 1.454,-0.266 1.927,-0.799c0.473,-0.532 0.709,-1.298 0.709,-2.296l0,-4.992l2.276,0l0,9.864l-2.236,0l0,-1.378l-0.339,0c-0.173,0.359 -0.489,0.705 -0.948,1.038c-0.459,0.333 -1.148,0.499 -2.067,0.499Z" style="fill:#86efac;fill-rule:nonzero;"/><path d="M1149.159,192.323l0,-9.864l2.256,0l0,1.138l0.339,0c0.146,-0.413 0.393,-0.712 0.739,-0.899c0.346,-0.186 0.759,-0.28 1.238,-0.28l1.198,0l0,2.037l-1.238,0c-0.666,0 -1.205,0.176 -1.617,0.529c-0.413,0.353 -0.619,0.895 -0.619,1.627l0,5.71l-2.296,0Z" style="fill:#86efac;fill-rule:nonzero;"/><path d="M1161.119,192.602c-0.985,0 -1.854,-0.21 -2.606,-0.629c-0.752,-0.419 -1.338,-1.012 -1.757,-1.777c-0.419,-0.765 -0.629,-1.661 -0.629,-2.686l0,-0.24c0,-1.038 0.206,-1.937 0.619,-2.696c0.413,-0.759 0.992,-1.348 1.737,-1.767c0.745,-0.419 1.604,-0.629 2.576,-0.629c0.958,0 1.797,0.21 2.516,0.629c0.719,0.419 1.278,1.008 1.677,1.767c0.399,0.759 0.599,1.644 0.599,2.656l0,0.819l-7.408,0c0.027,0.772 0.3,1.391 0.819,1.857c0.519,0.466 1.158,0.699 1.917,0.699c0.745,0 1.298,-0.163 1.657,-0.489c0.359,-0.326 0.632,-0.696 0.819,-1.108l1.897,0.978c-0.186,0.359 -0.456,0.742 -0.809,1.148c-0.353,0.406 -0.822,0.752 -1.408,1.038c-0.586,0.286 -1.324,0.429 -2.216,0.429Zm-2.656,-6.29l5.052,0c-0.053,-0.652 -0.303,-1.171 -0.749,-1.557c-0.446,-0.386 -1.022,-0.579 -1.727,-0.579c-0.732,0 -1.318,0.193 -1.757,0.579c-0.439,0.386 -0.712,0.905 -0.819,1.557Z" style="fill:#86efac;fill-rule:nonzero;"/><path d="M1176.354,192.602c-0.692,0 -1.318,-0.123 -1.877,-0.369c-0.559,-0.246 -1.002,-0.602 -1.328,-1.068c-0.326,-0.466 -0.489,-1.038 -0.489,-1.717c0,-0.666 0.163,-1.225 0.489,-1.677c0.326,-0.453 0.775,-0.795 1.348,-1.028c0.572,-0.233 1.225,-0.349 1.957,-0.349l2.855,0l0,-0.599c0,-0.519 -0.16,-0.942 -0.479,-1.268c-0.319,-0.326 -0.819,-0.489 -1.498,-0.489c-0.666,0 -1.168,0.156 -1.507,0.469c-0.339,0.313 -0.562,0.715 -0.669,1.208l-2.116,-0.699c0.16,-0.519 0.416,-0.992 0.769,-1.418c0.353,-0.426 0.822,-0.769 1.408,-1.028c0.586,-0.26 1.304,-0.389 2.156,-0.389c1.291,0 2.306,0.323 3.045,0.968c0.739,0.646 1.108,1.581 1.108,2.805l0,3.874c0,0.399 0.186,0.599 0.559,0.599l0.839,0l0,1.897l-1.617,0c-0.479,0 -0.872,-0.12 -1.178,-0.359c-0.306,-0.24 -0.459,-0.566 -0.459,-0.978l0,-0.04l-0.339,0c-0.08,0.186 -0.22,0.413 -0.419,0.679c-0.2,0.266 -0.502,0.496 -0.908,0.689c-0.406,0.193 -0.955,0.29 -1.647,0.29Zm0.379,-1.877c0.759,0 1.378,-0.216 1.857,-0.649c0.479,-0.433 0.719,-1.015 0.719,-1.747l0,-0.2l-2.715,0c-0.493,0 -0.892,0.106 -1.198,0.319c-0.306,0.213 -0.459,0.526 -0.459,0.938c0,0.399 0.16,0.722 0.479,0.968c0.319,0.246 0.759,0.369 1.318,0.369Z" style="fill:#86efac;fill-rule:nonzero;"/><path d="M1184.82,192.323l0,-9.864l2.256,0l0,1.378l0.339,0c0.173,-0.373 0.486,-0.725 0.938,-1.058c0.453,-0.333 1.138,-0.499 2.057,-0.499c0.759,0 1.431,0.173 2.017,0.519c0.586,0.346 1.042,0.825 1.368,1.438c0.326,0.612 0.489,1.338 0.489,2.176l0,5.91l-2.296,0l0,-5.73c0,-0.799 -0.196,-1.394 -0.589,-1.787c-0.393,-0.393 -0.948,-0.589 -1.667,-0.589c-0.812,0 -1.451,0.27 -1.917,0.809c-0.466,0.539 -0.699,1.308 -0.699,2.306l0,4.992l-2.296,0Z" style="fill:#86efac;fill-rule:nonzero;"/><path d="M1201.132,192.602c-0.799,0 -1.544,-0.196 -2.236,-0.589c-0.692,-0.393 -1.245,-0.968 -1.657,-1.727c-0.413,-0.759 -0.619,-1.671 -0.619,-2.735l0,-0.319c0,-1.065 0.206,-1.977 0.619,-2.735c0.413,-0.759 0.962,-1.334 1.647,-1.727c0.686,-0.393 1.434,-0.589 2.246,-0.589c0.612,0 1.131,0.073 1.557,0.22c0.426,0.146 0.769,0.333 1.028,0.559c0.26,0.226 0.463,0.473 0.609,0.739l0.339,0l0,-5.351l2.276,0l0,13.977l-2.236,0l0,-1.298l-0.339,0c-0.24,0.399 -0.606,0.762 -1.098,1.088c-0.493,0.326 -1.205,0.489 -2.136,0.489Zm0.679,-1.997c0.825,0 1.511,-0.27 2.057,-0.809c0.546,-0.539 0.819,-1.308 0.819,-2.306l0,-0.2c0,-1.012 -0.27,-1.784 -0.809,-2.316c-0.539,-0.532 -1.228,-0.799 -2.067,-0.799c-0.825,0 -1.514,0.266 -2.067,0.799c-0.552,0.532 -0.829,1.304 -0.829,2.316l0,0.2c0,0.998 0.276,1.767 0.829,2.306c0.552,0.539 1.241,0.809 2.067,0.809Z" style="fill:#86efac;fill-rule:nonzero;"/><path d="M905.085,217.8l0,-9.864l2.256,0l0,1.098l0.339,0c0.173,-0.333 0.463,-0.629 0.869,-0.889c0.406,-0.26 0.948,-0.389 1.627,-0.389c0.719,0 1.298,0.146 1.737,0.439c0.439,0.293 0.772,0.666 0.998,1.118l0.319,0c0.226,-0.453 0.552,-0.825 0.978,-1.118c0.426,-0.293 1.032,-0.439 1.817,-0.439c0.612,0 1.168,0.133 1.667,0.399c0.499,0.266 0.899,0.659 1.198,1.178c0.3,0.519 0.449,1.165 0.449,1.937l0,6.529l-2.296,0l0,-6.369c0,-0.572 -0.153,-1.008 -0.459,-1.308c-0.306,-0.3 -0.732,-0.449 -1.278,-0.449c-0.599,0 -1.075,0.196 -1.428,0.589c-0.353,0.393 -0.529,0.955 -0.529,1.687l0,5.85l-2.276,0l0,-6.369c0,-0.572 -0.153,-1.008 -0.459,-1.308c-0.306,-0.3 -0.732,-0.449 -1.278,-0.449c-0.612,0 -1.092,0.196 -1.438,0.589c-0.346,0.393 -0.519,0.955 -0.519,1.687l0,5.85l-2.296,0Z" style="fill:#86efac;fill-rule:nonzero;"/><path d="M925.212,218.08c-0.692,0 -1.318,-0.123 -1.877,-0.369c-0.559,-0.246 -1.002,-0.602 -1.328,-1.068c-0.326,-0.466 -0.489,-1.038 -0.489,-1.717c0,-0.666 0.163,-1.225 0.489,-1.677c0.326,-0.453 0.775,-0.795 1.348,-1.028c0.572,-0.233 1.225,-0.349 1.957,-0.349l2.855,0l0,-0.599c0,-0.519 -0.16,-0.942 -0.479,-1.268c-0.319,-0.326 -0.819,-0.489 -1.498,-0.489c-0.666,0 -1.168,0.156 -1.507,0.469c-0.339,0.313 -0.562,0.715 -0.669,1.208l-2.116,-0.699c0.16,-0.519 0.416,-0.992 0.769,-1.418c0.353,-0.426 0.822,-0.769 1.408,-1.028c0.586,-0.26 1.304,-0.389 2.156,-0.389c1.291,0 2.306,0.323 3.045,0.968c0.739,0.646 1.108,1.581 1.108,2.805l0,3.874c0,0.399 0.186,0.599 0.559,0.599l0.839,0l0,1.897l-1.617,0c-0.479,0 -0.872,-0.12 -1.178,-0.359c-0.306,-0.24 -0.459,-0.566 -0.459,-0.978l0,-0.04l-0.339,0c-0.08,0.186 -0.22,0.413 -0.419,0.679c-0.2,0.266 -0.502,0.496 -0.908,0.689c-0.406,0.193 -0.955,0.29 -1.647,0.29Zm0.379,-1.877c0.759,0 1.378,-0.216 1.857,-0.649c0.479,-0.433 0.719,-1.015 0.719,-1.747l0,-0.2l-2.715,0c-0.493,0 -0.892,0.106 -1.198,0.319c-0.306,0.213 -0.459,0.526 -0.459,0.938c0,0.399 0.16,0.722 0.479,0.968c0.319,0.246 0.759,0.369 1.318,0.369Z" style="fill:#86efac;fill-rule:nonzero;"/><path d="M933.678,217.8l0,-9.864l2.256,0l0,1.378l0.339,0c0.173,-0.373 0.486,-0.725 0.938,-1.058c0.453,-0.333 1.138,-0.499 2.057,-0.499c0.759,0 1.431,0.173 2.017,0.519c0.586,0.346 1.042,0.825 1.368,1.438c0.326,0.612 0.489,1.338 0.489,2.176l0,5.91l-2.296,0l0,-5.73c0,-0.799 -0.196,-1.394 -0.589,-1.787c-0.393,-0.393 -0.948,-0.589 -1.667,-0.589c-0.812,0 -1.451,0.27 -1.917,0.809c-0.466,0.539 -0.699,1.308 -0.699,2.306l0,4.992l-2.296,0Z" style="fill:#86efac;fill-rule:nonzero;"/><path d="M949.012,218.08c-0.692,0 -1.318,-0.123 -1.877,-0.369c-0.559,-0.246 -1.002,-0.602 -1.328,-1.068c-0.326,-0.466 -0.489,-1.038 -0.489,-1.717c0,-0.666 0.163,-1.225 0.489,-1.677c0.326,-0.453 0.775,-0.795 1.348,-1.028c0.572,-0.233 1.225,-0.349 1.957,-0.349l2.855,0l0,-0.599c0,-0.519 -0.16,-0.942 -0.479,-1.268c-0.319,-0.326 -0.819,-0.489 -1.498,-0.489c-0.666,0 -1.168,0.156 -1.507,0.469c-0.339,0.313 -0.562,0.715 -0.669,1.208l-2.116,-0.699c0.16,-0.519 0.416,-0.992 0.769,-1.418c0.353,-0.426 0.822,-0.769 1.408,-1.028c0.586,-0.26 1.304,-0.389 2.156,-0.389c1.291,0 2.306,0.323 3.045,0.968c0.739,0.646 1.108,1.581 1.108,2.805l0,3.874c0,0.399 0.186,0.599 0.559,0.599l0.839,0l0,1.897l-1.617,0c-0.479,0 -0.872,-0.12 -1.178,-0.359c-0.306,-0.24 -0.459,-0.566 -0.459,-0.978l0,-0.04l-0.339,0c-0.08,0.186 -0.22,0.413 -0.419,0.679c-0.2,0.266 -0.502,0.496 -0.908,0.689c-0.406,0.193 -0.955,0.29 -1.647,0.29Zm0.379,-1.877c0.759,0 1.378,-0.216 1.857,-0.649c0.479,-0.433 0.719,-1.015 0.719,-1.747l0,-0.2l-2.715,0c-0.493,0 -0.892,0.106 -1.198,0.319c-0.306,0.213 -0.459,0.526 -0.459,0.938c0,0.399 0.16,0.722 0.479,0.968c0.319,0.246 0.759,0.369 1.318,0.369Z" style="fill:#86efac;fill-rule:nonzero;"/><path d="M956.779,212.909l0,-0.3c0,-1.038 0.206,-1.927 0.619,-2.666c0.413,-0.739 0.965,-1.304 1.657,-1.697c0.692,-0.393 1.451,-0.589 2.276,-0.589c0.932,0 1.641,0.166 2.126,0.499c0.486,0.333 0.842,0.692 1.068,1.078l0.339,0l0,-1.298l2.236,0l0,11.74c0,0.652 -0.186,1.168 -0.559,1.547c-0.373,0.379 -0.879,0.569 -1.517,0.569l-6.629,0l0,-1.997l5.85,0c0.386,0 0.579,-0.2 0.579,-0.599l0,-2.855l-0.339,0c-0.146,0.226 -0.346,0.456 -0.599,0.689c-0.253,0.233 -0.586,0.429 -0.998,0.589c-0.413,0.16 -0.932,0.24 -1.557,0.24c-0.825,0 -1.584,-0.196 -2.276,-0.589c-0.692,-0.393 -1.245,-0.958 -1.657,-1.697c-0.413,-0.739 -0.619,-1.627 -0.619,-2.666Zm5.191,2.935c0.825,0 1.511,-0.263 2.057,-0.789c0.546,-0.526 0.819,-1.261 0.819,-2.206l0,-0.2c0,-0.958 -0.27,-1.697 -0.809,-2.216c-0.539,-0.519 -1.228,-0.779 -2.067,-0.779c-0.825,0 -1.514,0.26 -2.067,0.779c-0.552,0.519 -0.829,1.258 -0.829,2.216l0,0.2c0,0.945 0.276,1.681 0.829,2.206c0.552,0.526 1.241,0.789 2.067,0.789Z" style="fill:#86efac;fill-rule:nonzero;"/><path d="M974.53,218.08c-0.985,0 -1.854,-0.21 -2.606,-0.629c-0.752,-0.419 -1.338,-1.012 -1.757,-1.777c-0.419,-0.765 -0.629,-1.661 -0.629,-2.686l0,-0.24c0,-1.038 0.206,-1.937 0.619,-2.696c0.413,-0.759 0.992,-1.348 1.737,-1.767c0.745,-0.419 1.604,-0.629 2.576,-0.629c0.958,0 1.797,0.21 2.516,0.629c0.719,0.419 1.278,1.008 1.677,1.767c0.399,0.759 0.599,1.644 0.599,2.656l0,0.819l-7.408,0c0.027,0.772 0.3,1.391 0.819,1.857c0.519,0.466 1.158,0.699 1.917,0.699c0.745,0 1.298,-0.163 1.657,-0.489c0.359,-0.326 0.632,-0.696 0.819,-1.108l1.897,0.978c-0.186,0.359 -0.456,0.742 -0.809,1.148c-0.353,0.406 -0.822,0.752 -1.408,1.038c-0.586,0.286 -1.324,0.429 -2.216,0.429Zm-2.656,-6.29l5.052,0c-0.053,-0.652 -0.303,-1.171 -0.749,-1.557c-0.446,-0.386 -1.022,-0.579 -1.727,-0.579c-0.732,0 -1.318,0.193 -1.757,0.579c-0.439,0.386 -0.712,0.905 -0.819,1.557Z" style="fill:#86efac;fill-rule:nonzero;"/><path d="M987.808,221.794l0,-1.997l5.451,0c0.373,0 0.559,-0.2 0.559,-0.599l0,-2.755l-0.339,0c-0.106,0.24 -0.28,0.476 -0.519,0.709c-0.24,0.233 -0.559,0.426 -0.958,0.579c-0.399,0.153 -0.905,0.23 -1.517,0.23c-0.759,0 -1.431,-0.17 -2.017,-0.509c-0.586,-0.339 -1.038,-0.819 -1.358,-1.438c-0.319,-0.619 -0.479,-1.341 -0.479,-2.166l0,-5.91l2.276,0l0,5.73c0,0.799 0.196,1.391 0.589,1.777c0.393,0.386 0.948,0.579 1.667,0.579c0.812,0 1.454,-0.266 1.927,-0.799c0.473,-0.532 0.709,-1.298 0.709,-2.296l0,-4.992l2.276,0l0,11.74c0,0.652 -0.186,1.168 -0.559,1.547c-0.373,0.379 -0.879,0.569 -1.517,0.569l-6.19,0Z" style="fill:#86efac;fill-rule:nonzero;"/><path d="M1003.661,218.08c-0.985,0 -1.867,-0.203 -2.646,-0.609c-0.779,-0.406 -1.391,-0.985 -1.837,-1.737c-0.446,-0.752 -0.669,-1.654 -0.669,-2.705l0,-0.319c0,-1.052 0.223,-1.957 0.669,-2.715c0.446,-0.759 1.058,-1.338 1.837,-1.737c0.779,-0.399 1.661,-0.599 2.646,-0.599c0.985,0 1.864,0.2 2.636,0.599c0.772,0.399 1.381,0.978 1.827,1.737c0.446,0.759 0.669,1.664 0.669,2.715l0,0.319c0,1.052 -0.223,1.953 -0.669,2.705c-0.446,0.752 -1.055,1.331 -1.827,1.737c-0.772,0.406 -1.651,0.609 -2.636,0.609Zm0,-2.037c0.839,0 1.524,-0.27 2.057,-0.809c0.532,-0.539 0.799,-1.295 0.799,-2.266l0,-0.2c0,-0.972 -0.266,-1.727 -0.799,-2.266c-0.532,-0.539 -1.218,-0.809 -2.057,-0.809c-0.839,0 -1.524,0.27 -2.057,0.809c-0.532,0.539 -0.799,1.295 -0.799,2.266l0,0.2c0,0.972 0.266,1.727 0.799,2.266c0.532,0.539 1.218,0.809 2.057,0.809Z" style="fill:#86efac;fill-rule:nonzero;"/><path d="M1015.002,217.96c-0.759,0 -1.431,-0.17 -2.017,-0.509c-0.586,-0.339 -1.038,-0.819 -1.358,-1.438c-0.319,-0.619 -0.479,-1.341 -0.479,-2.166l0,-5.91l2.276,0l0,5.73c0,0.799 0.196,1.391 0.589,1.777c0.393,0.386 0.948,0.579 1.667,0.579c0.812,0 1.454,-0.266 1.927,-0.799c0.473,-0.532 0.709,-1.298 0.709,-2.296l0,-4.992l2.276,0l0,9.864l-2.236,0l0,-1.378l-0.339,0c-0.173,0.359 -0.489,0.705 -0.948,1.038c-0.459,0.333 -1.148,0.499 -2.067,0.499Z" style="fill:#86efac;fill-rule:nonzero;"/><path d="M1023.508,217.8l0,-9.864l2.256,0l0,1.138l0.339,0c0.146,-0.413 0.393,-0.712 0.739,-0.899c0.346,-0.186 0.759,-0.28 1.238,-0.28l1.198,0l0,2.037l-1.238,0c-0.666,0 -1.205,0.176 -1.617,0.529c-0.413,0.353 -0.619,0.895 -0.619,1.627l0,5.71l-2.296,0Z" style="fill:#86efac;fill-rule:nonzero;"/><path d="M1040.48,218.08c-1.278,0 -2.329,-0.28 -3.155,-0.839c-0.825,-0.559 -1.324,-1.378 -1.498,-2.456l2.116,-0.539c0.093,0.506 0.26,0.905 0.499,1.198c0.24,0.293 0.536,0.499 0.889,0.619c0.353,0.12 0.735,0.18 1.148,0.18c0.626,0 1.095,-0.113 1.408,-0.339c0.313,-0.226 0.469,-0.512 0.469,-0.859c0,-0.359 -0.15,-0.626 -0.449,-0.799c-0.3,-0.173 -0.755,-0.319 -1.368,-0.439l-0.619,-0.1c-0.679,-0.133 -1.298,-0.316 -1.857,-0.549c-0.559,-0.233 -1.008,-0.552 -1.348,-0.958c-0.339,-0.406 -0.509,-0.922 -0.509,-1.547c0,-0.958 0.356,-1.697 1.068,-2.216c0.712,-0.519 1.647,-0.779 2.805,-0.779c1.105,0 2.017,0.246 2.735,0.739c0.719,0.493 1.185,1.151 1.398,1.977l-2.116,0.639c-0.106,-0.559 -0.339,-0.955 -0.699,-1.188c-0.359,-0.233 -0.799,-0.349 -1.318,-0.349c-0.532,0 -0.942,0.093 -1.228,0.28c-0.286,0.186 -0.429,0.453 -0.429,0.799c0,0.346 0.146,0.606 0.439,0.779c0.293,0.173 0.686,0.3 1.178,0.379l0.619,0.12c0.732,0.133 1.394,0.306 1.987,0.519c0.592,0.213 1.062,0.519 1.408,0.918c0.346,0.399 0.519,0.938 0.519,1.617c0,1.025 -0.369,1.814 -1.108,2.366c-0.739,0.552 -1.734,0.829 -2.985,0.829Z" style="fill:#86efac;fill-rule:nonzero;"/><path d="M1050.443,217.8c-0.639,0 -1.148,-0.19 -1.527,-0.569c-0.379,-0.379 -0.569,-0.895 -0.569,-1.547l0,-5.85l-2.576,0l0,-1.897l2.576,0l0,-3.175l2.296,0l0,3.175l2.835,0l0,1.897l-2.835,0l0,5.471c0,0.399 0.186,0.599 0.559,0.599l1.977,0l0,1.897l-2.735,0Z" style="fill:#86efac;fill-rule:nonzero;"/><path d="M1058.849,218.08c-0.692,0 -1.318,-0.123 -1.877,-0.369c-0.559,-0.246 -1.002,-0.602 -1.328,-1.068c-0.326,-0.466 -0.489,-1.038 -0.489,-1.717c0,-0.666 0.163,-1.225 0.489,-1.677c0.326,-0.453 0.775,-0.795 1.348,-1.028c0.572,-0.233 1.225,-0.349 1.957,-0.349l2.855,0l0,-0.599c0,-0.519 -0.16,-0.942 -0.479,-1.268c-0.319,-0.326 -0.819,-0.489 -1.498,-0.489c-0.666,0 -1.168,0.156 -1.507,0.469c-0.339,0.313 -0.562,0.715 -0.669,1.208l-2.116,-0.699c0.16,-0.519 0.416,-0.992 0.769,-1.418c0.353,-0.426 0.822,-0.769 1.408,-1.028c0.586,-0.26 1.304,-0.389 2.156,-0.389c1.291,0 2.306,0.323 3.045,0.968c0.739,0.646 1.108,1.581 1.108,2.805l0,3.874c0,0.399 0.186,0.599 0.559,0.599l0.839,0l0,1.897l-1.617,0c-0.479,0 -0.872,-0.12 -1.178,-0.359c-0.306,-0.24 -0.459,-0.566 -0.459,-0.978l0,-0.04l-0.339,0c-0.08,0.186 -0.22,0.413 -0.419,0.679c-0.2,0.266 -0.502,0.496 -0.908,0.689c-0.406,0.193 -0.955,0.29 -1.647,0.29Zm0.379,-1.877c0.759,0 1.378,-0.216 1.857,-0.649c0.479,-0.433 0.719,-1.015 0.719,-1.747l0,-0.2l-2.715,0c-0.493,0 -0.892,0.106 -1.198,0.319c-0.306,0.213 -0.459,0.526 -0.459,0.938c0,0.399 0.16,0.722 0.479,0.968c0.319,0.246 0.759,0.369 1.318,0.369Z" style="fill:#86efac;fill-rule:nonzero;"/><path d="M1067.315,217.8l0,-9.864l2.256,0l0,1.138l0.339,0c0.146,-0.413 0.393,-0.712 0.739,-0.899c0.346,-0.186 0.759,-0.28 1.238,-0.28l1.198,0l0,2.037l-1.238,0c-0.666,0 -1.205,0.176 -1.617,0.529c-0.413,0.353 -0.619,0.895 -0.619,1.627l0,5.71l-2.296,0Z" style="fill:#86efac;fill-rule:nonzero;"/><path d="M1078.876,217.8c-0.639,0 -1.148,-0.19 -1.527,-0.569c-0.379,-0.379 -0.569,-0.895 -0.569,-1.547l0,-5.85l-2.576,0l0,-1.897l2.576,0l0,-3.175l2.296,0l0,3.175l2.835,0l0,1.897l-2.835,0l0,5.471c0,0.399 0.186,0.599 0.559,0.599l1.977,0l0,1.897l-2.735,0Z" style="fill:#86efac;fill-rule:nonzero;"/><path d="M1088.021,217.96c-0.759,0 -1.431,-0.17 -2.017,-0.509c-0.586,-0.339 -1.038,-0.819 -1.358,-1.438c-0.319,-0.619 -0.479,-1.341 -0.479,-2.166l0,-5.91l2.276,0l0,5.73c0,0.799 0.196,1.391 0.589,1.777c0.393,0.386 0.948,0.579 1.667,0.579c0.812,0 1.454,-0.266 1.927,-0.799c0.473,-0.532 0.709,-1.298 0.709,-2.296l0,-4.992l2.276,0l0,9.864l-2.236,0l0,-1.378l-0.339,0c-0.173,0.359 -0.489,0.705 -0.948,1.038c-0.459,0.333 -1.148,0.499 -2.067,0.499Z" style="fill:#86efac;fill-rule:nonzero;"/><path d="M1096.527,221.794l0,-13.857l2.256,0l0,1.298l0.339,0c0.226,-0.413 0.589,-0.779 1.088,-1.098c0.499,-0.319 1.215,-0.479 2.146,-0.479c0.799,0 1.541,0.196 2.226,0.589c0.686,0.393 1.235,0.968 1.647,1.727c0.413,0.759 0.619,1.671 0.619,2.735l0,0.319c0,1.065 -0.206,1.977 -0.619,2.735c-0.413,0.759 -0.958,1.334 -1.637,1.727c-0.679,0.393 -1.424,0.589 -2.236,0.589c-0.626,0 -1.148,-0.073 -1.567,-0.22c-0.419,-0.146 -0.759,-0.339 -1.018,-0.579c-0.26,-0.24 -0.463,-0.479 -0.609,-0.719l-0.339,0l0,5.231l-2.296,0Zm5.151,-5.71c0.839,0 1.527,-0.27 2.067,-0.809c0.539,-0.539 0.809,-1.308 0.809,-2.306l0,-0.2c0,-1.012 -0.273,-1.784 -0.819,-2.316c-0.546,-0.532 -1.231,-0.799 -2.057,-0.799c-0.825,0 -1.514,0.266 -2.067,0.799c-0.552,0.532 -0.829,1.304 -0.829,2.316l0,0.2c0,0.998 0.276,1.767 0.829,2.306c0.552,0.539 1.241,0.809 2.067,0.809Z" style="fill:#86efac;fill-rule:nonzero;"/><path d="M1108.866,209.594l0,-1.278l0.739,0c0.572,0 0.859,-0.286 0.859,-0.859l0,-0.639l-0.319,0c-0.493,0 -0.905,-0.15 -1.238,-0.449c-0.333,-0.3 -0.499,-0.682 -0.499,-1.148c0,-0.493 0.166,-0.895 0.499,-1.208c0.333,-0.313 0.745,-0.469 1.238,-0.469c0.506,0 0.918,0.16 1.238,0.479c0.319,0.319 0.479,0.739 0.479,1.258l0,2.196c0,1.411 -0.699,2.116 -2.097,2.116l-0.899,0Z" style="fill:#86efac;fill-rule:nonzero;"/><path d="M1118.35,218.08c-1.278,0 -2.329,-0.28 -3.155,-0.839c-0.825,-0.559 -1.324,-1.378 -1.498,-2.456l2.116,-0.539c0.093,0.506 0.26,0.905 0.499,1.198c0.24,0.293 0.536,0.499 0.889,0.619c0.353,0.12 0.735,0.18 1.148,0.18c0.626,0 1.095,-0.113 1.408,-0.339c0.313,-0.226 0.469,-0.512 0.469,-0.859c0,-0.359 -0.15,-0.626 -0.449,-0.799c-0.3,-0.173 -0.755,-0.319 -1.368,-0.439l-0.619,-0.1c-0.679,-0.133 -1.298,-0.316 -1.857,-0.549c-0.559,-0.233 -1.008,-0.552 -1.348,-0.958c-0.339,-0.406 -0.509,-0.922 -0.509,-1.547c0,-0.958 0.356,-1.697 1.068,-2.216c0.712,-0.519 1.647,-0.779 2.805,-0.779c1.105,0 2.017,0.246 2.735,0.739c0.719,0.493 1.185,1.151 1.398,1.977l-2.116,0.639c-0.106,-0.559 -0.339,-0.955 -0.699,-1.188c-0.359,-0.233 -0.799,-0.349 -1.318,-0.349c-0.532,0 -0.942,0.093 -1.228,0.28c-0.286,0.186 -0.429,0.453 -0.429,0.799c0,0.346 0.146,0.606 0.439,0.779c0.293,0.173 0.686,0.3 1.178,0.379l0.619,0.12c0.732,0.133 1.394,0.306 1.987,0.519c0.592,0.213 1.062,0.519 1.408,0.918c0.346,0.399 0.519,0.938 0.519,1.617c0,1.025 -0.369,1.814 -1.108,2.366c-0.739,0.552 -1.734,0.829 -2.985,0.829Z" style="fill:#86efac;fill-rule:nonzero;"/><path d="M1128.553,217.8l3.834,-13.977l4.173,0l3.834,13.977l-2.476,0l-0.839,-3.195l-5.211,0l-0.839,3.195l-2.476,0Zm3.874,-5.391l4.093,0l-1.877,-7.088l-0.339,0l-1.877,7.088Z" style="fill:#86efac;fill-rule:nonzero;"/><path d="M1142.171,217.8l0,-13.977l5.651,0c0.879,0 1.651,0.173 2.316,0.519c0.666,0.346 1.191,0.835 1.577,1.468c0.386,0.632 0.579,1.381 0.579,2.246l0,0.28c0,0.852 -0.196,1.597 -0.589,2.236c-0.393,0.639 -0.925,1.131 -1.597,1.478c-0.672,0.346 -1.434,0.519 -2.286,0.519l-3.235,0l0,5.231l-2.416,0Zm2.416,-7.408l2.995,0c0.692,0 1.248,-0.186 1.667,-0.559c0.419,-0.373 0.629,-0.885 0.629,-1.537l0,-0.2c0,-0.652 -0.206,-1.165 -0.619,-1.537c-0.413,-0.373 -0.972,-0.559 -1.677,-0.559l-2.995,0l0,4.393Z" style="fill:#86efac;fill-rule:nonzero;"/><rect x="1154.21" y="203.824" width="2.416" height="13.977" style="fill:#86efac;fill-rule:nonzero;"/><path d="M1163.535,218.08c-1.278,0 -2.329,-0.28 -3.155,-0.839c-0.825,-0.559 -1.324,-1.378 -1.498,-2.456l2.116,-0.539c0.093,0.506 0.26,0.905 0.499,1.198c0.24,0.293 0.536,0.499 0.889,0.619c0.353,0.12 0.735,0.18 1.148,0.18c0.626,0 1.095,-0.113 1.408,-0.339c0.313,-0.226 0.469,-0.512 0.469,-0.859c0,-0.359 -0.15,-0.626 -0.449,-0.799c-0.3,-0.173 -0.755,-0.319 -1.368,-0.439l-0.619,-0.1c-0.679,-0.133 -1.298,-0.316 -1.857,-0.549c-0.559,-0.233 -1.008,-0.552 -1.348,-0.958c-0.339,-0.406 -0.509,-0.922 -0.509,-1.547c0,-0.958 0.356,-1.697 1.068,-2.216c0.712,-0.519 1.647,-0.779 2.805,-0.779c1.105,0 2.017,0.246 2.735,0.739c0.719,0.493 1.185,1.151 1.398,1.977l-2.116,0.639c-0.106,-0.559 -0.339,-0.955 -0.699,-1.188c-0.359,-0.233 -0.799,-0.349 -1.318,-0.349c-0.532,0 -0.942,0.093 -1.228,0.28c-0.286,0.186 -0.429,0.453 -0.429,0.799c0,0.346 0.146,0.606 0.439,0.779c0.293,0.173 0.686,0.3 1.178,0.379l0.619,0.12c0.732,0.133 1.394,0.306 1.987,0.519c0.592,0.213 1.062,0.519 1.408,0.918c0.346,0.399 0.519,0.938 0.519,1.617c0,1.025 -0.369,1.814 -1.108,2.366c-0.739,0.552 -1.734,0.829 -2.985,0.829Z" style="fill:#86efac;fill-rule:nonzero;"/><path d="M1171.362,218.08c-0.506,0 -0.928,-0.166 -1.268,-0.499c-0.339,-0.333 -0.509,-0.759 -0.509,-1.278c0,-0.506 0.17,-0.925 0.509,-1.258c0.339,-0.333 0.762,-0.499 1.268,-0.499c0.506,0 0.925,0.166 1.258,0.499c0.333,0.333 0.499,0.759 0.499,1.278c0,0.519 -0.166,0.942 -0.499,1.268c-0.333,0.326 -0.752,0.489 -1.258,0.489Z" style="fill:#86efac;fill-rule:nonzero;"/></g></svg>