<?xml version="1.0" encoding="UTF-8" standalone="no"?><!DOCTYPE svg PUBLIC "-//W3C//DTD SVG 1.1//EN" "http://www.w3.org/Graphics/SVG/1.1/DTD/svg11.dtd"><svg width="100%" height="100%" viewBox="0 0 1440 400" version="1.1" xmlns="http://www.w3.org/2000/svg" xmlns:xlink="http://www.w3.org/1999/xlink" xml:space="preserve" xmlns:serif="http://www.serif.com/" style="fill-rule:evenodd;clip-rule:evenodd;stroke-linejoin:round;stroke-miterlimit:2;"><rect id="Artboard1" x="0" y="0" width="1440" height="400" style="fill:#262626;"/><path d="M361.42,220.761l0,-38.109l8.717,0l0,4.397l1.311,0c0.566,-1.594 1.517,-2.751 2.854,-3.471c1.337,-0.72 2.931,-1.08 4.783,-1.08l4.629,0l0,7.869l-4.783,0c-2.571,0 -4.654,0.681 -6.249,2.044c-1.594,1.363 -2.391,3.459 -2.391,6.287l0,22.063l-8.871,0Z" style="fill:#fffdfd;fill-rule:nonzero;"/><path d="M407.629,221.841c-3.806,0 -7.161,-0.81 -10.067,-2.43c-2.906,-1.62 -5.169,-3.909 -6.789,-6.866c-1.62,-2.957 -2.43,-6.416 -2.43,-10.376l0,-0.926c0,-4.011 0.797,-7.483 2.391,-10.414c1.594,-2.931 3.831,-5.207 6.711,-6.827c2.88,-1.62 6.197,-2.43 9.951,-2.43c3.703,0 6.943,0.81 9.72,2.43c2.777,1.62 4.937,3.896 6.48,6.827c1.543,2.931 2.314,6.351 2.314,10.26l0,3.163l-28.62,0c0.103,2.983 1.157,5.374 3.163,7.174c2.006,1.8 4.474,2.7 7.406,2.7c2.88,0 5.014,-0.63 6.403,-1.89c1.389,-1.26 2.443,-2.687 3.163,-4.281l7.329,3.78c-0.72,1.389 -1.761,2.867 -3.124,4.436c-1.363,1.569 -3.176,2.906 -5.439,4.011c-2.263,1.106 -5.117,1.659 -8.563,1.659Zm-10.26,-24.3l19.517,0c-0.206,-2.52 -1.17,-4.526 -2.893,-6.017c-1.723,-1.491 -3.947,-2.237 -6.673,-2.237c-2.829,0 -5.091,0.746 -6.789,2.237c-1.697,1.491 -2.751,3.497 -3.163,6.017Z" style="fill:#fffdfd;fill-rule:nonzero;"/><rect x="435.014" y="166.761" width="8.871" height="54" style="fill:#fffdfd;fill-rule:nonzero;"/><path d="M466.952,221.841c-2.674,0 -5.091,-0.476 -7.251,-1.427c-2.16,-0.951 -3.87,-2.327 -5.13,-4.127c-1.26,-1.8 -1.89,-4.011 -1.89,-6.634c0,-2.571 0.63,-4.731 1.89,-6.48c1.26,-1.749 2.996,-3.073 5.207,-3.973c2.211,-0.9 4.731,-1.35 7.56,-1.35l11.031,0l0,-2.314c0,-2.006 -0.617,-3.639 -1.851,-4.899c-1.234,-1.26 -3.163,-1.89 -5.786,-1.89c-2.571,0 -4.513,0.604 -5.824,1.813c-1.311,1.209 -2.173,2.764 -2.584,4.667l-8.177,-2.7c0.617,-2.006 1.607,-3.831 2.97,-5.477c1.363,-1.646 3.176,-2.97 5.439,-3.973c2.263,-1.003 5.04,-1.504 8.331,-1.504c4.989,0 8.91,1.247 11.764,3.741c2.854,2.494 4.281,6.107 4.281,10.839l0,14.966c0,1.543 0.72,2.314 2.16,2.314l3.24,0l0,7.329l-6.249,0c-1.851,0 -3.369,-0.463 -4.551,-1.389c-1.183,-0.926 -1.774,-2.186 -1.774,-3.78l0,-0.154l-1.311,0c-0.309,0.72 -0.849,1.594 -1.62,2.623c-0.771,1.029 -1.941,1.916 -3.51,2.661c-1.569,0.746 -3.69,1.119 -6.364,1.119Zm1.466,-7.251c2.931,0 5.323,-0.836 7.174,-2.507c1.851,-1.671 2.777,-3.921 2.777,-6.75l0,-0.771l-10.491,0c-1.903,0 -3.446,0.411 -4.629,1.234c-1.183,0.823 -1.774,2.031 -1.774,3.626c0,1.543 0.617,2.79 1.851,3.741c1.234,0.951 2.931,1.427 5.091,1.427Z" style="fill:#fffdfd;fill-rule:nonzero;"/><path d="M502.823,236.19l0,-7.714l21.06,0c1.44,0 2.16,-0.771 2.16,-2.314l0,-10.646l-1.311,0c-0.411,0.926 -1.08,1.839 -2.006,2.739c-0.926,0.9 -2.16,1.646 -3.703,2.237c-1.543,0.591 -3.497,0.887 -5.863,0.887c-2.931,0 -5.529,-0.656 -7.791,-1.967c-2.263,-1.311 -4.011,-3.163 -5.246,-5.554c-1.234,-2.391 -1.851,-5.181 -1.851,-8.37l0,-22.834l8.794,0l0,22.14c0,3.086 0.759,5.374 2.276,6.866c1.517,1.491 3.664,2.237 6.441,2.237c3.137,0 5.619,-1.029 7.444,-3.086c1.826,-2.057 2.739,-5.014 2.739,-8.871l0,-19.286l8.794,0l0,45.36c0,2.52 -0.72,4.513 -2.16,5.979c-1.44,1.466 -3.394,2.199 -5.863,2.199l-23.914,0Z" style="fill:#fffdfd;fill-rule:nonzero;"/><path d="M546.023,236.19l0,-53.537l8.717,0l0,5.014l1.311,0c0.874,-1.594 2.276,-3.009 4.204,-4.243c1.929,-1.234 4.693,-1.851 8.293,-1.851c3.086,0 5.953,0.759 8.601,2.276c2.649,1.517 4.77,3.741 6.364,6.673c1.594,2.931 2.391,6.454 2.391,10.569l0,1.234c0,4.114 -0.797,7.637 -2.391,10.569c-1.594,2.931 -3.703,5.156 -6.326,6.673c-2.623,1.517 -5.503,2.276 -8.64,2.276c-2.417,0 -4.436,-0.283 -6.056,-0.849c-1.62,-0.566 -2.931,-1.311 -3.934,-2.237c-1.003,-0.926 -1.787,-1.851 -2.353,-2.777l-1.311,0l0,20.211l-8.871,0Zm19.903,-22.063c3.24,0 5.901,-1.041 7.984,-3.124c2.083,-2.083 3.124,-5.053 3.124,-8.91l0,-0.771c0,-3.909 -1.054,-6.891 -3.163,-8.949c-2.109,-2.057 -4.757,-3.086 -7.946,-3.086c-3.189,0 -5.85,1.029 -7.984,3.086c-2.134,2.057 -3.201,5.04 -3.201,8.949l0,0.771c0,3.857 1.067,6.827 3.201,8.91c2.134,2.083 4.796,3.124 7.984,3.124Z" style="fill:#fffdfd;fill-rule:nonzero;"/><path d="M613.369,221.841c-3.806,0 -7.213,-0.784 -10.221,-2.353c-3.009,-1.569 -5.374,-3.806 -7.097,-6.711c-1.723,-2.906 -2.584,-6.39 -2.584,-10.453l0,-1.234c0,-4.063 0.861,-7.56 2.584,-10.491c1.723,-2.931 4.089,-5.169 7.097,-6.711c3.009,-1.543 6.416,-2.314 10.221,-2.314c3.806,0 7.2,0.771 10.183,2.314c2.983,1.543 5.336,3.78 7.059,6.711c1.723,2.931 2.584,6.429 2.584,10.491l0,1.234c0,4.063 -0.861,7.547 -2.584,10.453c-1.723,2.906 -4.076,5.143 -7.059,6.711c-2.983,1.569 -6.377,2.353 -10.183,2.353Zm0,-7.869c3.24,0 5.889,-1.041 7.946,-3.124c2.057,-2.083 3.086,-5.001 3.086,-8.756l0,-0.771c0,-3.754 -1.029,-6.673 -3.086,-8.756c-2.057,-2.083 -4.706,-3.124 -7.946,-3.124c-3.24,0 -5.889,1.041 -7.946,3.124c-2.057,2.083 -3.086,5.001 -3.086,8.756l0,0.771c0,3.754 1.029,6.673 3.086,8.756c2.057,2.083 4.706,3.124 7.946,3.124Z" style="fill:#fffdfd;fill-rule:nonzero;"/><path d="M642.606,220.761l0,-38.109l8.871,0l0,38.109l-8.871,0Zm4.397,-42.969c-1.594,0 -2.97,-0.527 -4.127,-1.581c-1.157,-1.054 -1.736,-2.456 -1.736,-4.204c0,-1.749 0.579,-3.15 1.736,-4.204c1.157,-1.054 2.533,-1.581 4.127,-1.581c1.697,0 3.099,0.527 4.204,1.581c1.106,1.054 1.659,2.456 1.659,4.204c0,1.749 -0.553,3.15 -1.659,4.204c-1.106,1.054 -2.507,1.581 -4.204,1.581Z" style="fill:#fffdfd;fill-rule:nonzero;"/><path d="M662.74,220.761l0,-38.109l8.717,0l0,5.323l1.311,0c0.669,-1.44 1.877,-2.803 3.626,-4.089c1.749,-1.286 4.397,-1.929 7.946,-1.929c2.931,0 5.529,0.669 7.791,2.006c2.263,1.337 4.024,3.189 5.284,5.554c1.26,2.366 1.89,5.169 1.89,8.409l0,22.834l-8.871,0l0,-22.14c0,-3.086 -0.759,-5.387 -2.276,-6.904c-1.517,-1.517 -3.664,-2.276 -6.441,-2.276c-3.137,0 -5.606,1.041 -7.406,3.124c-1.8,2.083 -2.7,5.053 -2.7,8.91l0,19.286l-8.871,0Z" style="fill:#fffdfd;fill-rule:nonzero;"/><path d="M723.606,220.761c-2.469,0 -4.436,-0.733 -5.901,-2.199c-1.466,-1.466 -2.199,-3.459 -2.199,-5.979l0,-22.603l-9.951,0l0,-7.329l9.951,0l0,-12.266l8.871,0l0,12.266l10.954,0l0,7.329l-10.954,0l0,21.137c0,1.543 0.72,2.314 2.16,2.314l7.637,0l0,7.329l-10.569,0Z" style="fill:#fffdfd;fill-rule:nonzero;"/><g><path d="M276.257,150.5l-43.2,54l43.2,45l0,-99Z" style="fill:#22c55e;fill-rule:nonzero;"/><path d="M276.257,150.5l43.2,54l-43.2,45l0,-99Z" style="fill:#15803d;fill-rule:nonzero;"/><path d="M276.257,150.5l-43.2,54l43.2,-13.5l43.2,13.5l-43.2,-54Z" style="fill:#86efac;fill-rule:nonzero;"/></g><g><path d="M908.3,192.323l0,-11.8l-4.173,0l0,-2.176l10.742,0l0,2.176l-4.173,0l0,11.8l-2.396,0Z" style="fill:#86efac;fill-rule:nonzero;"/><path d="M916.826,192.323l0,-13.977l2.296,0l0,5.411l0.339,0c0.106,-0.226 0.28,-0.453 0.519,-0.679c0.24,-0.226 0.556,-0.413 0.948,-0.559c0.393,-0.146 0.889,-0.22 1.488,-0.22c0.759,0 1.431,0.17 2.017,0.509c0.586,0.339 1.042,0.815 1.368,1.428c0.326,0.612 0.489,1.338 0.489,2.176l0,5.91l-2.296,0l0,-5.73c0,-0.799 -0.196,-1.394 -0.589,-1.787c-0.393,-0.393 -0.948,-0.589 -1.667,-0.589c-0.812,0 -1.451,0.27 -1.917,0.809c-0.466,0.539 -0.699,1.308 -0.699,2.306l0,4.992l-2.296,0Z" style="fill:#86efac;fill-rule:nonzero;"/><path d="M933.618,192.602c-0.985,0 -1.854,-0.21 -2.606,-0.629c-0.752,-0.419 -1.338,-1.012 -1.757,-1.777c-0.419,-0.765 -0.629,-1.661 -0.629,-2.686l0,-0.24c0,-1.038 0.206,-1.937 0.619,-2.696c0.413,-0.759 0.992,-1.348 1.737,-1.767c0.745,-0.419 1.604,-0.629 2.576,-0.629c0.958,0 1.797,0.21 2.516,0.629c0.719,0.419 1.278,1.008 1.677,1.767c0.399,0.759 0.599,1.644 0.599,2.656l0,0.819l-7.408,0c0.027,0.772 0.3,1.391 0.819,1.857c0.519,0.466 1.158,0.699 1.917,0.699c0.745,0 1.298,-0.163 1.657,-0.489c0.359,-0.326 0.632,-0.696 0.819,-1.108l1.897,0.978c-0.186,0.359 -0.456,0.742 -0.809,1.148c-0.353,0.406 -0.822,0.752 -1.408,1.038c-0.586,0.286 -1.324,0.429 -2.216,0.429Zm-2.656,-6.29l5.052,0c-0.053,-0.652 -0.303,-1.171 -0.749,-1.557c-0.446,-0.386 -1.022,-0.579 -1.727,-0.579c-0.732,0 -1.318,0.193 -1.757,0.579c-0.439,0.386 -0.712,0.905 -0.819,1.557Z" style="fill:#86efac;fill-rule:nonzero;"/><path d="M949.871,192.602c-1.278,0 -2.329,-0.28 -3.155,-0.839c-0.825,-0.559 -1.324,-1.378 -1.498,-2.456l2.116,-0.539c0.093,0.506 0.26,0.905 0.499,1.198c0.24,0.293 0.536,0.499 0.889,0.619c0.353,0.12 0.735,0.18 1.148,0.18c0.626,0 1.095,-0.113 1.408,-0.339c0.313,-0.226 0.469,-0.512 0.469,-0.859c0,-0.359 -0.15,-0.626 -0.449,-0.799c-0.3,-0.173 -0.755,-0.319 -1.368,-0.439l-0.619,-0.1c-0.679,-0.133 -1.298,-0.316 -1.857,-0.549c-0.559,-0.233 -1.008,-0.552 -1.348,-0.958c-0.339,-0.406 -0.509,-0.922 -0.509,-1.547c0,-0.958 0.356,-1.697 1.068,-2.216c0.712,-0.519 1.647,-0.779 2.805,-0.779c1.105,0 2.017,0.246 2.735,0.739c0.719,0.493 1.185,1.151 1.398,1.977l-2.116,0.639c-0.106,-0.559 -0.339,-0.955 -0.699,-1.188c-0.359,-0.233 -0.799,-0.349 -1.318,-0.349c-0.532,0 -0.942,0.093 -1.228,0.28c-0.286,0.186 -0.429,0.453 -0.429,0.799c0,0.346 0.146,0.606 0.439,0.779c0.293,0.173 0.686,0.3 1.178,0.379l0.619,0.12c0.732,0.133 1.394,0.306 1.987,0.519c0.592,0.213 1.062,0.519 1.408,0.918c0.346,0.399 0.519,0.938 0.519,1.617c0,1.025 -0.369,1.814 -1.108,2.366c-0.739,0.552 -1.734,0.829 -2.985,0.829Z" style="fill:#86efac;fill-rule:nonzero;"/><path d="M956.28,192.323l0,-9.864l2.296,0l0,9.864l-2.296,0Zm1.138,-11.121c-0.413,0 -0.769,-0.136 -1.068,-0.409c-0.3,-0.273 -0.449,-0.636 -0.449,-1.088c0,-0.453 0.15,-0.815 0.449,-1.088c0.3,-0.273 0.656,-0.409 1.068,-0.409c0.439,0 0.802,0.136 1.088,0.409c0.286,0.273 0.429,0.636 0.429,1.088c0,0.453 -0.143,0.815 -0.429,1.088c-0.286,0.273 -0.649,0.409 -1.088,0.409Z" style="fill:#86efac;fill-rule:nonzero;"/><path d="M961.491,192.323l0,-9.864l2.256,0l0,1.098l0.339,0c0.173,-0.333 0.463,-0.629 0.869,-0.889c0.406,-0.26 0.948,-0.389 1.627,-0.389c0.719,0 1.298,0.146 1.737,0.439c0.439,0.293 0.772,0.666 0.998,1.118l0.319,0c0.226,-0.453 0.552,-0.825 0.978,-1.118c0.426,-0.293 1.032,-0.439 1.817,-0.439c0.612,0 1.168,0.133 1.667,0.399c0.499,0.266 0.899,0.659 1.198,1.178c0.3,0.519 0.449,1.165 0.449,1.937l0,6.529l-2.296,0l0,-6.369c0,-0.572 -0.153,-1.008 -0.459,-1.308c-0.306,-0.3 -0.732,-0.449 -1.278,-0.449c-0.599,0 -1.075,0.196 -1.428,0.589c-0.353,0.393 -0.529,0.955 -0.529,1.687l0,5.85l-2.276,0l0,-6.369c0,-0.572 -0.153,-1.008 -0.459,-1.308c-0.306,-0.3 -0.732,-0.449 -1.278,-0.449c-0.612,0 -1.092,0.196 -1.438,0.589c-0.346,0.393 -0.519,0.955 -0.519,1.687l0,5.85l-2.296,0Z" style="fill:#86efac;fill-rule:nonzero;"/><path d="M978.563,196.316l0,-13.857l2.256,0l0,1.298l0.339,0c0.226,-0.413 0.589,-0.779 1.088,-1.098c0.499,-0.319 1.215,-0.479 2.146,-0.479c0.799,0 1.541,0.196 2.226,0.589c0.686,0.393 1.235,0.968 1.647,1.727c0.413,0.759 0.619,1.671 0.619,2.735l0,0.319c0,1.065 -0.206,1.977 -0.619,2.735c-0.413,0.759 -0.958,1.334 -1.637,1.727c-0.679,0.393 -1.424,0.589 -2.236,0.589c-0.626,0 -1.148,-0.073 -1.567,-0.22c-0.419,-0.146 -0.759,-0.339 -1.018,-0.579c-0.26,-0.24 -0.463,-0.479 -0.609,-0.719l-0.339,0l0,5.231l-2.296,0Zm5.151,-5.71c0.839,0 1.527,-0.27 2.067,-0.809c0.539,-0.539 0.809,-1.308 0.809,-2.306l0,-0.2c0,-1.012 -0.273,-1.784 -0.819,-2.316c-0.546,-0.532 -1.231,-0.799 -2.057,-0.799c-0.825,0 -1.514,0.266 -2.067,0.799c-0.552,0.532 -0.829,1.304 -0.829,2.316l0,0.2c0,0.998 0.276,1.767 0.829,2.306c0.552,0.539 1.241,0.809 2.067,0.809Z" style="fill:#86efac;fill-rule:nonzero;"/><rect x="991.322" y="178.346" width="2.296" height="13.977" style="fill:#86efac;fill-rule:nonzero;"/><path d="M1001.046,192.602c-0.985,0 -1.854,-0.21 -2.606,-0.629c-0.752,-0.419 -1.338,-1.012 -1.757,-1.777c-0.419,-0.765 -0.629,-1.661 -0.629,-2.686l0,-0.24c0,-1.038 0.206,-1.937 0.619,-2.696c0.413,-0.759 0.992,-1.348 1.737,-1.767c0.745,-0.419 1.604,-0.629 2.576,-0.629c0.958,0 1.797,0.21 2.516,0.629c0.719,0.419 1.278,1.008 1.677,1.767c0.399,0.759 0.599,1.644 0.599,2.656l0,0.819l-7.408,0c0.027,0.772 0.3,1.391 0.819,1.857c0.519,0.466 1.158,0.699 1.917,0.699c0.745,0 1.298,-0.163 1.657,-0.489c0.359,-0.326 0.632,-0.696 0.819,-1.108l1.897,0.978c-0.186,0.359 -0.456,0.742 -0.809,1.148c-0.353,0.406 -0.822,0.752 -1.408,1.038c-0.586,0.286 -1.324,0.429 -2.216,0.429Zm-2.656,-6.29l5.052,0c-0.053,-0.652 -0.303,-1.171 -0.749,-1.557c-0.446,-0.386 -1.022,-0.579 -1.727,-0.579c-0.732,0 -1.318,0.193 -1.757,0.579c-0.439,0.386 -0.712,0.905 -0.819,1.557Z" style="fill:#86efac;fill-rule:nonzero;"/><path d="M1012.207,192.602c-1.278,0 -2.329,-0.28 -3.155,-0.839c-0.825,-0.559 -1.324,-1.378 -1.498,-2.456l2.116,-0.539c0.093,0.506 0.26,0.905 0.499,1.198c0.24,0.293 0.536,0.499 0.889,0.619c0.353,0.12 0.735,0.18 1.148,0.18c0.626,0 1.095,-0.113 1.408,-0.339c0.313,-0.226 0.469,-0.512 0.469,-0.859c0,-0.359 -0.15,-0.626 -0.449,-0.799c-0.3,-0.173 -0.755,-0.319 -1.368,-0.439l-0.619,-0.1c-0.679,-0.133 -1.298,-0.316 -1.857,-0.549c-0.559,-0.233 -1.008,-0.552 -1.348,-0.958c-0.339,-0.406 -0.509,-0.922 -0.509,-1.547c0,-0.958 0.356,-1.697 1.068,-2.216c0.712,-0.519 1.647,-0.779 2.805,-0.779c1.105,0 2.017,0.246 2.735,0.739c0.719,0.493 1.185,1.151 1.398,1.977l-2.116,0.639c-0.106,-0.559 -0.339,-0.955 -0.699,-1.188c-0.359,-0.233 -0.799,-0.349 -1.318,-0.349c-0.532,0 -0.942,0.093 -1.228,0.28c-0.286,0.186 -0.429,0.453 -0.429,0.799c0,0.346 0.146,0.606 0.439,0.779c0.293,0.173 0.686,0.3 1.178,0.379l0.619,0.12c0.732,0.133 1.394,0.306 1.987,0.519c0.592,0.213 1.062,0.519 1.408,0.918c0.346,0.399 0.519,0.938 0.519,1.617c0,1.025 -0.369,1.814 -1.108,2.366c-0.739,0.552 -1.734,0.829 -2.985,0.829Z" style="fill:#86efac;fill-rule:nonzero;"/><path d="M1022.17,192.323c-0.639,0 -1.148,-0.19 -1.527,-0.569c-0.379,-0.379 -0.569,-0.895 -0.569,-1.547l0,-5.85l-2.576,0l0,-1.897l2.576,0l0,-3.175l2.296,0l0,3.175l2.835,0l0,1.897l-2.835,0l0,5.471c0,0.399 0.186,0.599 0.559,0.599l1.977,0l0,1.897l-2.735,0Z" style="fill:#86efac;fill-rule:nonzero;"/><path d="M1033.571,192.323l-1.537,-9.864l2.276,0l1.058,8.326l0.339,0l1.498,-8.326l3.674,0l1.498,8.326l0.339,0l1.058,-8.326l2.276,0l-1.537,9.864l-3.814,0l-1.478,-8.326l-0.339,0l-1.498,8.326l-3.814,0Z" style="fill:#86efac;fill-rule:nonzero;"/><path d="M1051.382,192.602c-0.692,0 -1.318,-0.123 -1.877,-0.369c-0.559,-0.246 -1.002,-0.602 -1.328,-1.068c-0.326,-0.466 -0.489,-1.038 -0.489,-1.717c0,-0.666 0.163,-1.225 0.489,-1.677c0.326,-0.453 0.775,-0.795 1.348,-1.028c0.572,-0.233 1.225,-0.349 1.957,-0.349l2.855,0l0,-0.599c0,-0.519 -0.16,-0.942 -0.479,-1.268c-0.319,-0.326 -0.819,-0.489 -1.498,-0.489c-0.666,0 -1.168,0.156 -1.507,0.469c-0.339,0.313 -0.562,0.715 -0.669,1.208l-2.116,-0.699c0.16,-0.519 0.416,-0.992 0.769,-1.418c0.353,-0.426 0.822,-0.769 1.408,-1.028c0.586,-0.26 1.304,-0.389 2.156,-0.389c1.291,0 2.306,0.323 3.045,0.968c0.739,0.646 1.108,1.581 1.108,2.805l0,3.874c0,0.399 0.186,0.599 0.559,0.599l0.839,0l0,1.897l-1.617,0c-0.479,0 -0.872,-0.12 -1.178,-0.359c-0.306,-0.24 -0.459,-0.566 -0.459,-0.978l0,-0.04l-0.339,0c-0.08,0.186 -0.22,0.413 -0.419,0.679c-0.2,0.266 -0.502,0.496 -0.908,0.689c-0.406,0.193 -0.955,0.29 -1.647,0.29Zm0.379,-1.877c0.759,0 1.378,-0.216 1.857,-0.649c0.479,-0.433 0.719,-1.015 0.719,-1.747l0,-0.2l-2.715,0c-0.493,0 -0.892,0.106 -1.198,0.319c-0.306,0.213 -0.459,0.526 -0.459,0.938c0,0.399 0.16,0.722 0.479,0.968c0.319,0.246 0.759,0.369 1.318,0.369Z" style="fill:#86efac;fill-rule:nonzero;"/><path d="M1060.666,196.316l0,-1.997l5.451,0c0.373,0 0.559,-0.2 0.559,-0.599l0,-2.755l-0.339,0c-0.106,0.24 -0.28,0.476 -0.519,0.709c-0.24,0.233 -0.559,0.426 -0.958,0.579c-0.399,0.153 -0.905,0.23 -1.517,0.23c-0.759,0 -1.431,-0.17 -2.017,-0.509c-0.586,-0.339 -1.038,-0.819 -1.358,-1.438c-0.319,-0.619 -0.479,-1.341 -0.479,-2.166l0,-5.91l2.276,0l0,5.73c0,0.799 0.196,1.391 0.589,1.777c0.393,0.386 0.948,0.579 1.667,0.579c0.812,0 1.454,-0.266 1.927,-0.799c0.473,-0.532 0.709,-1.298 0.709,-2.296l0,-4.992l2.276,0l0,11.74c0,0.652 -0.186,1.168 -0.559,1.547c-0.373,0.379 -0.879,0.569 -1.517,0.569l-6.19,0Z" style="fill:#86efac;fill-rule:nonzero;"/><path d="M1080.693,192.323c-0.639,0 -1.148,-0.19 -1.527,-0.569c-0.379,-0.379 -0.569,-0.895 -0.569,-1.547l0,-5.85l-2.576,0l0,-1.897l2.576,0l0,-3.175l2.296,0l0,3.175l2.835,0l0,1.897l-2.835,0l0,5.471c0,0.399 0.186,0.599 0.559,0.599l1.977,0l0,1.897l-2.735,0Z" style="fill:#86efac;fill-rule:nonzero;"/><path d="M1090.377,192.602c-0.985,0 -1.867,-0.203 -2.646,-0.609c-0.779,-0.406 -1.391,-0.985 -1.837,-1.737c-0.446,-0.752 -0.669,-1.654 -0.669,-2.705l0,-0.319c0,-1.052 0.223,-1.957 0.669,-2.715c0.446,-0.759 1.058,-1.338 1.837,-1.737c0.779,-0.399 1.661,-0.599 2.646,-0.599c0.985,0 1.864,0.2 2.636,0.599c0.772,0.399 1.381,0.978 1.827,1.737c0.446,0.759 0.669,1.664 0.669,2.715l0,0.319c0,1.052 -0.223,1.953 -0.669,2.705c-0.446,0.752 -1.055,1.331 -1.827,1.737c-0.772,0.406 -1.651,0.609 -2.636,0.609Zm0,-2.037c0.839,0 1.524,-0.27 2.057,-0.809c0.532,-0.539 0.799,-1.295 0.799,-2.266l0,-0.2c0,-0.972 -0.266,-1.727 -0.799,-2.266c-0.532,-0.539 -1.218,-0.809 -2.057,-0.809c-0.839,0 -1.524,0.27 -2.057,0.809c-0.532,0.539 -0.799,1.295 -0.799,2.266l0,0.2c0,0.972 0.266,1.727 0.799,2.266c0.532,0.539 1.218,0.809 2.057,0.809Z" style="fill:#86efac;fill-rule:nonzero;"/><path d="M1107.109,192.602c-1.278,0 -2.329,-0.28 -3.155,-0.839c-0.825,-0.559 -1.324,-1.378 -1.498,-2.456l2.116,-0.539c0.093,0.506 0.26,0.905 0.499,1.198c0.24,0.293 0.536,0.499 0.889,0.619c0.353,0.12 0.735,0.18 1.148,0.18c0.626,0 1.095,-0.113 1.408,-0.339c0.313,-0.226 0.469,-0.512 0.469,-0.859c0,-0.359 -0.15,-0.626 -0.449,-0.799c-0.3,-0.173 -0.755,-0.319 -1.368,-0.439l-0.619,-0.1c-0.679,-0.133 -1.298,-0.316 -1.857,-0.549c-0.559,-0.233 -1.008,-0.552 -1.348,-0.958c-0.339,-0.406 -0.509,-0.922 -0.509,-1.547c0,-0.958 0.356,-1.697 1.068,-2.216c0.712,-0.519 1.647,-0.779 2.805,-0.779c1.105,0 2.017,0.246 2.735,0.739c0.719,0.493 1.185,1.151 1.398,1.977l-2.116,0.639c-0.106,-0.559 -0.339,-0.955 -0.699,-1.188c-0.359,-0.233 -0.799,-0.349 -1.318,-0.349c-0.532,0 -0.942,0.093 -1.228,0.28c-0.286,0.186 -0.429,0.453 -0.429,0.799c0,0.346 0.146,0.606 0.439,0.779c0.293,0.173 0.686,0.3 1.178,0.379l0.619,0.12c0.732,0.133 1.394,0.306 1.987,0.519c0.592,0.213 1.062,0.519 1.408,0.918c0.346,0.399 0.519,0.938 0.519,1.617c0,1.025 -0.369,1.814 -1.108,2.366c-0.739,0.552 -1.734,0.829 -2.985,0.829Z" style="fill:#86efac;fill-rule:nonzero;"/><path d="M1118.031,192.602c-0.985,0 -1.854,-0.21 -2.606,-0.629c-0.752,-0.419 -1.338,-1.012 -1.757,-1.777c-0.419,-0.765 -0.629,-1.661 -0.629,-2.686l0,-0.24c0,-1.038 0.206,-1.937 0.619,-2.696c0.413,-0.759 0.992,-1.348 1.737,-1.767c0.745,-0.419 1.604,-0.629 2.576,-0.629c0.958,0 1.797,0.21 2.516,0.629c0.719,0.419 1.278,1.008 1.677,1.767c0.399,0.759 0.599,1.644 0.599,2.656l0,0.819l-7.408,0c0.027,0.772 0.3,1.391 0.819,1.857c0.519,0.466 1.158,0.699 1.917,0.699c0.745,0 1.298,-0.163 1.657,-0.489c0.359,-0.326 0.632,-0.696 0.819,-1.108l1.897,0.978c-0.186,0.359 -0.456,0.742 -0.809,1.148c-0.353,0.406 -0.822,0.752 -1.408,1.038c-0.586,0.286 -1.324,0.429 -2.216,0.429Zm-2.656,-6.29l5.052,0c-0.053,-0.652 -0.303,-1.171 -0.749,-1.557c-0.446,-0.386 -1.022,-0.579 -1.727,-0.579c-0.732,0 -1.318,0.193 -1.757,0.579c-0.439,0.386 -0.712,0.905 -0.819,1.557Z" style="fill:#86efac;fill-rule:nonzero;"/><path d="M1129.731,192.602c-0.958,0 -1.824,-0.2 -2.596,-0.599c-0.772,-0.399 -1.381,-0.978 -1.827,-1.737c-0.446,-0.759 -0.669,-1.671 -0.669,-2.735l0,-0.28c0,-1.065 0.223,-1.977 0.669,-2.735c0.446,-0.759 1.055,-1.338 1.827,-1.737c0.772,-0.399 1.637,-0.599 2.596,-0.599c0.945,0 1.754,0.166 2.426,0.499c0.672,0.333 1.215,0.789 1.627,1.368c0.413,0.579 0.679,1.228 0.799,1.947l-2.216,0.459c-0.053,-0.413 -0.18,-0.789 -0.379,-1.128c-0.2,-0.339 -0.483,-0.609 -0.849,-0.809c-0.366,-0.2 -0.815,-0.3 -1.348,-0.3c-0.546,0 -1.035,0.116 -1.468,0.349c-0.433,0.233 -0.772,0.582 -1.018,1.048c-0.246,0.466 -0.369,1.025 -0.369,1.677l0,0.2c0,0.652 0.123,1.208 0.369,1.667c0.246,0.459 0.586,0.809 1.018,1.048c0.433,0.24 0.922,0.359 1.468,0.359c0.812,0 1.428,-0.21 1.847,-0.629c0.419,-0.419 0.682,-0.962 0.789,-1.627l2.216,0.519c-0.16,0.692 -0.446,1.324 -0.859,1.897c-0.413,0.572 -0.955,1.028 -1.627,1.368c-0.672,0.339 -1.481,0.509 -2.426,0.509Z" style="fill:#86efac;fill-rule:nonzero;"/><path d="M1140.653,192.483c-0.759,0 -1.431,-0.17 -2.017,-0.509c-0.586,-0.339 -1.038,-0.819 -1.358,-1.438c-0.319,-0.619 -0.479,-1.341 -0.479,-2.166l0,-5.91l2.276,0l0,5.73c0,0.799 0.196,1.391 0.589,1.777c0.393,0.386 0.948,0.579 1.667,0.579c0.812,0 1.454,-0.266 1.927,-0.799c0.473,-0.532 0.709,-1.298 0.709,-2.296l0,-4.992l2.276,0l0,9.864l-2.236,0l0,-1.378l-0.339,0c-0.173,0.359 -0.489,0.705 -0.948,1.038c-0.459,0.333 -1.148,0.499 -2.067,0.499Z" style="fill:#86efac;fill-rule:nonzero;"/><path d="M1149.159,192.323l0,-9.864l2.256,0l0,1.138l0.339,0c0.146,-0.413 0.393,-0.712 0.739,-0.899c0.346,-0.186 0.759,-0.28 1.238,-0.28l1.198,0l0,2.037l-1.238,0c-0.666,0 -1.205,0.176 -1.617,0.529c-0.413,0.353 -0.619,0.895 -0.619,1.627l0,5.71l-2.296,0Z" style="fill:#86efac;fill-rule:nonzero;"/><path d="M1161.119,192.602c-0.985,0 -1.854,-0.21 -2.606,-0.629c-0.752,-0.419 -1.338,-1.012 -1.757,-1.777c-0.419,-0.765 -0.629,-1.661 -0.629,-2.686l0,-0.24c0,-1.038 0.206,-1.937 0.619,-2.696c0.413,-0.759 0.992,-1.348 1.737,-1.767c0.745,-0.419 1.604,-0.629 2.576,-0.629c0.958,0 1.797,0.21 2.516,0.629c0.719,0.419 1.278,1.008 1.677,1.767c0.399,0.759 0.599,1.644 0.599,2.656l0,0.819l-7.408,0c0.027,0.772 0.3,1.391 0.819,1.857c0.519,0.466 1.158,0.699 1.917,0.699c0.745,0 1.298,-0.163 1.657,-0.489c0.359,-0.326 0.632,-0.696 0.819,-1.108l1.897,0.978c-0.186,0.359 -0.456,0.742 -0.809,1.148c-0.353,0.406 -0.822,0.752 -1.408,1.038c-0.586,0.286 -1.324,0.429 -2.216,0.429Zm-2.656,-6.29l5.052,0c-0.053,-0.652 -0.303,-1.171 -0.749,-1.557c-0.446,-0.386 -1.022,-0.579 -1.727,-0.579c-0.732,0 -1.318,0.193 -1.757,0.579c-0.439,0.386 -0.712,0.905 -0.819,1.557Z" style="fill:#86efac;fill-rule:nonzero;"/><path d="M1176.354,192.602c-0.692,0 -1.318,-0.123 -1.877,-0.369c-0.559,-0.246 -1.002,-0.602 -1.328,-1.068c-0.326,-0.466 -0.489,-1.038 -0.489,-1.717c0,-0.666 0.163,-1.225 0.489,-1.677c0.326,-0.453 0.775,-0.795 1.348,-1.028c0.572,-0.233 1.225,-0.349 1.957,-0.349l2.855,0l0,-0.599c0,-0.519 -0.16,-0.942 -0.479,-1.268c-0.319,-0.326 -0.819,-0.489 -1.498,-0.489c-0.666,0 -1.168,0.156 -1.507,0.469c-0.339,0.313 -0.562,0.715 -0.669,1.208l-2.116,-0.699c0.16,-0.519 0.416,-0.992 0.769,-1.418c0.353,-0.426 0.822,-0.769 1.408,-1.028c0.586,-0.26 1.304,-0.389 2.156,-0.389c1.291,0 2.306,0.323 3.045,0.968c0.739,0.646 1.108,1.581 1.108,2.805l0,3.874c0,0.399 0.186,0.599 0.559,0.599l0.839,0l0,1.897l-1.617,0c-0.479,0 -0.872,-0.12 -1.178,-0.359c-0.306,-0.24 -0.459,-0.566 -0.459,-0.978l0,-0.04l-0.339,0c-0.08,0.186 -0.22,0.413 -0.419,0.679c-0.2,0.266 -0.502,0.496 -0.908,0.689c-0.406,0.193 -0.955,0.29 -1.647,0.29Zm0.379,-1.877c0.759,0 1.378,-0.216 1.857,-0.649c0.479,-0.433 0.719,-1.015 0.719,-1.747l0,-0.2l-2.715,0c-0.493,0 -0.892,0.106 -1.198,0.319c-0.306,0.213 -0.459,0.526 -0.459,0.938c0,0.399 0.16,0.722 0.479,0.968c0.319,0.246 0.759,0.369 1.318,0.369Z" style="fill:#86efac;fill-rule:nonzero;"/><path d="M1184.82,192.323l0,-9.864l2.256,0l0,1.378l0.339,0c0.173,-0.373 0.486,-0.725 0.938,-1.058c0.453,-0.333 1.138,-0.499 2.057,-0.499c0.759,0 1.431,0.173 2.017,0.519c0.586,0.346 1.042,0.825 1.368,1.438c0.326,0.612 0.489,1.338 0.489,2.176l0,5.91l-2.296,0l0,-5.73c0,-0.799 -0.196,-1.394 -0.589,-1.787c-0.393,-0.393 -0.948,-0.589 -1.667,-0.589c-0.812,0 -1.451,0.27 -1.917,0.809c-0.466,0.539 -0.699,1.308 -0.699,2.306l0,4.992l-2.296,0Z" style="fill:#86efac;fill-rule:nonzero;"/><path d="M1201.132,192.602c-0.799,0 -1.544,-0.196 -2.236,-0.589c-0.692,-0.393 -1.245,-0.968 -1.657,-1.727c-0.413,-0.759 -0.619,-1.671 -0.619,-2.735l0,-0.319c0,-1.065 0.206,-1.977 0.619,-2.735c0.413,-0.759 0.962,-1.334 1.647,-1.727c0.686,-0.393 1.434,-0.589 2.246,-0.589c0.612,0 1.131,0.073 1.557,0.22c0.426,0.146 0.769,0.333 1.028,0.559c0.26,0.226 0.463,0.473 0.609,0.739l0.339,0l0,-5.351l2.276,0l0,13.977l-2.236,0l0,-1.298l-0.339,0c-0.24,0.399 -0.606,0.762 -1.098,1.088c-0.493,0.326 -1.205,0.489 -2.136,0.489Zm0.679,-1.997c0.825,0 1.511,-0.27 2.057,-0.809c0.546,-0.539 0.819,-1.308 0.819,-2.306l0,-0.2c0,-1.012 -0.27,-1.784 -0.809,-2.316c-0.539,-0.532 -1.228,-0.799 -2.067,-0.799c-0.825,0 -1.514,0.266 -2.067,0.799c-0.552,0.532 -0.829,1.304 -0.829,2.316l0,0.2c0,0.998 0.276,1.767 0.829,2.306c0.552,0.539 1.241,0.809 2.067,0.809Z" style="fill:#86efac;fill-rule:nonzero;"/><path d="M905.085,217.8l0,-9.864l2.256,0l0,1.098l0.339,0c0.173,-0.333 0.463,-0.629 0.869,-0.889c0.406,-0.26 0.948,-0.389 1.627,-0.389c0.719,0 1.298,0.146 1.737,0.439c0.439,0.293 0.772,0.666 0.998,1.118l0.319,0c0.226,-0.453 0.552,-0.825 0.978,-1.118c0.426,-0.293 1.032,-0.439 1.817,-0.439c0.612,0 1.168,0.133 1.667,0.399c0.499,0.266 0.899,0.659 1.198,1.178c0.3,0.519 0.449,1.165 0.449,1.937l0,6.529l-2.296,0l0,-6.369c0,-0.572 -0.153,-1.008 -0.459,-1.308c-0.306,-0.3 -0.732,-0.449 -1.278,-0.449c-0.599,0 -1.075,0.196 -1.428,0.589c-0.353,0.393 -0.529,0.955 -0.529,1.687l0,5.85l-2.276,0l0,-6.369c0,-0.572 -0.153,-1.008 -0.459,-1.308c-0.306,-0.3 -0.732,-0.449 -1.278,-0.449c-0.612,0 -1.092,0.196 -1.438,0.589c-0.346,0.393 -0.519,0.955 -0.519,1.687l0,5.85l-2.296,0Z" style="fill:#86efac;fill-rule:nonzero;"/><path d="M925.212,218.08c-0.692,0 -1.318,-0.123 -1.877,-0.369c-0.559,-0.246 -1.002,-0.602 -1.328,-1.068c-0.326,-0.466 -0.489,-1.038 -0.489,-1.717c0,-0.666 0.163,-1.225 0.489,-1.677c0.326,-0.453 0.775,-0.795 1.348,-1.028c0.572,-0.233 1.225,-0.349 1.957,-0.349l2.855,0l0,-0.599c0,-0.519 -0.16,-0.942 -0.479,-1.268c-0.319,-0.326 -0.819,-0.489 -1.498,-0.489c-0.666,0 -1.168,0.156 -1.507,0.469c-0.339,0.313 -0.562,0.715 -0.669,1.208l-2.116,-0.699c0.16,-0.519 0.416,-0.992 0.769,-1.418c0.353,-0.426 0.822,-0.769 1.408,-1.028c0.586,-0.26 1.304,-0.389 2.156,-0.389c1.291,0 2.306,0.323 3.045,0.968c0.739,0.646 1.108,1.581 1.108,2.805l0,3.874c0,0.399 0.186,0.599 0.559,0.599l0.839,0l0,1.897l-1.617,0c-0.479,0 -0.872,-0.12 -1.178,-0.359c-0.306,-0.24 -0.459,-0.566 -0.459,-0.978l0,-0.04l-0.339,0c-0.08,0.186 -0.22,0.413 -0.419,0.679c-0.2,0.266 -0.502,0.496 -0.908,0.689c-0.406,0.193 -0.955,0.29 -1.647,0.29Zm0.379,-1.877c0.759,0 1.378,-0.216 1.857,-0.649c0.479,-0.433 0.719,-1.015 0.719,-1.747l0,-0.2l-2.715,0c-0.493,0 -0.892,0.106 -1.198,0.319c-0.306,0.213 -0.459,0.526 -0.459,0.938c0,0.399 0.16,0.722 0.479,0.968c0.319,0.246 0.759,0.369 1.318,0.369Z" style="fill:#86efac;fill-rule:nonzero;"/><path d="M933.678,217.8l0,-9.864l2.256,0l0,1.378l0.339,0c0.173,-0.373 0.486,-0.725 0.938,-1.058c0.453,-0.333 1.138,-0.499 2.057,-0.499c0.759,0 1.431,0.173 2.017,0.519c0.586,0.346 1.042,0.825 1.368,1.438c0.326,0.612 0.489,1.338 0.489,2.176l0,5.91l-2.296,0l0,-5.73c0,-0.799 -0.196,-1.394 -0.589,-1.787c-0.393,-0.393 -0.948,-0.589 -1.667,-0.589c-0.812,0 -1.451,0.27 -1.917,0.809c-0.466,0.539 -0.699,1.308 -0.699,2.306l0,4.992l-2.296,0Z" style="fill:#86efac;fill-rule:nonzero;"/><path d="M949.012,218.08c-0.692,0 -1.318,-0.123 -1.877,-0.369c-0.559,-0.246 -1.002,-0.602 -1.328,-1.068c-0.326,-0.466 -0.489,-1.038 -0.489,-1.717c0,-0.666 0.163,-1.225 0.489,-1.677c0.326,-0.453 0.775,-0.795 1.348,-1.028c0.572,-0.233 1.225,-0.349 1.957,-0.349l2.855,0l0,-0.599c0,-0.519 -0.16,-0.942 -0.479,-1.268c-0.319,-0.326 -0.819,-0.489 -1.498,-0.489c-0.666,0 -1.168,0.156 -1.507,0.469c-0.339,0.313 -0.562,0.715 -0.669,1.208l-2.116,-0.699c0.16,-0.519 0.416,-0.992 0.769,-1.418c0.353,-0.426 0.822,-0.769 1.408,-1.028c0.586,-0.26 1.304,-0.389 2.156,-0.389c1.291,0 2.306,0.323 3.045,0.968c0.739,0.646 1.108,1.581 1.108,2.805l0,3.874c0,0.399 0.186,0.599 0.559,0.599l0.839,0l0,1.897l-1.617,0c-0.479,0 -0.872,-0.12 -1.178,-0.359c-0.306,-0.24 -0.459,-0.566 -0.459,-0.978l0,-0.04l-0.339,0c-0.08,0.186 -0.22,0.413 -0.419,0.679c-0.2,0.266 -0.502,0.496 -0.908,0.689c-0.406,0.193 -0.955,0.29 -1.647,0.29Zm0.379,-1.877c0.759,0 1.378,-0.216 1.857,-0.649c0.479,-0.433 0.719,-1.015 0.719,-1.747l0,-0.2l-2.715,0c-0.493,0 -0.892,0.106 -1.198,0.319c-0.306,0.213 -0.459,0.526 -0.459,0.938c0,0.399 0.16,0.722 0.479,0.968c0.319,0.246 0.759,0.369 1.318,0.369Z" style="fill:#86efac;fill-rule:nonzero;"/><path d="M956.779,212.909l0,-0.3c0,-1.038 0.206,-1.927 0.619,-2.666c0.413,-0.739 0.965,-1.304 1.657,-1.697c0.692,-0.393 1.451,-0.589 2.276,-0.589c0.932,0 1.641,0.166 2.126,0.499c0.486,0.333 0.842,0.692 1.068,1.078l0.339,0l0,-1.298l2.236,0l0,11.74c0,0.652 -0.186,1.168 -0.559,1.547c-0.373,0.379 -0.879,0.569 -1.517,0.569l-6.629,0l0,-1.997l5.85,0c0.386,0 0.579,-0.2 0.579,-0.599l0,-2.855l-0.339,0c-0.146,0.226 -0.346,0.456 -0.599,0.689c-0.253,0.233 -0.586,0.429 -0.998,0.589c-0.413,0.16 -0.932,0.24 -1.557,0.24c-0.825,0 -1.584,-0.196 -2.276,-0.589c-0.692,-0.393 -1.245,-0.958 -1.657,-1.697c-0.413,-0.739 -0.619,-1.627 -0.619,-2.666Zm5.191,2.935c0.825,0 1.511,-0.263 2.057,-0.789c0.546,-0.526 0.819,-1.261 0.819,-2.206l0,-0.2c0,-0.958 -0.27,-1.697 -0.809,-2.216c-0.539,-0.519 -1.228,-0.779 -2.067,-0.779c-0.825,0 -1.514,0.26 -2.067,0.779c-0.552,0.519 -0.829,1.258 -0.829,2.216l0,0.2c0,0.945 0.276,1.681 0.829,2.206c0.552,0.526 1.241,0.789 2.067,0.789Z" style="fill:#86efac;fill-rule:nonzero;"/><path d="M974.53,218.08c-0.985,0 -1.854,-0.21 -2.606,-0.629c-0.752,-0.419 -1.338,-1.012 -1.757,-1.777c-0.419,-0.765 -0.629,-1.661 -0.629,-2.686l0,-0.24c0,-1.038 0.206,-1.937 0.619,-2.696c0.413,-0.759 0.992,-1.348 1.737,-1.767c0.745,-0.419 1.604,-0.629 2.576,-0.629c0.958,0 1.797,0.21 2.516,0.629c0.719,0.419 1.278,1.008 1.677,1.767c0.399,0.759 0.599,1.644 0.599,2.656l0,0.819l-7.408,0c0.027,0.772 0.3,1.391 0.819,1.857c0.519,0.466 1.158,0.699 1.917,0.699c0.745,0 1.298,-0.163 1.657,-0.489c0.359,-0.326 0.632,-0.696 0.819,-1.108l1.897,0.978c-0.186,0.359 -0.456,0.742 -0.809,1.148c-0.353,0.406 -0.822,0.752 -1.408,1.038c-0.586,0.286 -1.324,0.429 -2.216,0.429Zm-2.656,-6.29l5.052,0c-0.053,-0.652 -0.303,-1.171 -0.749,-1.557c-0.446,-0.386 -1.022,-0.579 -1.727,-0.579c-0.732,0 -1.318,0.193 -1.757,0.579c-0.439,0.386 -0.712,0.905 -0.819,1.557Z" style="fill:#86efac;fill-rule:nonzero;"/><path d="M987.808,221.794l0,-1.997l5.451,0c0.373,0 0.559,-0.2 0.559,-0.599l0,-2.755l-0.339,0c-0.106,0.24 -0.28,0.476 -0.519,0.709c-0.24,0.233 -0.559,0.426 -0.958,0.579c-0.399,0.153 -0.905,0.23 -1.517,0.23c-0.759,0 -1.431,-0.17 -2.017,-0.509c-0.586,-0.339 -1.038,-0.819 -1.358,-1.438c-0.319,-0.619 -0.479,-1.341 -0.479,-2.166l0,-5.91l2.276,0l0,5.73c0,0.799 0.196,1.391 0.589,1.777c0.393,0.386 0.948,0.579 1.667,0.579c0.812,0 1.454,-0.266 1.927,-0.799c0.473,-0.532 0.709,-1.298 0.709,-2.296l0,-4.992l2.276,0l0,11.74c0,0.652 -0.186,1.168 -0.559,1.547c-0.373,0.379 -0.879,0.569 -1.517,0.569l-6.19,0Z" style="fill:#86efac;fill-rule:nonzero;"/><path d="M1003.661,218.08c-0.985,0 -1.867,-0.203 -2.646,-0.609c-0.779,-0.406 -1.391,-0.985 -1.837,-1.737c-0.446,-0.752 -0.669,-1.654 -0.669,-2.705l0,-0.319c0,-1.052 0.223,-1.957 0.669,-2.715c0.446,-0.759 1.058,-1.338 1.837,-1.737c0.779,-0.399 1.661,-0.599 2.646,-0.599c0.985,0 1.864,0.2 2.636,0.599c0.772,0.399 1.381,0.978 1.827,1.737c0.446,0.759 0.669,1.664 0.669,2.715l0,0.319c0,1.052 -0.223,1.953 -0.669,2.705c-0.446,0.752 -1.055,1.331 -1.827,1.737c-0.772,0.406 -1.651,0.609 -2.636,0.609Zm0,-2.037c0.839,0 1.524,-0.27 2.057,-0.809c0.532,-0.539 0.799,-1.295 0.799,-2.266l0,-0.2c0,-0.972 -0.266,-1.727 -0.799,-2.266c-0.532,-0.539 -1.218,-0.809 -2.057,-0.809c-0.839,0 -1.524,0.27 -2.057,0.809c-0.532,0.539 -0.799,1.295 -0.799,2.266l0,0.2c0,0.972 0.266,1.727 0.799,2.266c0.532,0.539 1.218,0.809 2.057,0.809Z" style="fill:#86efac;fill-rule:nonzero;"/><path d="M1015.002,217.96c-0.759,0 -1.431,-0.17 -2.017,-0.509c-0.586,-0.339 -1.038,-0.819 -1.358,-1.438c-0.319,-0.619 -0.479,-1.341 -0.479,-2.166l0,-5.91l2.276,0l0,5.73c0,0.799 0.196,1.391 0.589,1.777c0.393,0.386 0.948,0.579 1.667,0.579c0.812,0 1.454,-0.266 1.927,-0.799c0.473,-0.532 0.709,-1.298 0.709,-2.296l0,-4.992l2.276,0l0,9.864l-2.236,0l0,-1.378l-0.339,0c-0.173,0.359 -0.489,0.705 -0.948,1.038c-0.459,0.333 -1.148,0.499 -2.067,0.499Z" style="fill:#86efac;fill-rule:nonzero;"/><path d="M1023.508,217.8l0,-9.864l2.256,0l0,1.138l0.339,0c0.146,-0.413 0.393,-0.712 0.739,-0.899c0.346,-0.186 0.759,-0.28 1.238,-0.28l1.198,0l0,2.037l-1.238,0c-0.666,0 -1.205,0.176 -1.617,0.529c-0.413,0.353 -0.619,0.895 -0.619,1.627l0,5.71l-2.296,0Z" style="fill:#86efac;fill-rule:nonzero;"/><path d="M1040.48,218.08c-1.278,0 -2.329,-0.28 -3.155,-0.839c-0.825,-0.559 -1.324,-1.378 -1.498,-2.456l2.116,-0.539c0.093,0.506 0.26,0.905 0.499,1.198c0.24,0.293 0.536,0.499 0.889,0.619c0.353,0.12 0.735,0.18 1.148,0.18c0.626,0 1.095,-0.113 1.408,-0.339c0.313,-0.226 0.469,-0.512 0.469,-0.859c0,-0.359 -0.15,-0.626 -0.449,-0.799c-0.3,-0.173 -0.755,-0.319 -1.368,-0.439l-0.619,-0.1c-0.679,-0.133 -1.298,-0.316 -1.857,-0.549c-0.559,-0.233 -1.008,-0.552 -1.348,-0.958c-0.339,-0.406 -0.509,-0.922 -0.509,-1.547c0,-0.958 0.356,-1.697 1.068,-2.216c0.712,-0.519 1.647,-0.779 2.805,-0.779c1.105,0 2.017,0.246 2.735,0.739c0.719,0.493 1.185,1.151 1.398,1.977l-2.116,0.639c-0.106,-0.559 -0.339,-0.955 -0.699,-1.188c-0.359,-0.233 -0.799,-0.349 -1.318,-0.349c-0.532,0 -0.942,0.093 -1.228,0.28c-0.286,0.186 -0.429,0.453 -0.429,0.799c0,0.346 0.146,0.606 0.439,0.779c0.293,0.173 0.686,0.3 1.178,0.379l0.619,0.12c0.732,0.133 1.394,0.306 1.987,0.519c0.592,0.213 1.062,0.519 1.408,0.918c0.346,0.399 0.519,0.938 0.519,1.617c0,1.025 -0.369,1.814 -1.108,2.366c-0.739,0.552 -1.734,0.829 -2.985,0.829Z" style="fill:#86efac;fill-rule:nonzero;"/><path d="M1050.443,217.8c-0.639,0 -1.148,-0.19 -1.527,-0.569c-0.379,-0.379 -0.569,-0.895 -0.569,-1.547l0,-5.85l-2.576,0l0,-1.897l2.576,0l0,-3.175l2.296,0l0,3.175l2.835,0l0,1.897l-2.835,0l0,5.471c0,0.399 0.186,0.599 0.559,0.599l1.977,0l0,1.897l-2.735,0Z" style="fill:#86efac;fill-rule:nonzero;"/><path d="M1058.849,218.08c-0.692,0 -1.318,-0.123 -1.877,-0.369c-0.559,-0.246 -1.002,-0.602 -1.328,-1.068c-0.326,-0.466 -0.489,-1.038 -0.489,-1.717c0,-0.666 0.163,-1.225 0.489,-1.677c0.326,-0.453 0.775,-0.795 1.348,-1.028c0.572,-0.233 1.225,-0.349 1.957,-0.349l2.855,0l0,-0.599c0,-0.519 -0.16,-0.942 -0.479,-1.268c-0.319,-0.326 -0.819,-0.489 -1.498,-0.489c-0.666,0 -1.168,0.156 -1.507,0.469c-0.339,0.313 -0.562,0.715 -0.669,1.208l-2.116,-0.699c0.16,-0.519 0.416,-0.992 0.769,-1.418c0.353,-0.426 0.822,-0.769 1.408,-1.028c0.586,-0.26 1.304,-0.389 2.156,-0.389c1.291,0 2.306,0.323 3.045,0.968c0.739,0.646 1.108,1.581 1.108,2.805l0,3.874c0,0.399 0.186,0.599 0.559,0.599l0.839,0l0,1.897l-1.617,0c-0.479,0 -0.872,-0.12 -1.178,-0.359c-0.306,-0.24 -0.459,-0.566 -0.459,-0.978l0,-0.04l-0.339,0c-0.08,0.186 -0.22,0.413 -0.419,0.679c-0.2,0.266 -0.502,0.496 -0.908,0.689c-0.406,0.193 -0.955,0.29 -1.647,0.29Zm0.379,-1.877c0.759,0 1.378,-0.216 1.857,-0.649c0.479,-0.433 0.719,-1.015 0.719,-1.747l0,-0.2l-2.715,0c-0.493,0 -0.892,0.106 -1.198,0.319c-0.306,0.213 -0.459,0.526 -0.459,0.938c0,0.399 0.16,0.722 0.479,0.968c0.319,0.246 0.759,0.369 1.318,0.369Z" style="fill:#86efac;fill-rule:nonzero;"/><path d="M1067.315,217.8l0,-9.864l2.256,0l0,1.138l0.339,0c0.146,-0.413 0.393,-0.712 0.739,-0.899c0.346,-0.186 0.759,-0.28 1.238,-0.28l1.198,0l0,2.037l-1.238,0c-0.666,0 -1.205,0.176 -1.617,0.529c-0.413,0.353 -0.619,0.895 -0.619,1.627l0,5.71l-2.296,0Z" style="fill:#86efac;fill-rule:nonzero;"/><path d="M1078.876,217.8c-0.639,0 -1.148,-0.19 -1.527,-0.569c-0.379,-0.379 -0.569,-0.895 -0.569,-1.547l0,-5.85l-2.576,0l0,-1.897l2.576,0l0,-3.175l2.296,0l0,3.175l2.835,0l0,1.897l-2.835,0l0,5.471c0,0.399 0.186,0.599 0.559,0.599l1.977,0l0,1.897l-2.735,0Z" style="fill:#86efac;fill-rule:nonzero;"/><path d="M1088.021,217.96c-0.759,0 -1.431,-0.17 -2.017,-0.509c-0.586,-0.339 -1.038,-0.819 -1.358,-1.438c-0.319,-0.619 -0.479,-1.341 -0.479,-2.166l0,-5.91l2.276,0l0,5.73c0,0.799 0.196,1.391 0.589,1.777c0.393,0.386 0.948,0.579 1.667,0.579c0.812,0 1.454,-0.266 1.927,-0.799c0.473,-0.532 0.709,-1.298 0.709,-2.296l0,-4.992l2.276,0l0,9.864l-2.236,0l0,-1.378l-0.339,0c-0.173,0.359 -0.489,0.705 -0.948,1.038c-0.459,0.333 -1.148,0.499 -2.067,0.499Z" style="fill:#86efac;fill-rule:nonzero;"/><path d="M1096.527,221.794l0,-13.857l2.256,0l0,1.298l0.339,0c0.226,-0.413 0.589,-0.779 1.088,-1.098c0.499,-0.319 1.215,-0.479 2.146,-0.479c0.799,0 1.541,0.196 2.226,0.589c0.686,0.393 1.235,0.968 1.647,1.727c0.413,0.759 0.619,1.671 0.619,2.735l0,0.319c0,1.065 -0.206,1.977 -0.619,2.735c-0.413,0.759 -0.958,1.334 -1.637,1.727c-0.679,0.393 -1.424,0.589 -2.236,0.589c-0.626,0 -1.148,-0.073 -1.567,-0.22c-0.419,-0.146 -0.759,-0.339 -1.018,-0.579c-0.26,-0.24 -0.463,-0.479 -0.609,-0.719l-0.339,0l0,5.231l-2.296,0Zm5.151,-5.71c0.839,0 1.527,-0.27 2.067,-0.809c0.539,-0.539 0.809,-1.308 0.809,-2.306l0,-0.2c0,-1.012 -0.273,-1.784 -0.819,-2.316c-0.546,-0.532 -1.231,-0.799 -2.057,-0.799c-0.825,0 -1.514,0.266 -2.067,0.799c-0.552,0.532 -0.829,1.304 -0.829,2.316l0,0.2c0,0.998 0.276,1.767 0.829,2.306c0.552,0.539 1.241,0.809 2.067,0.809Z" style="fill:#86efac;fill-rule:nonzero;"/><path d="M1108.866,209.594l0,-1.278l0.739,0c0.572,0 0.859,-0.286 0.859,-0.859l0,-0.639l-0.319,0c-0.493,0 -0.905,-0.15 -1.238,-0.449c-0.333,-0.3 -0.499,-0.682 -0.499,-1.148c0,-0.493 0.166,-0.895 0.499,-1.208c0.333,-0.313 0.745,-0.469 1.238,-0.469c0.506,0 0.918,0.16 1.238,0.479c0.319,0.319 0.479,0.739 0.479,1.258l0,2.196c0,1.411 -0.699,2.116 -2.097,2.116l-0.899,0Z" style="fill:#86efac;fill-rule:nonzero;"/><path d="M1118.35,218.08c-1.278,0 -2.329,-0.28 -3.155,-0.839c-0.825,-0.559 -1.324,-1.378 -1.498,-2.456l2.116,-0.539c0.093,0.506 0.26,0.905 0.499,1.198c0.24,0.293 0.536,0.499 0.889,0.619c0.353,0.12 0.735,0.18 1.148,0.18c0.626,0 1.095,-0.113 1.408,-0.339c0.313,-0.226 0.469,-0.512 0.469,-0.859c0,-0.359 -0.15,-0.626 -0.449,-0.799c-0.3,-0.173 -0.755,-0.319 -1.368,-0.439l-0.619,-0.1c-0.679,-0.133 -1.298,-0.316 -1.857,-0.549c-0.559,-0.233 -1.008,-0.552 -1.348,-0.958c-0.339,-0.406 -0.509,-0.922 -0.509,-1.547c0,-0.958 0.356,-1.697 1.068,-2.216c0.712,-0.519 1.647,-0.779 2.805,-0.779c1.105,0 2.017,0.246 2.735,0.739c0.719,0.493 1.185,1.151 1.398,1.977l-2.116,0.639c-0.106,-0.559 -0.339,-0.955 -0.699,-1.188c-0.359,-0.233 -0.799,-0.349 -1.318,-0.349c-0.532,0 -0.942,0.093 -1.228,0.28c-0.286,0.186 -0.429,0.453 -0.429,0.799c0,0.346 0.146,0.606 0.439,0.779c0.293,0.173 0.686,0.3 1.178,0.379l0.619,0.12c0.732,0.133 1.394,0.306 1.987,0.519c0.592,0.213 1.062,0.519 1.408,0.918c0.346,0.399 0.519,0.938 0.519,1.617c0,1.025 -0.369,1.814 -1.108,2.366c-0.739,0.552 -1.734,0.829 -2.985,0.829Z" style="fill:#86efac;fill-rule:nonzero;"/><path d="M1128.553,217.8l3.834,-13.977l4.173,0l3.834,13.977l-2.476,0l-0.839,-3.195l-5.211,0l-0.839,3.195l-2.476,0Zm3.874,-5.391l4.093,0l-1.877,-7.088l-0.339,0l-1.877,7.088Z" style="fill:#86efac;fill-rule:nonzero;"/><path d="M1142.171,217.8l0,-13.977l5.651,0c0.879,0 1.651,0.173 2.316,0.519c0.666,0.346 1.191,0.835 1.577,1.468c0.386,0.632 0.579,1.381 0.579,2.246l0,0.28c0,0.852 -0.196,1.597 -0.589,2.236c-0.393,0.639 -0.925,1.131 -1.597,1.478c-0.672,0.346 -1.434,0.519 -2.286,0.519l-3.235,0l0,5.231l-2.416,0Zm2.416,-7.408l2.995,0c0.692,0 1.248,-0.186 1.667,-0.559c0.419,-0.373 0.629,-0.885 0.629,-1.537l0,-0.2c0,-0.652 -0.206,-1.165 -0.619,-1.537c-0.413,-0.373 -0.972,-0.559 -1.677,-0.559l-2.995,0l0,4.393Z" style="fill:#86efac;fill-rule:nonzero;"/><rect x="1154.21" y="203.824" width="2.416" height="13.977" style="fill:#86efac;fill-rule:nonzero;"/><path d="M1163.535,218.08c-1.278,0 -2.329,-0.28 -3.155,-0.839c-0.825,-0.559 -1.324,-1.378 -1.498,-2.456l2.116,-0.539c0.093,0.506 0.26,0.905 0.499,1.198c0.24,0.293 0.536,0.499 0.889,0.619c0.353,0.12 0.735,0.18 1.148,0.18c0.626,0 1.095,-0.113 1.408,-0.339c0.313,-0.226 0.469,-0.512 0.469,-0.859c0,-0.359 -0.15,-0.626 -0.449,-0.799c-0.3,-0.173 -0.755,-0.319 -1.368,-0.439l-0.619,-0.1c-0.679,-0.133 -1.298,-0.316 -1.857,-0.549c-0.559,-0.233 -1.008,-0.552 -1.348,-0.958c-0.339,-0.406 -0.509,-0.922 -0.509,-1.547c0,-0.958 0.356,-1.697 1.068,-2.216c0.712,-0.519 1.647,-0.779 2.805,-0.779c1.105,0 2.017,0.246 2.735,0.739c0.719,0.493 1.185,1.151 1.398,1.977l-2.116,0.639c-0.106,-0.559 -0.339,-0.955 -0.699,-1.188c-0.359,-0.233 -0.799,-0.349 -1.318,-0.349c-0.532,0 -0.942,0.093 -1.228,0.28c-0.286,0.186 -0.429,0.453 -0.429,0.799c0,0.346 0.146,0.606 0.439,0.779c0.293,0.173 0.686,0.3 1.178,0.379l0.619,0.12c0.732,0.133 1.394,0.306 1.987,0.519c0.592,0.213 1.062,0.519 1.408,0.918c0.346,0.399 0.519,0.938 0.519,1.617c0,1.025 -0.369,1.814 -1.108,2.366c-0.739,0.552 -1.734,0.829 -2.985,0.829Z" style="fill:#86efac;fill-rule:nonzero;"/><path d="M1171.362,218.08c-0.506,0 -0.928,-0.166 -1.268,-0.499c-0.339,-0.333 -0.509,-0.759 -0.509,-1.278c0,-0.506 0.17,-0.925 0.509,-1.258c0.339,-0.333 0.762,-0.499 1.268,-0.499c0.506,0 0.925,0.166 1.258,0.499c0.333,0.333 0.499,0.759 0.499,1.278c0,0.519 -0.166,0.942 -0.499,1.268c-0.333,0.326 -0.752,0.489 -1.258,0.489Z" style="fill:#86efac;fill-rule:nonzero;"/></g></svg>